<svg xmlns="http://www.w3.org/2000/svg" viewBox="0 0 1320 660">
<defs>
  <linearGradient id="bg" x1="0" y1="0" x2="1" y2="1">
    <stop offset="0%" stop-color="#081018"/>
    <stop offset="100%" stop-color="#101d2a"/>
  </linearGradient>
  <style>
    .title { font: 700 34px Helvetica, Arial, sans-serif; fill: #e6edf3; }
    .subtitle { font: 500 18px Helvetica, Arial, sans-serif; fill: #9fb3c8; }
    .label { font: 600 18px Helvetica, Arial, sans-serif; fill: #dce7f3; }
    .small { font: 500 15px Helvetica, Arial, sans-serif; fill: #9fb3c8; }
    .axis { stroke: #39516a; stroke-width: 2; }
    .grid { stroke: #223445; stroke-width: 1; opacity: 0.8; }
    .panel { fill: #122131; stroke: #5e7fa3; stroke-width: 2; rx: 18; }
  </style>
</defs>
<rect width="1320" height="660" fill="url(#bg)"/>
<text x="60.0" y="58.0" class="title" text-anchor="start">Cobweb triptych: stable point, two-cycle, chaos</text>
<text x="60.0" y="88.0" class="subtitle" text-anchor="start">Three values of r are enough to show how the same recurrence changes character.</text>
<rect x="80" y="170" width="360" height="390" class="panel"/>
<text x="80.0" y="148.0" class="label" text-anchor="start">r = 2.9</text>
<text x="190.0" y="148.0" class="small" text-anchor="start">stable fixed point</text>
<line x1="80.0" y1="170.0" x2="80.0" y2="560.0" class="grid"/>
<line x1="80.0" y1="560.0" x2="440.0" y2="560.0" class="grid"/>
<line x1="170.0" y1="170.0" x2="170.0" y2="560.0" class="grid"/>
<line x1="80.0" y1="462.5" x2="440.0" y2="462.5" class="grid"/>
<line x1="260.0" y1="170.0" x2="260.0" y2="560.0" class="grid"/>
<line x1="80.0" y1="365.0" x2="440.0" y2="365.0" class="grid"/>
<line x1="350.0" y1="170.0" x2="350.0" y2="560.0" class="grid"/>
<line x1="80.0" y1="267.5" x2="440.0" y2="267.5" class="grid"/>
<line x1="440.0" y1="170.0" x2="440.0" y2="560.0" class="grid"/>
<line x1="80.0" y1="170.0" x2="440.0" y2="170.0" class="grid"/>
<line x1="80.0" y1="560.0" x2="440.0" y2="560.0" class="axis"/>
<line x1="80.0" y1="170.0" x2="80.0" y2="560.0" class="axis"/>
<polyline points="80.00,560.00 80.60,558.12 81.20,556.24 81.80,554.37 82.40,552.51 83.00,550.65 83.60,548.80 84.20,546.96 84.80,545.12 85.40,543.29 86.00,541.46 86.60,539.65 87.20,537.83 87.80,536.03 88.40,534.23 89.00,532.43 89.60,530.64 90.20,528.86 90.80,527.09 91.40,525.32 92.00,523.56 92.60,521.80 93.20,520.05 93.80,518.31 94.40,516.57 95.00,514.84 95.60,513.11 96.20,511.40 96.80,509.68 97.40,507.98 98.00,506.28 98.60,504.58 99.20,502.90 99.80,501.22 100.40,499.54 101.00,497.87 101.60,496.21 102.20,494.56 102.80,492.91 103.40,491.26 104.00,489.63 104.60,488.00 105.20,486.37 105.80,484.75 106.40,483.14 107.00,481.54 107.60,479.94 108.20,478.34 108.80,476.76 109.40,475.18 110.00,473.60 110.60,472.04 111.20,470.48 111.80,468.92 112.40,467.37 113.00,465.83 113.60,464.29 114.20,462.76 114.80,461.24 115.40,459.72 116.00,458.21 116.60,456.71 117.20,455.21 117.80,453.71 118.40,452.23 119.00,450.75 119.60,449.28 120.20,447.81 120.80,446.35 121.40,444.89 122.00,443.44 122.60,442.00 123.20,440.57 123.80,439.14 124.40,437.71 125.00,436.30 125.60,434.89 126.20,433.48 126.80,432.08 127.40,430.69 128.00,429.31 128.60,427.93 129.20,426.55 129.80,425.19 130.40,423.83 131.00,422.47 131.60,421.13 132.20,419.78 132.80,418.45 133.40,417.12 134.00,415.80 134.60,414.48 135.20,413.17 135.80,411.87 136.40,410.57 137.00,409.28 137.60,407.99 138.20,406.71 138.80,405.44 139.40,404.18 140.00,402.92 140.60,401.66 141.20,400.42 141.80,399.17 142.40,397.94 143.00,396.71 143.60,395.49 144.20,394.27 144.80,393.06 145.40,391.86 146.00,390.66 146.60,389.47 147.20,388.29 147.80,387.11 148.40,385.94 149.00,384.77 149.60,383.61 150.20,382.46 150.80,381.31 151.40,380.17 152.00,379.04 152.60,377.91 153.20,376.79 153.80,375.68 154.40,374.57 155.00,373.46 155.60,372.37 156.20,371.28 156.80,370.19 157.40,369.12 158.00,368.04 158.60,366.98 159.20,365.92 159.80,364.87 160.40,363.82 161.00,362.78 161.60,361.75 162.20,360.72 162.80,359.70 163.40,358.69 164.00,357.68 164.60,356.67 165.20,355.68 165.80,354.69 166.40,353.71 167.00,352.73 167.60,351.76 168.20,350.79 168.80,349.84 169.40,348.88 170.00,347.94 170.60,347.00 171.20,346.07 171.80,345.14 172.40,344.22 173.00,343.30 173.60,342.40 174.20,341.49 174.80,340.60 175.40,339.71 176.00,338.83 176.60,337.95 177.20,337.08 177.80,336.22 178.40,335.36 179.00,334.51 179.60,333.66 180.20,332.82 180.80,331.99 181.40,331.16 182.00,330.34 182.60,329.53 183.20,328.72 183.80,327.92 184.40,327.13 185.00,326.34 185.60,325.56 186.20,324.78 186.80,324.01 187.40,323.25 188.00,322.49 188.60,321.74 189.20,320.99 189.80,320.26 190.40,319.52 191.00,318.80 191.60,318.08 192.20,317.37 192.80,316.66 193.40,315.96 194.00,315.26 194.60,314.58 195.20,313.89 195.80,313.22 196.40,312.55 197.00,311.89 197.60,311.23 198.20,310.58 198.80,309.94 199.40,309.30 200.00,308.67 200.60,308.04 201.20,307.42 201.80,306.81 202.40,306.20 203.00,305.60 203.60,305.01 204.20,304.42 204.80,303.84 205.40,303.27 206.00,302.70 206.60,302.14 207.20,301.58 207.80,301.03 208.40,300.49 209.00,299.95 209.60,299.42 210.20,298.89 210.80,298.37 211.40,297.86 212.00,297.36 212.60,296.86 213.20,296.36 213.80,295.88 214.40,295.40 215.00,294.92 215.60,294.45 216.20,293.99 216.80,293.54 217.40,293.09 218.00,292.64 218.60,292.21 219.20,291.78 219.80,291.35 220.40,290.94 221.00,290.52 221.60,290.12 222.20,289.72 222.80,289.33 223.40,288.94 224.00,288.56 224.60,288.19 225.20,287.82 225.80,287.46 226.40,287.10 227.00,286.75 227.60,286.41 228.20,286.07 228.80,285.75 229.40,285.42 230.00,285.10 230.60,284.79 231.20,284.49 231.80,284.19 232.40,283.90 233.00,283.61 233.60,283.33 234.20,283.06 234.80,282.79 235.40,282.53 236.00,282.28 236.60,282.03 237.20,281.79 237.80,281.55 238.40,281.32 239.00,281.10 239.60,280.88 240.20,280.67 240.80,280.47 241.40,280.27 242.00,280.08 242.60,279.89 243.20,279.71 243.80,279.54 244.40,279.37 245.00,279.21 245.60,279.06 246.20,278.91 246.80,278.77 247.40,278.64 248.00,278.51 248.60,278.38 249.20,278.27 249.80,278.16 250.40,278.05 251.00,277.96 251.60,277.87 252.20,277.78 252.80,277.70 253.40,277.63 254.00,277.56 254.60,277.50 255.20,277.45 255.80,277.40 256.40,277.36 257.00,277.33 257.60,277.30 258.20,277.28 258.80,277.26 259.40,277.25 260.00,277.25 260.60,277.25 261.20,277.26 261.80,277.28 262.40,277.30 263.00,277.33 263.60,277.36 264.20,277.40 264.80,277.45 265.40,277.50 266.00,277.56 266.60,277.63 267.20,277.70 267.80,277.78 268.40,277.87 269.00,277.96 269.60,278.05 270.20,278.16 270.80,278.27 271.40,278.38 272.00,278.51 272.60,278.64 273.20,278.77 273.80,278.91 274.40,279.06 275.00,279.21 275.60,279.37 276.20,279.54 276.80,279.71 277.40,279.89 278.00,280.08 278.60,280.27 279.20,280.47 279.80,280.67 280.40,280.88 281.00,281.10 281.60,281.32 282.20,281.55 282.80,281.79 283.40,282.03 284.00,282.28 284.60,282.53 285.20,282.79 285.80,283.06 286.40,283.33 287.00,283.61 287.60,283.90 288.20,284.19 288.80,284.49 289.40,284.79 290.00,285.10 290.60,285.42 291.20,285.75 291.80,286.07 292.40,286.41 293.00,286.75 293.60,287.10 294.20,287.46 294.80,287.82 295.40,288.19 296.00,288.56 296.60,288.94 297.20,289.33 297.80,289.72 298.40,290.12 299.00,290.52 299.60,290.94 300.20,291.35 300.80,291.78 301.40,292.21 302.00,292.64 302.60,293.09 303.20,293.54 303.80,293.99 304.40,294.45 305.00,294.92 305.60,295.40 306.20,295.88 306.80,296.36 307.40,296.86 308.00,297.36 308.60,297.86 309.20,298.37 309.80,298.89 310.40,299.42 311.00,299.95 311.60,300.49 312.20,301.03 312.80,301.58 313.40,302.14 314.00,302.70 314.60,303.27 315.20,303.84 315.80,304.42 316.40,305.01 317.00,305.60 317.60,306.20 318.20,306.81 318.80,307.42 319.40,308.04 320.00,308.67 320.60,309.30 321.20,309.94 321.80,310.58 322.40,311.23 323.00,311.89 323.60,312.55 324.20,313.22 324.80,313.89 325.40,314.58 326.00,315.26 326.60,315.96 327.20,316.66 327.80,317.37 328.40,318.08 329.00,318.80 329.60,319.52 330.20,320.26 330.80,320.99 331.40,321.74 332.00,322.49 332.60,323.25 333.20,324.01 333.80,324.78 334.40,325.56 335.00,326.34 335.60,327.13 336.20,327.92 336.80,328.72 337.40,329.53 338.00,330.34 338.60,331.16 339.20,331.99 339.80,332.82 340.40,333.66 341.00,334.51 341.60,335.36 342.20,336.22 342.80,337.08 343.40,337.95 344.00,338.83 344.60,339.71 345.20,340.60 345.80,341.49 346.40,342.40 347.00,343.30 347.60,344.22 348.20,345.14 348.80,346.07 349.40,347.00 350.00,347.94 350.60,348.88 351.20,349.84 351.80,350.79 352.40,351.76 353.00,352.73 353.60,353.71 354.20,354.69 354.80,355.68 355.40,356.67 356.00,357.68 356.60,358.69 357.20,359.70 357.80,360.72 358.40,361.75 359.00,362.78 359.60,363.82 360.20,364.87 360.80,365.92 361.40,366.98 362.00,368.04 362.60,369.12 363.20,370.19 363.80,371.28 364.40,372.37 365.00,373.46 365.60,374.57 366.20,375.68 366.80,376.79 367.40,377.91 368.00,379.04 368.60,380.17 369.20,381.31 369.80,382.46 370.40,383.61 371.00,384.77 371.60,385.94 372.20,387.11 372.80,388.29 373.40,389.47 374.00,390.66 374.60,391.86 375.20,393.06 375.80,394.27 376.40,395.49 377.00,396.71 377.60,397.94 378.20,399.17 378.80,400.42 379.40,401.66 380.00,402.92 380.60,404.18 381.20,405.44 381.80,406.71 382.40,407.99 383.00,409.28 383.60,410.57 384.20,411.87 384.80,413.17 385.40,414.48 386.00,415.80 386.60,417.12 387.20,418.45 387.80,419.78 388.40,421.13 389.00,422.47 389.60,423.83 390.20,425.19 390.80,426.55 391.40,427.93 392.00,429.31 392.60,430.69 393.20,432.08 393.80,433.48 394.40,434.89 395.00,436.30 395.60,437.71 396.20,439.14 396.80,440.57 397.40,442.00 398.00,443.44 398.60,444.89 399.20,446.35 399.80,447.81 400.40,449.28 401.00,450.75 401.60,452.23 402.20,453.71 402.80,455.21 403.40,456.71 404.00,458.21 404.60,459.72 405.20,461.24 405.80,462.76 406.40,464.29 407.00,465.83 407.60,467.37 408.20,468.92 408.80,470.48 409.40,472.04 410.00,473.60 410.60,475.18 411.20,476.76 411.80,478.34 412.40,479.94 413.00,481.54 413.60,483.14 414.20,484.75 414.80,486.37 415.40,488.00 416.00,489.63 416.60,491.26 417.20,492.91 417.80,494.56 418.40,496.21 419.00,497.87 419.60,499.54 420.20,501.22 420.80,502.90 421.40,504.58 422.00,506.28 422.60,507.98 423.20,509.68 423.80,511.40 424.40,513.11 425.00,514.84 425.60,516.57 426.20,518.31 426.80,520.05 427.40,521.80 428.00,523.56 428.60,525.32 429.20,527.09 429.80,528.86 430.40,530.64 431.00,532.43 431.60,534.23 432.20,536.03 432.80,537.83 433.40,539.65 434.00,541.46 434.60,543.29 435.20,545.12 435.80,546.96 436.40,548.80 437.00,550.65 437.60,552.51 438.20,554.37 438.80,556.24 439.40,558.12 440.00,560.00" fill="none" stroke="#7dd3fc" stroke-width="3"/>
<polyline points="80.00,560.00 80.60,559.35 81.20,558.70 81.80,558.05 82.40,557.40 83.00,556.75 83.60,556.10 84.20,555.45 84.80,554.80 85.40,554.15 86.00,553.50 86.60,552.85 87.20,552.20 87.80,551.55 88.40,550.90 89.00,550.25 89.60,549.60 90.20,548.95 90.80,548.30 91.40,547.65 92.00,547.00 92.60,546.35 93.20,545.70 93.80,545.05 94.40,544.40 95.00,543.75 95.60,543.10 96.20,542.45 96.80,541.80 97.40,541.15 98.00,540.50 98.60,539.85 99.20,539.20 99.80,538.55 100.40,537.90 101.00,537.25 101.60,536.60 102.20,535.95 102.80,535.30 103.40,534.65 104.00,534.00 104.60,533.35 105.20,532.70 105.80,532.05 106.40,531.40 107.00,530.75 107.60,530.10 108.20,529.45 108.80,528.80 109.40,528.15 110.00,527.50 110.60,526.85 111.20,526.20 111.80,525.55 112.40,524.90 113.00,524.25 113.60,523.60 114.20,522.95 114.80,522.30 115.40,521.65 116.00,521.00 116.60,520.35 117.20,519.70 117.80,519.05 118.40,518.40 119.00,517.75 119.60,517.10 120.20,516.45 120.80,515.80 121.40,515.15 122.00,514.50 122.60,513.85 123.20,513.20 123.80,512.55 124.40,511.90 125.00,511.25 125.60,510.60 126.20,509.95 126.80,509.30 127.40,508.65 128.00,508.00 128.60,507.35 129.20,506.70 129.80,506.05 130.40,505.40 131.00,504.75 131.60,504.10 132.20,503.45 132.80,502.80 133.40,502.15 134.00,501.50 134.60,500.85 135.20,500.20 135.80,499.55 136.40,498.90 137.00,498.25 137.60,497.60 138.20,496.95 138.80,496.30 139.40,495.65 140.00,495.00 140.60,494.35 141.20,493.70 141.80,493.05 142.40,492.40 143.00,491.75 143.60,491.10 144.20,490.45 144.80,489.80 145.40,489.15 146.00,488.50 146.60,487.85 147.20,487.20 147.80,486.55 148.40,485.90 149.00,485.25 149.60,484.60 150.20,483.95 150.80,483.30 151.40,482.65 152.00,482.00 152.60,481.35 153.20,480.70 153.80,480.05 154.40,479.40 155.00,478.75 155.60,478.10 156.20,477.45 156.80,476.80 157.40,476.15 158.00,475.50 158.60,474.85 159.20,474.20 159.80,473.55 160.40,472.90 161.00,472.25 161.60,471.60 162.20,470.95 162.80,470.30 163.40,469.65 164.00,469.00 164.60,468.35 165.20,467.70 165.80,467.05 166.40,466.40 167.00,465.75 167.60,465.10 168.20,464.45 168.80,463.80 169.40,463.15 170.00,462.50 170.60,461.85 171.20,461.20 171.80,460.55 172.40,459.90 173.00,459.25 173.60,458.60 174.20,457.95 174.80,457.30 175.40,456.65 176.00,456.00 176.60,455.35 177.20,454.70 177.80,454.05 178.40,453.40 179.00,452.75 179.60,452.10 180.20,451.45 180.80,450.80 181.40,450.15 182.00,449.50 182.60,448.85 183.20,448.20 183.80,447.55 184.40,446.90 185.00,446.25 185.60,445.60 186.20,444.95 186.80,444.30 187.40,443.65 188.00,443.00 188.60,442.35 189.20,441.70 189.80,441.05 190.40,440.40 191.00,439.75 191.60,439.10 192.20,438.45 192.80,437.80 193.40,437.15 194.00,436.50 194.60,435.85 195.20,435.20 195.80,434.55 196.40,433.90 197.00,433.25 197.60,432.60 198.20,431.95 198.80,431.30 199.40,430.65 200.00,430.00 200.60,429.35 201.20,428.70 201.80,428.05 202.40,427.40 203.00,426.75 203.60,426.10 204.20,425.45 204.80,424.80 205.40,424.15 206.00,423.50 206.60,422.85 207.20,422.20 207.80,421.55 208.40,420.90 209.00,420.25 209.60,419.60 210.20,418.95 210.80,418.30 211.40,417.65 212.00,417.00 212.60,416.35 213.20,415.70 213.80,415.05 214.40,414.40 215.00,413.75 215.60,413.10 216.20,412.45 216.80,411.80 217.40,411.15 218.00,410.50 218.60,409.85 219.20,409.20 219.80,408.55 220.40,407.90 221.00,407.25 221.60,406.60 222.20,405.95 222.80,405.30 223.40,404.65 224.00,404.00 224.60,403.35 225.20,402.70 225.80,402.05 226.40,401.40 227.00,400.75 227.60,400.10 228.20,399.45 228.80,398.80 229.40,398.15 230.00,397.50 230.60,396.85 231.20,396.20 231.80,395.55 232.40,394.90 233.00,394.25 233.60,393.60 234.20,392.95 234.80,392.30 235.40,391.65 236.00,391.00 236.60,390.35 237.20,389.70 237.80,389.05 238.40,388.40 239.00,387.75 239.60,387.10 240.20,386.45 240.80,385.80 241.40,385.15 242.00,384.50 242.60,383.85 243.20,383.20 243.80,382.55 244.40,381.90 245.00,381.25 245.60,380.60 246.20,379.95 246.80,379.30 247.40,378.65 248.00,378.00 248.60,377.35 249.20,376.70 249.80,376.05 250.40,375.40 251.00,374.75 251.60,374.10 252.20,373.45 252.80,372.80 253.40,372.15 254.00,371.50 254.60,370.85 255.20,370.20 255.80,369.55 256.40,368.90 257.00,368.25 257.60,367.60 258.20,366.95 258.80,366.30 259.40,365.65 260.00,365.00 260.60,364.35 261.20,363.70 261.80,363.05 262.40,362.40 263.00,361.75 263.60,361.10 264.20,360.45 264.80,359.80 265.40,359.15 266.00,358.50 266.60,357.85 267.20,357.20 267.80,356.55 268.40,355.90 269.00,355.25 269.60,354.60 270.20,353.95 270.80,353.30 271.40,352.65 272.00,352.00 272.60,351.35 273.20,350.70 273.80,350.05 274.40,349.40 275.00,348.75 275.60,348.10 276.20,347.45 276.80,346.80 277.40,346.15 278.00,345.50 278.60,344.85 279.20,344.20 279.80,343.55 280.40,342.90 281.00,342.25 281.60,341.60 282.20,340.95 282.80,340.30 283.40,339.65 284.00,339.00 284.60,338.35 285.20,337.70 285.80,337.05 286.40,336.40 287.00,335.75 287.60,335.10 288.20,334.45 288.80,333.80 289.40,333.15 290.00,332.50 290.60,331.85 291.20,331.20 291.80,330.55 292.40,329.90 293.00,329.25 293.60,328.60 294.20,327.95 294.80,327.30 295.40,326.65 296.00,326.00 296.60,325.35 297.20,324.70 297.80,324.05 298.40,323.40 299.00,322.75 299.60,322.10 300.20,321.45 300.80,320.80 301.40,320.15 302.00,319.50 302.60,318.85 303.20,318.20 303.80,317.55 304.40,316.90 305.00,316.25 305.60,315.60 306.20,314.95 306.80,314.30 307.40,313.65 308.00,313.00 308.60,312.35 309.20,311.70 309.80,311.05 310.40,310.40 311.00,309.75 311.60,309.10 312.20,308.45 312.80,307.80 313.40,307.15 314.00,306.50 314.60,305.85 315.20,305.20 315.80,304.55 316.40,303.90 317.00,303.25 317.60,302.60 318.20,301.95 318.80,301.30 319.40,300.65 320.00,300.00 320.60,299.35 321.20,298.70 321.80,298.05 322.40,297.40 323.00,296.75 323.60,296.10 324.20,295.45 324.80,294.80 325.40,294.15 326.00,293.50 326.60,292.85 327.20,292.20 327.80,291.55 328.40,290.90 329.00,290.25 329.60,289.60 330.20,288.95 330.80,288.30 331.40,287.65 332.00,287.00 332.60,286.35 333.20,285.70 333.80,285.05 334.40,284.40 335.00,283.75 335.60,283.10 336.20,282.45 336.80,281.80 337.40,281.15 338.00,280.50 338.60,279.85 339.20,279.20 339.80,278.55 340.40,277.90 341.00,277.25 341.60,276.60 342.20,275.95 342.80,275.30 343.40,274.65 344.00,274.00 344.60,273.35 345.20,272.70 345.80,272.05 346.40,271.40 347.00,270.75 347.60,270.10 348.20,269.45 348.80,268.80 349.40,268.15 350.00,267.50 350.60,266.85 351.20,266.20 351.80,265.55 352.40,264.90 353.00,264.25 353.60,263.60 354.20,262.95 354.80,262.30 355.40,261.65 356.00,261.00 356.60,260.35 357.20,259.70 357.80,259.05 358.40,258.40 359.00,257.75 359.60,257.10 360.20,256.45 360.80,255.80 361.40,255.15 362.00,254.50 362.60,253.85 363.20,253.20 363.80,252.55 364.40,251.90 365.00,251.25 365.60,250.60 366.20,249.95 366.80,249.30 367.40,248.65 368.00,248.00 368.60,247.35 369.20,246.70 369.80,246.05 370.40,245.40 371.00,244.75 371.60,244.10 372.20,243.45 372.80,242.80 373.40,242.15 374.00,241.50 374.60,240.85 375.20,240.20 375.80,239.55 376.40,238.90 377.00,238.25 377.60,237.60 378.20,236.95 378.80,236.30 379.40,235.65 380.00,235.00 380.60,234.35 381.20,233.70 381.80,233.05 382.40,232.40 383.00,231.75 383.60,231.10 384.20,230.45 384.80,229.80 385.40,229.15 386.00,228.50 386.60,227.85 387.20,227.20 387.80,226.55 388.40,225.90 389.00,225.25 389.60,224.60 390.20,223.95 390.80,223.30 391.40,222.65 392.00,222.00 392.60,221.35 393.20,220.70 393.80,220.05 394.40,219.40 395.00,218.75 395.60,218.10 396.20,217.45 396.80,216.80 397.40,216.15 398.00,215.50 398.60,214.85 399.20,214.20 399.80,213.55 400.40,212.90 401.00,212.25 401.60,211.60 402.20,210.95 402.80,210.30 403.40,209.65 404.00,209.00 404.60,208.35 405.20,207.70 405.80,207.05 406.40,206.40 407.00,205.75 407.60,205.10 408.20,204.45 408.80,203.80 409.40,203.15 410.00,202.50 410.60,201.85 411.20,201.20 411.80,200.55 412.40,199.90 413.00,199.25 413.60,198.60 414.20,197.95 414.80,197.30 415.40,196.65 416.00,196.00 416.60,195.35 417.20,194.70 417.80,194.05 418.40,193.40 419.00,192.75 419.60,192.10 420.20,191.45 420.80,190.80 421.40,190.15 422.00,189.50 422.60,188.85 423.20,188.20 423.80,187.55 424.40,186.90 425.00,186.25 425.60,185.60 426.20,184.95 426.80,184.30 427.40,183.65 428.00,183.00 428.60,182.35 429.20,181.70 429.80,181.05 430.40,180.40 431.00,179.75 431.60,179.10 432.20,178.45 432.80,177.80 433.40,177.15 434.00,176.50 434.60,175.85 435.20,175.20 435.80,174.55 436.40,173.90 437.00,173.25 437.60,172.60 438.20,171.95 438.80,171.30 439.40,170.65 440.00,170.00" fill="none" stroke="#94a3b8" stroke-width="2" stroke-dasharray="8 8"/>
<polyline points="155.60,478.10 155.60,372.37 253.20,372.37 253.20,372.37 253.20,277.65 340.63,277.65 340.63,277.65 340.63,333.98 288.63,333.98 288.63,333.98 288.63,284.40 334.40,284.40 334.40,284.40 334.40,325.55 296.41,325.55 296.41,325.55 296.41,288.82 330.32,288.82 330.32,288.82 330.32,320.40 301.17,320.40 301.17,320.40 301.17,292.04 327.35,292.04 327.35,292.04 327.35,316.83 304.46,316.83 304.46,316.83 304.46,294.50 325.07,294.50 325.07,294.50 325.07,314.21 306.89,314.21 306.89,314.21 306.89,296.44 323.29,296.44 323.29,296.44 323.29,312.21 308.73,312.21 308.73,312.21 308.73,297.97 321.87,297.97 321.87,297.97 321.87,310.66 310.16,310.66 310.16,310.66 310.16,299.21 320.73,299.21 320.73,299.21 320.73,309.43 311.29,309.43 311.29,309.43 311.29,300.21 319.81,300.21 319.81,300.21 319.81,308.47 312.19,308.47 312.19,308.47 312.19,301.02 319.06,301.02 319.06,301.02 319.06,307.69 312.90,307.69 312.90,307.69 312.90,301.67 318.46,301.67 318.46,301.67 318.46,307.07 313.47,307.07 313.47,307.07 313.47,302.20 317.97,302.20 317.97,302.20 317.97,306.57 313.93,306.57 313.93,306.57 313.93,302.63 317.57,302.63 317.57,302.63 317.57,306.17 314.30,306.17 314.30,306.17 314.30,302.98 317.25,302.98 317.25,302.98 317.25,305.85 314.60,305.85 314.60,305.85 314.60,303.27 316.98,303.27 316.98,303.27 316.98,305.59 314.84,305.59 314.84,305.59 314.84,303.50 316.77,303.50 316.77,303.50 316.77,305.38 315.04,305.38 315.04,305.38 315.04,303.68 316.60,303.68 316.60,303.68 316.60,305.21 315.19,305.21 315.19,305.21 315.19,303.84 316.46,303.84 316.46,303.84 316.46,305.07 315.32,305.07 315.32,305.07 315.32,303.96 316.35,303.96 316.35,303.96 316.35,304.96 315.42,304.96 315.42,304.96 315.42,304.06 316.25,304.06 316.25,304.06 316.25,304.87 315.51,304.87 315.51,304.87 315.51,304.14 316.18,304.14" fill="none" stroke="#f97316" stroke-width="2.2" stroke-linejoin="round"/>
<rect x="470" y="170" width="360" height="390" class="panel"/>
<text x="470.0" y="148.0" class="label" text-anchor="start">r = 3.2</text>
<text x="580.0" y="148.0" class="small" text-anchor="start">period-two orbit</text>
<line x1="470.0" y1="170.0" x2="470.0" y2="560.0" class="grid"/>
<line x1="470.0" y1="560.0" x2="830.0" y2="560.0" class="grid"/>
<line x1="560.0" y1="170.0" x2="560.0" y2="560.0" class="grid"/>
<line x1="470.0" y1="462.5" x2="830.0" y2="462.5" class="grid"/>
<line x1="650.0" y1="170.0" x2="650.0" y2="560.0" class="grid"/>
<line x1="470.0" y1="365.0" x2="830.0" y2="365.0" class="grid"/>
<line x1="740.0" y1="170.0" x2="740.0" y2="560.0" class="grid"/>
<line x1="470.0" y1="267.5" x2="830.0" y2="267.5" class="grid"/>
<line x1="830.0" y1="170.0" x2="830.0" y2="560.0" class="grid"/>
<line x1="470.0" y1="170.0" x2="830.0" y2="170.0" class="grid"/>
<line x1="470.0" y1="560.0" x2="830.0" y2="560.0" class="axis"/>
<line x1="470.0" y1="170.0" x2="470.0" y2="560.0" class="axis"/>
<polyline points="470.00,560.00 470.60,557.92 471.20,555.85 471.80,553.79 472.40,551.74 473.00,549.69 473.60,547.64 474.20,545.61 474.80,543.58 475.40,541.56 476.00,539.55 476.60,537.54 477.20,535.54 477.80,533.55 478.40,531.56 479.00,529.58 479.60,527.61 480.20,525.64 480.80,523.68 481.40,521.73 482.00,519.79 482.60,517.85 483.20,515.92 483.80,513.99 484.40,512.08 485.00,510.17 485.60,508.26 486.20,506.37 486.80,504.48 487.40,502.60 488.00,500.72 488.60,498.85 489.20,496.99 489.80,495.14 490.40,493.29 491.00,491.45 491.60,489.61 492.20,487.79 492.80,485.97 493.40,484.15 494.00,482.35 494.60,480.55 495.20,478.76 495.80,476.97 496.40,475.19 497.00,473.42 497.60,471.66 498.20,469.90 498.80,468.15 499.40,466.40 500.00,464.67 500.60,462.94 501.20,461.21 501.80,459.50 502.40,457.79 503.00,456.09 503.60,454.39 504.20,452.70 504.80,451.02 505.40,449.35 506.00,447.68 506.60,446.02 507.20,444.37 507.80,442.72 508.40,441.08 509.00,439.45 509.60,437.82 510.20,436.20 510.80,434.59 511.40,432.98 512.00,431.39 512.60,429.80 513.20,428.21 513.80,426.63 514.40,425.06 515.00,423.50 515.60,421.94 516.20,420.39 516.80,418.85 517.40,417.32 518.00,415.79 518.60,414.26 519.20,412.75 519.80,411.24 520.40,409.74 521.00,408.25 521.60,406.76 522.20,405.28 522.80,403.81 523.40,402.34 524.00,400.88 524.60,399.43 525.20,397.98 525.80,396.54 526.40,395.11 527.00,393.69 527.60,392.27 528.20,390.86 528.80,389.45 529.40,388.06 530.00,386.67 530.60,385.28 531.20,383.91 531.80,382.54 532.40,381.18 533.00,379.82 533.60,378.47 534.20,377.13 534.80,375.80 535.40,374.47 536.00,373.15 536.60,371.83 537.20,370.53 537.80,369.23 538.40,367.93 539.00,366.65 539.60,365.37 540.20,364.10 540.80,362.83 541.40,361.57 542.00,360.32 542.60,359.08 543.20,357.84 543.80,356.61 544.40,355.38 545.00,354.17 545.60,352.96 546.20,351.75 546.80,350.56 547.40,349.37 548.00,348.19 548.60,347.01 549.20,345.84 549.80,344.68 550.40,343.53 551.00,342.38 551.60,341.24 552.20,340.11 552.80,338.98 553.40,337.86 554.00,336.75 554.60,335.64 555.20,334.54 555.80,333.45 556.40,332.36 557.00,331.29 557.60,330.22 558.20,329.15 558.80,328.09 559.40,327.04 560.00,326.00 560.60,324.96 561.20,323.93 561.80,322.91 562.40,321.90 563.00,320.89 563.60,319.88 564.20,318.89 564.80,317.90 565.40,316.92 566.00,315.95 566.60,314.98 567.20,314.02 567.80,313.07 568.40,312.12 569.00,311.18 569.60,310.25 570.20,309.32 570.80,308.40 571.40,307.49 572.00,306.59 572.60,305.69 573.20,304.80 573.80,303.91 574.40,303.04 575.00,302.17 575.60,301.30 576.20,300.45 576.80,299.60 577.40,298.76 578.00,297.92 578.60,297.09 579.20,296.27 579.80,295.46 580.40,294.65 581.00,293.85 581.60,293.05 582.20,292.27 582.80,291.49 583.40,290.71 584.00,289.95 584.60,289.19 585.20,288.44 585.80,287.69 586.40,286.95 587.00,286.22 587.60,285.50 588.20,284.78 588.80,284.07 589.40,283.36 590.00,282.67 590.60,281.98 591.20,281.29 591.80,280.62 592.40,279.95 593.00,279.29 593.60,278.63 594.20,277.98 594.80,277.34 595.40,276.71 596.00,276.08 596.60,275.46 597.20,274.85 597.80,274.24 598.40,273.64 599.00,273.05 599.60,272.46 600.20,271.88 600.80,271.31 601.40,270.74 602.00,270.19 602.60,269.64 603.20,269.09 603.80,268.55 604.40,268.02 605.00,267.50 605.60,266.98 606.20,266.47 606.80,265.97 607.40,265.48 608.00,264.99 608.60,264.50 609.20,264.03 609.80,263.56 610.40,263.10 611.00,262.65 611.60,262.20 612.20,261.76 612.80,261.33 613.40,260.90 614.00,260.48 614.60,260.07 615.20,259.66 615.80,259.26 616.40,258.87 617.00,258.49 617.60,258.11 618.20,257.74 618.80,257.37 619.40,257.02 620.00,256.67 620.60,256.32 621.20,255.99 621.80,255.66 622.40,255.34 623.00,255.02 623.60,254.71 624.20,254.41 624.80,254.12 625.40,253.83 626.00,253.55 626.60,253.27 627.20,253.01 627.80,252.75 628.40,252.49 629.00,252.25 629.60,252.01 630.20,251.78 630.80,251.55 631.40,251.33 632.00,251.12 632.60,250.92 633.20,250.72 633.80,250.53 634.40,250.34 635.00,250.17 635.60,250.00 636.20,249.83 636.80,249.68 637.40,249.53 638.00,249.39 638.60,249.25 639.20,249.12 639.80,249.00 640.40,248.89 641.00,248.78 641.60,248.68 642.20,248.59 642.80,248.50 643.40,248.42 644.00,248.35 644.60,248.28 645.20,248.22 645.80,248.17 646.40,248.12 647.00,248.09 647.60,248.06 648.20,248.03 648.80,248.01 649.40,248.00 650.00,248.00 650.60,248.00 651.20,248.01 651.80,248.03 652.40,248.06 653.00,248.09 653.60,248.12 654.20,248.17 654.80,248.22 655.40,248.28 656.00,248.35 656.60,248.42 657.20,248.50 657.80,248.59 658.40,248.68 659.00,248.78 659.60,248.89 660.20,249.00 660.80,249.12 661.40,249.25 662.00,249.39 662.60,249.53 663.20,249.68 663.80,249.83 664.40,250.00 665.00,250.17 665.60,250.34 666.20,250.53 666.80,250.72 667.40,250.92 668.00,251.12 668.60,251.33 669.20,251.55 669.80,251.78 670.40,252.01 671.00,252.25 671.60,252.49 672.20,252.75 672.80,253.01 673.40,253.27 674.00,253.55 674.60,253.83 675.20,254.12 675.80,254.41 676.40,254.71 677.00,255.02 677.60,255.34 678.20,255.66 678.80,255.99 679.40,256.32 680.00,256.67 680.60,257.02 681.20,257.37 681.80,257.74 682.40,258.11 683.00,258.49 683.60,258.87 684.20,259.26 684.80,259.66 685.40,260.07 686.00,260.48 686.60,260.90 687.20,261.33 687.80,261.76 688.40,262.20 689.00,262.65 689.60,263.10 690.20,263.56 690.80,264.03 691.40,264.50 692.00,264.99 692.60,265.48 693.20,265.97 693.80,266.47 694.40,266.98 695.00,267.50 695.60,268.02 696.20,268.55 696.80,269.09 697.40,269.64 698.00,270.19 698.60,270.74 699.20,271.31 699.80,271.88 700.40,272.46 701.00,273.05 701.60,273.64 702.20,274.24 702.80,274.85 703.40,275.46 704.00,276.08 704.60,276.71 705.20,277.34 705.80,277.98 706.40,278.63 707.00,279.29 707.60,279.95 708.20,280.62 708.80,281.29 709.40,281.98 710.00,282.67 710.60,283.36 711.20,284.07 711.80,284.78 712.40,285.50 713.00,286.22 713.60,286.95 714.20,287.69 714.80,288.44 715.40,289.19 716.00,289.95 716.60,290.71 717.20,291.49 717.80,292.27 718.40,293.05 719.00,293.85 719.60,294.65 720.20,295.46 720.80,296.27 721.40,297.09 722.00,297.92 722.60,298.76 723.20,299.60 723.80,300.45 724.40,301.30 725.00,302.17 725.60,303.04 726.20,303.91 726.80,304.80 727.40,305.69 728.00,306.59 728.60,307.49 729.20,308.40 729.80,309.32 730.40,310.25 731.00,311.18 731.60,312.12 732.20,313.07 732.80,314.02 733.40,314.98 734.00,315.95 734.60,316.92 735.20,317.90 735.80,318.89 736.40,319.88 737.00,320.89 737.60,321.90 738.20,322.91 738.80,323.93 739.40,324.96 740.00,326.00 740.60,327.04 741.20,328.09 741.80,329.15 742.40,330.22 743.00,331.29 743.60,332.36 744.20,333.45 744.80,334.54 745.40,335.64 746.00,336.75 746.60,337.86 747.20,338.98 747.80,340.11 748.40,341.24 749.00,342.38 749.60,343.53 750.20,344.68 750.80,345.84 751.40,347.01 752.00,348.19 752.60,349.37 753.20,350.56 753.80,351.75 754.40,352.96 755.00,354.17 755.60,355.38 756.20,356.61 756.80,357.84 757.40,359.08 758.00,360.32 758.60,361.57 759.20,362.83 759.80,364.10 760.40,365.37 761.00,366.65 761.60,367.93 762.20,369.23 762.80,370.53 763.40,371.83 764.00,373.15 764.60,374.47 765.20,375.80 765.80,377.13 766.40,378.47 767.00,379.82 767.60,381.18 768.20,382.54 768.80,383.91 769.40,385.28 770.00,386.67 770.60,388.06 771.20,389.45 771.80,390.86 772.40,392.27 773.00,393.69 773.60,395.11 774.20,396.54 774.80,397.98 775.40,399.43 776.00,400.88 776.60,402.34 777.20,403.81 777.80,405.28 778.40,406.76 779.00,408.25 779.60,409.74 780.20,411.24 780.80,412.75 781.40,414.26 782.00,415.79 782.60,417.32 783.20,418.85 783.80,420.39 784.40,421.94 785.00,423.50 785.60,425.06 786.20,426.63 786.80,428.21 787.40,429.80 788.00,431.39 788.60,432.98 789.20,434.59 789.80,436.20 790.40,437.82 791.00,439.45 791.60,441.08 792.20,442.72 792.80,444.37 793.40,446.02 794.00,447.68 794.60,449.35 795.20,451.02 795.80,452.70 796.40,454.39 797.00,456.09 797.60,457.79 798.20,459.50 798.80,461.21 799.40,462.94 800.00,464.67 800.60,466.40 801.20,468.15 801.80,469.90 802.40,471.66 803.00,473.42 803.60,475.19 804.20,476.97 804.80,478.76 805.40,480.55 806.00,482.35 806.60,484.15 807.20,485.97 807.80,487.79 808.40,489.61 809.00,491.45 809.60,493.29 810.20,495.14 810.80,496.99 811.40,498.85 812.00,500.72 812.60,502.60 813.20,504.48 813.80,506.37 814.40,508.26 815.00,510.17 815.60,512.08 816.20,513.99 816.80,515.92 817.40,517.85 818.00,519.79 818.60,521.73 819.20,523.68 819.80,525.64 820.40,527.61 821.00,529.58 821.60,531.56 822.20,533.55 822.80,535.54 823.40,537.54 824.00,539.55 824.60,541.56 825.20,543.58 825.80,545.61 826.40,547.64 827.00,549.69 827.60,551.74 828.20,553.79 828.80,555.85 829.40,557.92 830.00,560.00" fill="none" stroke="#7dd3fc" stroke-width="3"/>
<polyline points="470.00,560.00 470.60,559.35 471.20,558.70 471.80,558.05 472.40,557.40 473.00,556.75 473.60,556.10 474.20,555.45 474.80,554.80 475.40,554.15 476.00,553.50 476.60,552.85 477.20,552.20 477.80,551.55 478.40,550.90 479.00,550.25 479.60,549.60 480.20,548.95 480.80,548.30 481.40,547.65 482.00,547.00 482.60,546.35 483.20,545.70 483.80,545.05 484.40,544.40 485.00,543.75 485.60,543.10 486.20,542.45 486.80,541.80 487.40,541.15 488.00,540.50 488.60,539.85 489.20,539.20 489.80,538.55 490.40,537.90 491.00,537.25 491.60,536.60 492.20,535.95 492.80,535.30 493.40,534.65 494.00,534.00 494.60,533.35 495.20,532.70 495.80,532.05 496.40,531.40 497.00,530.75 497.60,530.10 498.20,529.45 498.80,528.80 499.40,528.15 500.00,527.50 500.60,526.85 501.20,526.20 501.80,525.55 502.40,524.90 503.00,524.25 503.60,523.60 504.20,522.95 504.80,522.30 505.40,521.65 506.00,521.00 506.60,520.35 507.20,519.70 507.80,519.05 508.40,518.40 509.00,517.75 509.60,517.10 510.20,516.45 510.80,515.80 511.40,515.15 512.00,514.50 512.60,513.85 513.20,513.20 513.80,512.55 514.40,511.90 515.00,511.25 515.60,510.60 516.20,509.95 516.80,509.30 517.40,508.65 518.00,508.00 518.60,507.35 519.20,506.70 519.80,506.05 520.40,505.40 521.00,504.75 521.60,504.10 522.20,503.45 522.80,502.80 523.40,502.15 524.00,501.50 524.60,500.85 525.20,500.20 525.80,499.55 526.40,498.90 527.00,498.25 527.60,497.60 528.20,496.95 528.80,496.30 529.40,495.65 530.00,495.00 530.60,494.35 531.20,493.70 531.80,493.05 532.40,492.40 533.00,491.75 533.60,491.10 534.20,490.45 534.80,489.80 535.40,489.15 536.00,488.50 536.60,487.85 537.20,487.20 537.80,486.55 538.40,485.90 539.00,485.25 539.60,484.60 540.20,483.95 540.80,483.30 541.40,482.65 542.00,482.00 542.60,481.35 543.20,480.70 543.80,480.05 544.40,479.40 545.00,478.75 545.60,478.10 546.20,477.45 546.80,476.80 547.40,476.15 548.00,475.50 548.60,474.85 549.20,474.20 549.80,473.55 550.40,472.90 551.00,472.25 551.60,471.60 552.20,470.95 552.80,470.30 553.40,469.65 554.00,469.00 554.60,468.35 555.20,467.70 555.80,467.05 556.40,466.40 557.00,465.75 557.60,465.10 558.20,464.45 558.80,463.80 559.40,463.15 560.00,462.50 560.60,461.85 561.20,461.20 561.80,460.55 562.40,459.90 563.00,459.25 563.60,458.60 564.20,457.95 564.80,457.30 565.40,456.65 566.00,456.00 566.60,455.35 567.20,454.70 567.80,454.05 568.40,453.40 569.00,452.75 569.60,452.10 570.20,451.45 570.80,450.80 571.40,450.15 572.00,449.50 572.60,448.85 573.20,448.20 573.80,447.55 574.40,446.90 575.00,446.25 575.60,445.60 576.20,444.95 576.80,444.30 577.40,443.65 578.00,443.00 578.60,442.35 579.20,441.70 579.80,441.05 580.40,440.40 581.00,439.75 581.60,439.10 582.20,438.45 582.80,437.80 583.40,437.15 584.00,436.50 584.60,435.85 585.20,435.20 585.80,434.55 586.40,433.90 587.00,433.25 587.60,432.60 588.20,431.95 588.80,431.30 589.40,430.65 590.00,430.00 590.60,429.35 591.20,428.70 591.80,428.05 592.40,427.40 593.00,426.75 593.60,426.10 594.20,425.45 594.80,424.80 595.40,424.15 596.00,423.50 596.60,422.85 597.20,422.20 597.80,421.55 598.40,420.90 599.00,420.25 599.60,419.60 600.20,418.95 600.80,418.30 601.40,417.65 602.00,417.00 602.60,416.35 603.20,415.70 603.80,415.05 604.40,414.40 605.00,413.75 605.60,413.10 606.20,412.45 606.80,411.80 607.40,411.15 608.00,410.50 608.60,409.85 609.20,409.20 609.80,408.55 610.40,407.90 611.00,407.25 611.60,406.60 612.20,405.95 612.80,405.30 613.40,404.65 614.00,404.00 614.60,403.35 615.20,402.70 615.80,402.05 616.40,401.40 617.00,400.75 617.60,400.10 618.20,399.45 618.80,398.80 619.40,398.15 620.00,397.50 620.60,396.85 621.20,396.20 621.80,395.55 622.40,394.90 623.00,394.25 623.60,393.60 624.20,392.95 624.80,392.30 625.40,391.65 626.00,391.00 626.60,390.35 627.20,389.70 627.80,389.05 628.40,388.40 629.00,387.75 629.60,387.10 630.20,386.45 630.80,385.80 631.40,385.15 632.00,384.50 632.60,383.85 633.20,383.20 633.80,382.55 634.40,381.90 635.00,381.25 635.60,380.60 636.20,379.95 636.80,379.30 637.40,378.65 638.00,378.00 638.60,377.35 639.20,376.70 639.80,376.05 640.40,375.40 641.00,374.75 641.60,374.10 642.20,373.45 642.80,372.80 643.40,372.15 644.00,371.50 644.60,370.85 645.20,370.20 645.80,369.55 646.40,368.90 647.00,368.25 647.60,367.60 648.20,366.95 648.80,366.30 649.40,365.65 650.00,365.00 650.60,364.35 651.20,363.70 651.80,363.05 652.40,362.40 653.00,361.75 653.60,361.10 654.20,360.45 654.80,359.80 655.40,359.15 656.00,358.50 656.60,357.85 657.20,357.20 657.80,356.55 658.40,355.90 659.00,355.25 659.60,354.60 660.20,353.95 660.80,353.30 661.40,352.65 662.00,352.00 662.60,351.35 663.20,350.70 663.80,350.05 664.40,349.40 665.00,348.75 665.60,348.10 666.20,347.45 666.80,346.80 667.40,346.15 668.00,345.50 668.60,344.85 669.20,344.20 669.80,343.55 670.40,342.90 671.00,342.25 671.60,341.60 672.20,340.95 672.80,340.30 673.40,339.65 674.00,339.00 674.60,338.35 675.20,337.70 675.80,337.05 676.40,336.40 677.00,335.75 677.60,335.10 678.20,334.45 678.80,333.80 679.40,333.15 680.00,332.50 680.60,331.85 681.20,331.20 681.80,330.55 682.40,329.90 683.00,329.25 683.60,328.60 684.20,327.95 684.80,327.30 685.40,326.65 686.00,326.00 686.60,325.35 687.20,324.70 687.80,324.05 688.40,323.40 689.00,322.75 689.60,322.10 690.20,321.45 690.80,320.80 691.40,320.15 692.00,319.50 692.60,318.85 693.20,318.20 693.80,317.55 694.40,316.90 695.00,316.25 695.60,315.60 696.20,314.95 696.80,314.30 697.40,313.65 698.00,313.00 698.60,312.35 699.20,311.70 699.80,311.05 700.40,310.40 701.00,309.75 701.60,309.10 702.20,308.45 702.80,307.80 703.40,307.15 704.00,306.50 704.60,305.85 705.20,305.20 705.80,304.55 706.40,303.90 707.00,303.25 707.60,302.60 708.20,301.95 708.80,301.30 709.40,300.65 710.00,300.00 710.60,299.35 711.20,298.70 711.80,298.05 712.40,297.40 713.00,296.75 713.60,296.10 714.20,295.45 714.80,294.80 715.40,294.15 716.00,293.50 716.60,292.85 717.20,292.20 717.80,291.55 718.40,290.90 719.00,290.25 719.60,289.60 720.20,288.95 720.80,288.30 721.40,287.65 722.00,287.00 722.60,286.35 723.20,285.70 723.80,285.05 724.40,284.40 725.00,283.75 725.60,283.10 726.20,282.45 726.80,281.80 727.40,281.15 728.00,280.50 728.60,279.85 729.20,279.20 729.80,278.55 730.40,277.90 731.00,277.25 731.60,276.60 732.20,275.95 732.80,275.30 733.40,274.65 734.00,274.00 734.60,273.35 735.20,272.70 735.80,272.05 736.40,271.40 737.00,270.75 737.60,270.10 738.20,269.45 738.80,268.80 739.40,268.15 740.00,267.50 740.60,266.85 741.20,266.20 741.80,265.55 742.40,264.90 743.00,264.25 743.60,263.60 744.20,262.95 744.80,262.30 745.40,261.65 746.00,261.00 746.60,260.35 747.20,259.70 747.80,259.05 748.40,258.40 749.00,257.75 749.60,257.10 750.20,256.45 750.80,255.80 751.40,255.15 752.00,254.50 752.60,253.85 753.20,253.20 753.80,252.55 754.40,251.90 755.00,251.25 755.60,250.60 756.20,249.95 756.80,249.30 757.40,248.65 758.00,248.00 758.60,247.35 759.20,246.70 759.80,246.05 760.40,245.40 761.00,244.75 761.60,244.10 762.20,243.45 762.80,242.80 763.40,242.15 764.00,241.50 764.60,240.85 765.20,240.20 765.80,239.55 766.40,238.90 767.00,238.25 767.60,237.60 768.20,236.95 768.80,236.30 769.40,235.65 770.00,235.00 770.60,234.35 771.20,233.70 771.80,233.05 772.40,232.40 773.00,231.75 773.60,231.10 774.20,230.45 774.80,229.80 775.40,229.15 776.00,228.50 776.60,227.85 777.20,227.20 777.80,226.55 778.40,225.90 779.00,225.25 779.60,224.60 780.20,223.95 780.80,223.30 781.40,222.65 782.00,222.00 782.60,221.35 783.20,220.70 783.80,220.05 784.40,219.40 785.00,218.75 785.60,218.10 786.20,217.45 786.80,216.80 787.40,216.15 788.00,215.50 788.60,214.85 789.20,214.20 789.80,213.55 790.40,212.90 791.00,212.25 791.60,211.60 792.20,210.95 792.80,210.30 793.40,209.65 794.00,209.00 794.60,208.35 795.20,207.70 795.80,207.05 796.40,206.40 797.00,205.75 797.60,205.10 798.20,204.45 798.80,203.80 799.40,203.15 800.00,202.50 800.60,201.85 801.20,201.20 801.80,200.55 802.40,199.90 803.00,199.25 803.60,198.60 804.20,197.95 804.80,197.30 805.40,196.65 806.00,196.00 806.60,195.35 807.20,194.70 807.80,194.05 808.40,193.40 809.00,192.75 809.60,192.10 810.20,191.45 810.80,190.80 811.40,190.15 812.00,189.50 812.60,188.85 813.20,188.20 813.80,187.55 814.40,186.90 815.00,186.25 815.60,185.60 816.20,184.95 816.80,184.30 817.40,183.65 818.00,183.00 818.60,182.35 819.20,181.70 819.80,181.05 820.40,180.40 821.00,179.75 821.60,179.10 822.20,178.45 822.80,177.80 823.40,177.15 824.00,176.50 824.60,175.85 825.20,175.20 825.80,174.55 826.40,173.90 827.00,173.25 827.60,172.60 828.20,171.95 828.80,171.30 829.40,170.65 830.00,170.00" fill="none" stroke="#94a3b8" stroke-width="2" stroke-dasharray="8 8"/>
<polyline points="545.60,478.10 545.60,352.96 661.12,352.96 661.12,352.96 661.12,249.19 756.90,249.19 756.90,249.19 756.90,358.05 656.42,358.05 656.42,358.05 656.42,248.40 757.63,248.40 757.63,248.40 757.63,359.56 655.02,359.56 655.02,359.56 655.02,248.24 757.78,248.24 757.78,248.24 757.78,359.85 654.75,359.85 654.75,359.85 654.75,248.22 757.80,248.22 757.80,248.22 757.80,359.90 654.70,359.90 654.70,359.90 654.70,248.21 757.80,248.21 757.80,248.21 757.80,359.91 654.70,359.91 654.70,359.91 654.70,248.21 757.80,248.21 757.80,248.21 757.80,359.91 654.70,359.91 654.70,359.91 654.70,248.21 757.80,248.21 757.80,248.21 757.80,359.91 654.70,359.91 654.70,359.91 654.70,248.21 757.80,248.21 757.80,248.21 757.80,359.91 654.70,359.91 654.70,359.91 654.70,248.21 757.80,248.21 757.80,248.21 757.80,359.91 654.70,359.91 654.70,359.91 654.70,248.21 757.80,248.21 757.80,248.21 757.80,359.91 654.70,359.91 654.70,359.91 654.70,248.21 757.80,248.21 757.80,248.21 757.80,359.91 654.70,359.91 654.70,359.91 654.70,248.21 757.80,248.21 757.80,248.21 757.80,359.91 654.70,359.91 654.70,359.91 654.70,248.21 757.80,248.21 757.80,248.21 757.80,359.91 654.70,359.91 654.70,359.91 654.70,248.21 757.80,248.21 757.80,248.21 757.80,359.91 654.70,359.91 654.70,359.91 654.70,248.21 757.80,248.21 757.80,248.21 757.80,359.91 654.70,359.91 654.70,359.91 654.70,248.21 757.80,248.21 757.80,248.21 757.80,359.91 654.70,359.91 654.70,359.91 654.70,248.21 757.80,248.21 757.80,248.21 757.80,359.91 654.70,359.91 654.70,359.91 654.70,248.21 757.80,248.21 757.80,248.21 757.80,359.91 654.70,359.91 654.70,359.91 654.70,248.21 757.80,248.21 757.80,248.21 757.80,359.91 654.70,359.91 654.70,359.91 654.70,248.21 757.80,248.21 757.80,248.21 757.80,359.91 654.70,359.91 654.70,359.91 654.70,248.21 757.80,248.21" fill="none" stroke="#f97316" stroke-width="2.2" stroke-linejoin="round"/>
<rect x="860" y="170" width="360" height="390" class="panel"/>
<text x="860.0" y="148.0" class="label" text-anchor="start">r = 3.7</text>
<text x="970.0" y="148.0" class="small" text-anchor="start">chaotic orbit</text>
<line x1="860.0" y1="170.0" x2="860.0" y2="560.0" class="grid"/>
<line x1="860.0" y1="560.0" x2="1220.0" y2="560.0" class="grid"/>
<line x1="950.0" y1="170.0" x2="950.0" y2="560.0" class="grid"/>
<line x1="860.0" y1="462.5" x2="1220.0" y2="462.5" class="grid"/>
<line x1="1040.0" y1="170.0" x2="1040.0" y2="560.0" class="grid"/>
<line x1="860.0" y1="365.0" x2="1220.0" y2="365.0" class="grid"/>
<line x1="1130.0" y1="170.0" x2="1130.0" y2="560.0" class="grid"/>
<line x1="860.0" y1="267.5" x2="1220.0" y2="267.5" class="grid"/>
<line x1="1220.0" y1="170.0" x2="1220.0" y2="560.0" class="grid"/>
<line x1="860.0" y1="170.0" x2="1220.0" y2="170.0" class="grid"/>
<line x1="860.0" y1="560.0" x2="1220.0" y2="560.0" class="axis"/>
<line x1="860.0" y1="170.0" x2="860.0" y2="560.0" class="axis"/>
<polyline points="860.00,560.00 860.60,557.60 861.20,555.21 861.80,552.82 862.40,550.44 863.00,548.08 863.60,545.71 864.20,543.36 864.80,541.02 865.40,538.68 866.00,536.35 866.60,534.03 867.20,531.72 867.80,529.41 868.40,527.12 869.00,524.83 869.60,522.55 870.20,520.27 870.80,518.01 871.40,515.75 872.00,513.50 872.60,511.26 873.20,509.03 873.80,506.81 874.40,504.59 875.00,502.38 875.60,500.18 876.20,497.99 876.80,495.80 877.40,493.63 878.00,491.46 878.60,489.30 879.20,487.14 879.80,485.00 880.40,482.86 881.00,480.74 881.60,478.61 882.20,476.50 882.80,474.40 883.40,472.30 884.00,470.21 884.60,468.13 885.20,466.06 885.80,464.00 886.40,461.94 887.00,459.89 887.60,457.85 888.20,455.82 888.80,453.80 889.40,451.78 890.00,449.77 890.60,447.77 891.20,445.78 891.80,443.79 892.40,441.82 893.00,439.85 893.60,437.89 894.20,435.94 894.80,433.99 895.40,432.06 896.00,430.13 896.60,428.21 897.20,426.30 897.80,424.39 898.40,422.50 899.00,420.61 899.60,418.73 900.20,416.86 900.80,414.99 901.40,413.14 902.00,411.29 902.60,409.45 903.20,407.62 903.80,405.80 904.40,403.98 905.00,402.17 905.60,400.37 906.20,398.58 906.80,396.80 907.40,395.02 908.00,393.25 908.60,391.49 909.20,389.74 909.80,388.00 910.40,386.26 911.00,384.54 911.60,382.82 912.20,381.10 912.80,379.40 913.40,377.71 914.00,376.02 914.60,374.34 915.20,372.67 915.80,371.00 916.40,369.35 917.00,367.70 917.60,366.06 918.20,364.43 918.80,362.81 919.40,361.19 920.00,359.58 920.60,357.98 921.20,356.39 921.80,354.81 922.40,353.23 923.00,351.67 923.60,350.11 924.20,348.56 924.80,347.01 925.40,345.48 926.00,343.95 926.60,342.43 927.20,340.92 927.80,339.42 928.40,337.92 929.00,336.44 929.60,334.96 930.20,333.49 930.80,332.02 931.40,330.57 932.00,329.12 932.60,327.68 933.20,326.25 933.80,324.83 934.40,323.41 935.00,322.01 935.60,320.61 936.20,319.22 936.80,317.83 937.40,316.46 938.00,315.09 938.60,313.73 939.20,312.38 939.80,311.04 940.40,309.70 941.00,308.38 941.60,307.06 942.20,305.75 942.80,304.44 943.40,303.15 944.00,301.86 944.60,300.58 945.20,299.31 945.80,298.05 946.40,296.80 947.00,295.55 947.60,294.31 948.20,293.08 948.80,291.86 949.40,290.64 950.00,289.44 950.60,288.24 951.20,287.05 951.80,285.87 952.40,284.69 953.00,283.53 953.60,282.37 954.20,281.22 954.80,280.07 955.40,278.94 956.00,277.81 956.60,276.70 957.20,275.58 957.80,274.48 958.40,273.39 959.00,272.30 959.60,271.22 960.20,270.15 960.80,269.09 961.40,268.04 962.00,266.99 962.60,265.95 963.20,264.92 963.80,263.90 964.40,262.89 965.00,261.88 965.60,260.88 966.20,259.89 966.80,258.91 967.40,257.94 968.00,256.97 968.60,256.01 969.20,255.06 969.80,254.12 970.40,253.19 971.00,252.26 971.60,251.34 972.20,250.43 972.80,249.53 973.40,248.64 974.00,247.75 974.60,246.87 975.20,246.00 975.80,245.14 976.40,244.29 977.00,243.44 977.60,242.60 978.20,241.77 978.80,240.95 979.40,240.14 980.00,239.33 980.60,238.54 981.20,237.75 981.80,236.96 982.40,236.19 983.00,235.43 983.60,234.67 984.20,233.92 984.80,233.18 985.40,232.44 986.00,231.72 986.60,231.00 987.20,230.29 987.80,229.59 988.40,228.90 989.00,228.21 989.60,227.53 990.20,226.86 990.80,226.20 991.40,225.55 992.00,224.90 992.60,224.27 993.20,223.64 993.80,223.02 994.40,222.40 995.00,221.80 995.60,221.20 996.20,220.61 996.80,220.03 997.40,219.46 998.00,218.89 998.60,218.33 999.20,217.78 999.80,217.24 1000.40,216.71 1001.00,216.19 1001.60,215.67 1002.20,215.16 1002.80,214.66 1003.40,214.17 1004.00,213.68 1004.60,213.20 1005.20,212.73 1005.80,212.27 1006.40,211.82 1007.00,211.38 1007.60,210.94 1008.20,210.51 1008.80,210.09 1009.40,209.68 1010.00,209.27 1010.60,208.87 1011.20,208.49 1011.80,208.10 1012.40,207.73 1013.00,207.37 1013.60,207.01 1014.20,206.66 1014.80,206.32 1015.40,205.99 1016.00,205.66 1016.60,205.35 1017.20,205.04 1017.80,204.74 1018.40,204.44 1019.00,204.16 1019.60,203.88 1020.20,203.62 1020.80,203.35 1021.40,203.10 1022.00,202.86 1022.60,202.62 1023.20,202.39 1023.80,202.17 1024.40,201.96 1025.00,201.76 1025.60,201.56 1026.20,201.37 1026.80,201.19 1027.40,201.02 1028.00,200.85 1028.60,200.70 1029.20,200.55 1029.80,200.41 1030.40,200.28 1031.00,200.15 1031.60,200.04 1032.20,199.93 1032.80,199.83 1033.40,199.74 1034.00,199.65 1034.60,199.57 1035.20,199.51 1035.80,199.45 1036.40,199.39 1037.00,199.35 1037.60,199.31 1038.20,199.29 1038.80,199.27 1039.40,199.25 1040.00,199.25 1040.60,199.25 1041.20,199.27 1041.80,199.29 1042.40,199.31 1043.00,199.35 1043.60,199.39 1044.20,199.45 1044.80,199.51 1045.40,199.57 1046.00,199.65 1046.60,199.74 1047.20,199.83 1047.80,199.93 1048.40,200.04 1049.00,200.15 1049.60,200.28 1050.20,200.41 1050.80,200.55 1051.40,200.70 1052.00,200.85 1052.60,201.02 1053.20,201.19 1053.80,201.37 1054.40,201.56 1055.00,201.76 1055.60,201.96 1056.20,202.17 1056.80,202.39 1057.40,202.62 1058.00,202.86 1058.60,203.10 1059.20,203.35 1059.80,203.62 1060.40,203.88 1061.00,204.16 1061.60,204.44 1062.20,204.74 1062.80,205.04 1063.40,205.35 1064.00,205.66 1064.60,205.99 1065.20,206.32 1065.80,206.66 1066.40,207.01 1067.00,207.37 1067.60,207.73 1068.20,208.10 1068.80,208.49 1069.40,208.87 1070.00,209.27 1070.60,209.68 1071.20,210.09 1071.80,210.51 1072.40,210.94 1073.00,211.38 1073.60,211.82 1074.20,212.27 1074.80,212.73 1075.40,213.20 1076.00,213.68 1076.60,214.17 1077.20,214.66 1077.80,215.16 1078.40,215.67 1079.00,216.19 1079.60,216.71 1080.20,217.24 1080.80,217.78 1081.40,218.33 1082.00,218.89 1082.60,219.46 1083.20,220.03 1083.80,220.61 1084.40,221.20 1085.00,221.80 1085.60,222.40 1086.20,223.02 1086.80,223.64 1087.40,224.27 1088.00,224.90 1088.60,225.55 1089.20,226.20 1089.80,226.86 1090.40,227.53 1091.00,228.21 1091.60,228.90 1092.20,229.59 1092.80,230.29 1093.40,231.00 1094.00,231.72 1094.60,232.44 1095.20,233.18 1095.80,233.92 1096.40,234.67 1097.00,235.43 1097.60,236.19 1098.20,236.96 1098.80,237.75 1099.40,238.54 1100.00,239.33 1100.60,240.14 1101.20,240.95 1101.80,241.77 1102.40,242.60 1103.00,243.44 1103.60,244.29 1104.20,245.14 1104.80,246.00 1105.40,246.87 1106.00,247.75 1106.60,248.64 1107.20,249.53 1107.80,250.43 1108.40,251.34 1109.00,252.26 1109.60,253.19 1110.20,254.12 1110.80,255.06 1111.40,256.01 1112.00,256.97 1112.60,257.94 1113.20,258.91 1113.80,259.89 1114.40,260.88 1115.00,261.88 1115.60,262.89 1116.20,263.90 1116.80,264.92 1117.40,265.95 1118.00,266.99 1118.60,268.04 1119.20,269.09 1119.80,270.15 1120.40,271.22 1121.00,272.30 1121.60,273.39 1122.20,274.48 1122.80,275.58 1123.40,276.70 1124.00,277.81 1124.60,278.94 1125.20,280.07 1125.80,281.22 1126.40,282.37 1127.00,283.53 1127.60,284.69 1128.20,285.87 1128.80,287.05 1129.40,288.24 1130.00,289.44 1130.60,290.64 1131.20,291.86 1131.80,293.08 1132.40,294.31 1133.00,295.55 1133.60,296.80 1134.20,298.05 1134.80,299.31 1135.40,300.58 1136.00,301.86 1136.60,303.15 1137.20,304.44 1137.80,305.75 1138.40,307.06 1139.00,308.38 1139.60,309.70 1140.20,311.04 1140.80,312.38 1141.40,313.73 1142.00,315.09 1142.60,316.46 1143.20,317.83 1143.80,319.22 1144.40,320.61 1145.00,322.01 1145.60,323.41 1146.20,324.83 1146.80,326.25 1147.40,327.68 1148.00,329.12 1148.60,330.57 1149.20,332.02 1149.80,333.49 1150.40,334.96 1151.00,336.44 1151.60,337.92 1152.20,339.42 1152.80,340.92 1153.40,342.43 1154.00,343.95 1154.60,345.48 1155.20,347.01 1155.80,348.56 1156.40,350.11 1157.00,351.67 1157.60,353.23 1158.20,354.81 1158.80,356.39 1159.40,357.98 1160.00,359.58 1160.60,361.19 1161.20,362.81 1161.80,364.43 1162.40,366.06 1163.00,367.70 1163.60,369.35 1164.20,371.00 1164.80,372.67 1165.40,374.34 1166.00,376.02 1166.60,377.71 1167.20,379.40 1167.80,381.10 1168.40,382.82 1169.00,384.54 1169.60,386.26 1170.20,388.00 1170.80,389.74 1171.40,391.49 1172.00,393.25 1172.60,395.02 1173.20,396.80 1173.80,398.58 1174.40,400.37 1175.00,402.17 1175.60,403.98 1176.20,405.80 1176.80,407.62 1177.40,409.45 1178.00,411.29 1178.60,413.14 1179.20,414.99 1179.80,416.86 1180.40,418.73 1181.00,420.61 1181.60,422.50 1182.20,424.39 1182.80,426.30 1183.40,428.21 1184.00,430.13 1184.60,432.06 1185.20,433.99 1185.80,435.94 1186.40,437.89 1187.00,439.85 1187.60,441.82 1188.20,443.79 1188.80,445.78 1189.40,447.77 1190.00,449.77 1190.60,451.78 1191.20,453.80 1191.80,455.82 1192.40,457.85 1193.00,459.89 1193.60,461.94 1194.20,464.00 1194.80,466.06 1195.40,468.13 1196.00,470.21 1196.60,472.30 1197.20,474.40 1197.80,476.50 1198.40,478.61 1199.00,480.74 1199.60,482.86 1200.20,485.00 1200.80,487.14 1201.40,489.30 1202.00,491.46 1202.60,493.63 1203.20,495.80 1203.80,497.99 1204.40,500.18 1205.00,502.38 1205.60,504.59 1206.20,506.81 1206.80,509.03 1207.40,511.26 1208.00,513.50 1208.60,515.75 1209.20,518.01 1209.80,520.27 1210.40,522.55 1211.00,524.83 1211.60,527.12 1212.20,529.41 1212.80,531.72 1213.40,534.03 1214.00,536.35 1214.60,538.68 1215.20,541.02 1215.80,543.36 1216.40,545.71 1217.00,548.08 1217.60,550.44 1218.20,552.82 1218.80,555.21 1219.40,557.60 1220.00,560.00" fill="none" stroke="#7dd3fc" stroke-width="3"/>
<polyline points="860.00,560.00 860.60,559.35 861.20,558.70 861.80,558.05 862.40,557.40 863.00,556.75 863.60,556.10 864.20,555.45 864.80,554.80 865.40,554.15 866.00,553.50 866.60,552.85 867.20,552.20 867.80,551.55 868.40,550.90 869.00,550.25 869.60,549.60 870.20,548.95 870.80,548.30 871.40,547.65 872.00,547.00 872.60,546.35 873.20,545.70 873.80,545.05 874.40,544.40 875.00,543.75 875.60,543.10 876.20,542.45 876.80,541.80 877.40,541.15 878.00,540.50 878.60,539.85 879.20,539.20 879.80,538.55 880.40,537.90 881.00,537.25 881.60,536.60 882.20,535.95 882.80,535.30 883.40,534.65 884.00,534.00 884.60,533.35 885.20,532.70 885.80,532.05 886.40,531.40 887.00,530.75 887.60,530.10 888.20,529.45 888.80,528.80 889.40,528.15 890.00,527.50 890.60,526.85 891.20,526.20 891.80,525.55 892.40,524.90 893.00,524.25 893.60,523.60 894.20,522.95 894.80,522.30 895.40,521.65 896.00,521.00 896.60,520.35 897.20,519.70 897.80,519.05 898.40,518.40 899.00,517.75 899.60,517.10 900.20,516.45 900.80,515.80 901.40,515.15 902.00,514.50 902.60,513.85 903.20,513.20 903.80,512.55 904.40,511.90 905.00,511.25 905.60,510.60 906.20,509.95 906.80,509.30 907.40,508.65 908.00,508.00 908.60,507.35 909.20,506.70 909.80,506.05 910.40,505.40 911.00,504.75 911.60,504.10 912.20,503.45 912.80,502.80 913.40,502.15 914.00,501.50 914.60,500.85 915.20,500.20 915.80,499.55 916.40,498.90 917.00,498.25 917.60,497.60 918.20,496.95 918.80,496.30 919.40,495.65 920.00,495.00 920.60,494.35 921.20,493.70 921.80,493.05 922.40,492.40 923.00,491.75 923.60,491.10 924.20,490.45 924.80,489.80 925.40,489.15 926.00,488.50 926.60,487.85 927.20,487.20 927.80,486.55 928.40,485.90 929.00,485.25 929.60,484.60 930.20,483.95 930.80,483.30 931.40,482.65 932.00,482.00 932.60,481.35 933.20,480.70 933.80,480.05 934.40,479.40 935.00,478.75 935.60,478.10 936.20,477.45 936.80,476.80 937.40,476.15 938.00,475.50 938.60,474.85 939.20,474.20 939.80,473.55 940.40,472.90 941.00,472.25 941.60,471.60 942.20,470.95 942.80,470.30 943.40,469.65 944.00,469.00 944.60,468.35 945.20,467.70 945.80,467.05 946.40,466.40 947.00,465.75 947.60,465.10 948.20,464.45 948.80,463.80 949.40,463.15 950.00,462.50 950.60,461.85 951.20,461.20 951.80,460.55 952.40,459.90 953.00,459.25 953.60,458.60 954.20,457.95 954.80,457.30 955.40,456.65 956.00,456.00 956.60,455.35 957.20,454.70 957.80,454.05 958.40,453.40 959.00,452.75 959.60,452.10 960.20,451.45 960.80,450.80 961.40,450.15 962.00,449.50 962.60,448.85 963.20,448.20 963.80,447.55 964.40,446.90 965.00,446.25 965.60,445.60 966.20,444.95 966.80,444.30 967.40,443.65 968.00,443.00 968.60,442.35 969.20,441.70 969.80,441.05 970.40,440.40 971.00,439.75 971.60,439.10 972.20,438.45 972.80,437.80 973.40,437.15 974.00,436.50 974.60,435.85 975.20,435.20 975.80,434.55 976.40,433.90 977.00,433.25 977.60,432.60 978.20,431.95 978.80,431.30 979.40,430.65 980.00,430.00 980.60,429.35 981.20,428.70 981.80,428.05 982.40,427.40 983.00,426.75 983.60,426.10 984.20,425.45 984.80,424.80 985.40,424.15 986.00,423.50 986.60,422.85 987.20,422.20 987.80,421.55 988.40,420.90 989.00,420.25 989.60,419.60 990.20,418.95 990.80,418.30 991.40,417.65 992.00,417.00 992.60,416.35 993.20,415.70 993.80,415.05 994.40,414.40 995.00,413.75 995.60,413.10 996.20,412.45 996.80,411.80 997.40,411.15 998.00,410.50 998.60,409.85 999.20,409.20 999.80,408.55 1000.40,407.90 1001.00,407.25 1001.60,406.60 1002.20,405.95 1002.80,405.30 1003.40,404.65 1004.00,404.00 1004.60,403.35 1005.20,402.70 1005.80,402.05 1006.40,401.40 1007.00,400.75 1007.60,400.10 1008.20,399.45 1008.80,398.80 1009.40,398.15 1010.00,397.50 1010.60,396.85 1011.20,396.20 1011.80,395.55 1012.40,394.90 1013.00,394.25 1013.60,393.60 1014.20,392.95 1014.80,392.30 1015.40,391.65 1016.00,391.00 1016.60,390.35 1017.20,389.70 1017.80,389.05 1018.40,388.40 1019.00,387.75 1019.60,387.10 1020.20,386.45 1020.80,385.80 1021.40,385.15 1022.00,384.50 1022.60,383.85 1023.20,383.20 1023.80,382.55 1024.40,381.90 1025.00,381.25 1025.60,380.60 1026.20,379.95 1026.80,379.30 1027.40,378.65 1028.00,378.00 1028.60,377.35 1029.20,376.70 1029.80,376.05 1030.40,375.40 1031.00,374.75 1031.60,374.10 1032.20,373.45 1032.80,372.80 1033.40,372.15 1034.00,371.50 1034.60,370.85 1035.20,370.20 1035.80,369.55 1036.40,368.90 1037.00,368.25 1037.60,367.60 1038.20,366.95 1038.80,366.30 1039.40,365.65 1040.00,365.00 1040.60,364.35 1041.20,363.70 1041.80,363.05 1042.40,362.40 1043.00,361.75 1043.60,361.10 1044.20,360.45 1044.80,359.80 1045.40,359.15 1046.00,358.50 1046.60,357.85 1047.20,357.20 1047.80,356.55 1048.40,355.90 1049.00,355.25 1049.60,354.60 1050.20,353.95 1050.80,353.30 1051.40,352.65 1052.00,352.00 1052.60,351.35 1053.20,350.70 1053.80,350.05 1054.40,349.40 1055.00,348.75 1055.60,348.10 1056.20,347.45 1056.80,346.80 1057.40,346.15 1058.00,345.50 1058.60,344.85 1059.20,344.20 1059.80,343.55 1060.40,342.90 1061.00,342.25 1061.60,341.60 1062.20,340.95 1062.80,340.30 1063.40,339.65 1064.00,339.00 1064.60,338.35 1065.20,337.70 1065.80,337.05 1066.40,336.40 1067.00,335.75 1067.60,335.10 1068.20,334.45 1068.80,333.80 1069.40,333.15 1070.00,332.50 1070.60,331.85 1071.20,331.20 1071.80,330.55 1072.40,329.90 1073.00,329.25 1073.60,328.60 1074.20,327.95 1074.80,327.30 1075.40,326.65 1076.00,326.00 1076.60,325.35 1077.20,324.70 1077.80,324.05 1078.40,323.40 1079.00,322.75 1079.60,322.10 1080.20,321.45 1080.80,320.80 1081.40,320.15 1082.00,319.50 1082.60,318.85 1083.20,318.20 1083.80,317.55 1084.40,316.90 1085.00,316.25 1085.60,315.60 1086.20,314.95 1086.80,314.30 1087.40,313.65 1088.00,313.00 1088.60,312.35 1089.20,311.70 1089.80,311.05 1090.40,310.40 1091.00,309.75 1091.60,309.10 1092.20,308.45 1092.80,307.80 1093.40,307.15 1094.00,306.50 1094.60,305.85 1095.20,305.20 1095.80,304.55 1096.40,303.90 1097.00,303.25 1097.60,302.60 1098.20,301.95 1098.80,301.30 1099.40,300.65 1100.00,300.00 1100.60,299.35 1101.20,298.70 1101.80,298.05 1102.40,297.40 1103.00,296.75 1103.60,296.10 1104.20,295.45 1104.80,294.80 1105.40,294.15 1106.00,293.50 1106.60,292.85 1107.20,292.20 1107.80,291.55 1108.40,290.90 1109.00,290.25 1109.60,289.60 1110.20,288.95 1110.80,288.30 1111.40,287.65 1112.00,287.00 1112.60,286.35 1113.20,285.70 1113.80,285.05 1114.40,284.40 1115.00,283.75 1115.60,283.10 1116.20,282.45 1116.80,281.80 1117.40,281.15 1118.00,280.50 1118.60,279.85 1119.20,279.20 1119.80,278.55 1120.40,277.90 1121.00,277.25 1121.60,276.60 1122.20,275.95 1122.80,275.30 1123.40,274.65 1124.00,274.00 1124.60,273.35 1125.20,272.70 1125.80,272.05 1126.40,271.40 1127.00,270.75 1127.60,270.10 1128.20,269.45 1128.80,268.80 1129.40,268.15 1130.00,267.50 1130.60,266.85 1131.20,266.20 1131.80,265.55 1132.40,264.90 1133.00,264.25 1133.60,263.60 1134.20,262.95 1134.80,262.30 1135.40,261.65 1136.00,261.00 1136.60,260.35 1137.20,259.70 1137.80,259.05 1138.40,258.40 1139.00,257.75 1139.60,257.10 1140.20,256.45 1140.80,255.80 1141.40,255.15 1142.00,254.50 1142.60,253.85 1143.20,253.20 1143.80,252.55 1144.40,251.90 1145.00,251.25 1145.60,250.60 1146.20,249.95 1146.80,249.30 1147.40,248.65 1148.00,248.00 1148.60,247.35 1149.20,246.70 1149.80,246.05 1150.40,245.40 1151.00,244.75 1151.60,244.10 1152.20,243.45 1152.80,242.80 1153.40,242.15 1154.00,241.50 1154.60,240.85 1155.20,240.20 1155.80,239.55 1156.40,238.90 1157.00,238.25 1157.60,237.60 1158.20,236.95 1158.80,236.30 1159.40,235.65 1160.00,235.00 1160.60,234.35 1161.20,233.70 1161.80,233.05 1162.40,232.40 1163.00,231.75 1163.60,231.10 1164.20,230.45 1164.80,229.80 1165.40,229.15 1166.00,228.50 1166.60,227.85 1167.20,227.20 1167.80,226.55 1168.40,225.90 1169.00,225.25 1169.60,224.60 1170.20,223.95 1170.80,223.30 1171.40,222.65 1172.00,222.00 1172.60,221.35 1173.20,220.70 1173.80,220.05 1174.40,219.40 1175.00,218.75 1175.60,218.10 1176.20,217.45 1176.80,216.80 1177.40,216.15 1178.00,215.50 1178.60,214.85 1179.20,214.20 1179.80,213.55 1180.40,212.90 1181.00,212.25 1181.60,211.60 1182.20,210.95 1182.80,210.30 1183.40,209.65 1184.00,209.00 1184.60,208.35 1185.20,207.70 1185.80,207.05 1186.40,206.40 1187.00,205.75 1187.60,205.10 1188.20,204.45 1188.80,203.80 1189.40,203.15 1190.00,202.50 1190.60,201.85 1191.20,201.20 1191.80,200.55 1192.40,199.90 1193.00,199.25 1193.60,198.60 1194.20,197.95 1194.80,197.30 1195.40,196.65 1196.00,196.00 1196.60,195.35 1197.20,194.70 1197.80,194.05 1198.40,193.40 1199.00,192.75 1199.60,192.10 1200.20,191.45 1200.80,190.80 1201.40,190.15 1202.00,189.50 1202.60,188.85 1203.20,188.20 1203.80,187.55 1204.40,186.90 1205.00,186.25 1205.60,185.60 1206.20,184.95 1206.80,184.30 1207.40,183.65 1208.00,183.00 1208.60,182.35 1209.20,181.70 1209.80,181.05 1210.40,180.40 1211.00,179.75 1211.60,179.10 1212.20,178.45 1212.80,177.80 1213.40,177.15 1214.00,176.50 1214.60,175.85 1215.20,175.20 1215.80,174.55 1216.40,173.90 1217.00,173.25 1217.60,172.60 1218.20,171.95 1218.80,171.30 1219.40,170.65 1220.00,170.00" fill="none" stroke="#94a3b8" stroke-width="2" stroke-dasharray="8 8"/>
<polyline points="935.60,478.10 935.60,320.61 1080.98,320.61 1080.98,320.61 1080.98,217.95 1175.74,217.95 1175.74,217.95 1175.74,404.41 1003.63,404.41 1003.63,404.41 1003.63,213.98 1179.40,213.98 1179.40,213.98 1179.40,415.62 993.27,415.62 993.27,415.62 993.27,223.56 1170.56,223.56 1170.56,223.56 1170.56,389.04 1017.81,389.04 1017.81,389.04 1017.81,204.73 1187.94,204.73 1187.94,204.73 1187.94,442.93 968.07,442.93 968.07,442.93 968.07,256.86 1139.82,256.86 1139.82,256.86 1139.82,310.19 1090.60,310.19 1090.60,310.19 1090.60,227.75 1166.69,227.75 1166.69,227.75 1166.69,377.96 1028.04,377.96 1028.04,377.96 1028.04,200.84 1191.53,200.84 1191.53,200.84 1191.53,454.91 957.01,454.91 957.01,454.91 957.01,275.94 1122.21,275.94 1122.21,275.94 1122.21,274.51 1123.53,274.51 1123.53,274.51 1123.53,276.94 1121.29,276.94 1121.29,276.94 1121.29,272.82 1125.09,272.82 1125.09,272.82 1125.09,279.87 1118.58,279.87 1118.58,279.87 1118.58,268.01 1129.53,268.01 1129.53,268.01 1129.53,288.50 1110.62,288.50 1110.62,288.50 1110.62,254.78 1141.74,254.78 1141.74,254.78 1141.74,314.51 1086.61,314.51 1086.61,314.51 1086.61,223.44 1170.67,223.44 1170.67,223.44 1170.67,389.38 1017.50,389.38 1017.50,389.38 1017.50,204.89 1187.80,204.89 1187.80,204.89 1187.80,442.46 968.49,442.46 968.49,442.46 968.49,256.18 1140.45,256.18 1140.45,256.18 1140.45,311.60 1089.30,311.60 1089.30,311.60 1089.30,226.31 1168.02,226.31 1168.02,226.31 1168.02,381.74 1024.55,381.74 1024.55,381.74 1024.55,201.91 1190.55,201.91 1190.55,201.91 1190.55,451.59 960.07,451.59 960.07,451.59 960.07,270.39 1127.33,270.39 1127.33,270.39 1127.33,284.17 1114.61,284.17 1114.61,284.17 1114.61,261.24 1135.78,261.24 1135.78,261.24 1135.78,301.40 1098.71,301.40 1098.71,301.40 1098.71,237.63 1157.57,237.63 1157.57,237.63 1157.57,353.16 1050.93,353.16 1050.93,353.16 1050.93,200.58 1191.77,200.58 1191.77,200.58 1191.77,455.73 956.25,455.73" fill="none" stroke="#f97316" stroke-width="2.2" stroke-linejoin="round"/>
</svg>
