<svg xmlns="http://www.w3.org/2000/svg" viewBox="0 0 1500 560">
<defs>
  <linearGradient id="bg" x1="0" y1="0" x2="1" y2="1">
    <stop offset="0%" stop-color="#081018"/>
    <stop offset="100%" stop-color="#101d2a"/>
  </linearGradient>
  <style>
    .title { font: 700 34px Helvetica, Arial, sans-serif; fill: #e6edf3; }
    .subtitle { font: 500 18px Helvetica, Arial, sans-serif; fill: #9fb3c8; }
    .label { font: 600 18px Helvetica, Arial, sans-serif; fill: #dce7f3; }
    .small { font: 500 15px Helvetica, Arial, sans-serif; fill: #9fb3c8; }
    .axis { stroke: #39516a; stroke-width: 2; }
    .grid { stroke: #223445; stroke-width: 1; opacity: 0.8; }
    .panel { fill: #122131; stroke: #5e7fa3; stroke-width: 2; rx: 18; }
  </style>
</defs>
<rect width="1500" height="560" fill="url(#bg)"/>
<text x="60.0" y="58.0" class="title" text-anchor="start">Cobweb triptych: stable point, two-cycle, chaos</text>
<text x="60.0" y="88.0" class="subtitle" text-anchor="start">Three values of r are enough to show how the same recurrence changes character.</text>
<rect x="80" y="150" width="420" height="350" class="panel"/>
<text x="80.0" y="132.0" class="label" text-anchor="start">r = 2.9</text>
<text x="190.0" y="132.0" class="small" text-anchor="start">stable fixed point</text>
<line x1="80.0" y1="150.0" x2="80.0" y2="500.0" class="grid"/>
<line x1="80.0" y1="500.0" x2="500.0" y2="500.0" class="grid"/>
<line x1="185.0" y1="150.0" x2="185.0" y2="500.0" class="grid"/>
<line x1="80.0" y1="412.5" x2="500.0" y2="412.5" class="grid"/>
<line x1="290.0" y1="150.0" x2="290.0" y2="500.0" class="grid"/>
<line x1="80.0" y1="325.0" x2="500.0" y2="325.0" class="grid"/>
<line x1="395.0" y1="150.0" x2="395.0" y2="500.0" class="grid"/>
<line x1="80.0" y1="237.5" x2="500.0" y2="237.5" class="grid"/>
<line x1="500.0" y1="150.0" x2="500.0" y2="500.0" class="grid"/>
<line x1="80.0" y1="150.0" x2="500.0" y2="150.0" class="grid"/>
<line x1="80.0" y1="500.0" x2="500.0" y2="500.0" class="axis"/>
<line x1="80.0" y1="150.0" x2="80.0" y2="500.0" class="axis"/>
<polyline points="80.00,500.00 80.70,498.31 81.40,496.63 82.10,494.95 82.80,493.28 83.50,491.61 84.20,489.95 84.90,488.30 85.60,486.65 86.30,485.00 87.00,483.37 87.70,481.73 88.40,480.11 89.10,478.48 89.80,476.87 90.50,475.26 91.20,473.66 91.90,472.06 92.60,470.46 93.30,468.88 94.00,467.29 94.70,465.72 95.40,464.15 96.10,462.58 96.80,461.02 97.50,459.47 98.20,457.92 98.90,456.38 99.60,454.84 100.30,453.31 101.00,451.79 101.70,450.27 102.40,448.75 103.10,447.25 103.80,445.74 104.50,444.25 105.20,442.75 105.90,441.27 106.60,439.79 107.30,438.31 108.00,436.84 108.70,435.38 109.40,433.92 110.10,432.47 110.80,431.03 111.50,429.58 112.20,428.15 112.90,426.72 113.60,425.30 114.30,423.88 115.00,422.47 115.70,421.06 116.40,419.66 117.10,418.26 117.80,416.87 118.50,415.49 119.20,414.11 119.90,412.74 120.60,411.37 121.30,410.01 122.00,408.65 122.70,407.30 123.40,405.95 124.10,404.62 124.80,403.28 125.50,401.95 126.20,400.63 126.90,399.31 127.60,398.00 128.30,396.70 129.00,395.40 129.70,394.10 130.40,392.82 131.10,391.53 131.80,390.26 132.50,388.98 133.20,387.72 133.90,386.46 134.60,385.20 135.30,383.95 136.00,382.71 136.70,381.47 137.40,380.24 138.10,379.01 138.80,377.79 139.50,376.58 140.20,375.37 140.90,374.17 141.60,372.97 142.30,371.77 143.00,370.59 143.70,369.41 144.40,368.23 145.10,367.06 145.80,365.90 146.50,364.74 147.20,363.58 147.90,362.44 148.60,361.29 149.30,360.16 150.00,359.03 150.70,357.90 151.40,356.78 152.10,355.67 152.80,354.56 153.50,353.46 154.20,352.36 154.90,351.27 155.60,350.19 156.30,349.11 157.00,348.03 157.70,346.96 158.40,345.90 159.10,344.84 159.80,343.79 160.50,342.75 161.20,341.71 161.90,340.67 162.60,339.64 163.30,338.62 164.00,337.60 164.70,336.59 165.40,335.58 166.10,334.58 166.80,333.59 167.50,332.60 168.20,331.61 168.90,330.63 169.60,329.66 170.30,328.69 171.00,327.73 171.70,326.78 172.40,325.83 173.10,324.88 173.80,323.94 174.50,323.01 175.20,322.08 175.90,321.16 176.60,320.24 177.30,319.33 178.00,318.43 178.70,317.53 179.40,316.63 180.10,315.75 180.80,314.86 181.50,313.99 182.20,313.12 182.90,312.25 183.60,311.39 184.30,310.54 185.00,309.69 185.70,308.84 186.40,308.01 187.10,307.18 187.80,306.35 188.50,305.53 189.20,304.71 189.90,303.90 190.60,303.10 191.30,302.30 192.00,301.51 192.70,300.72 193.40,299.94 194.10,299.17 194.80,298.40 195.50,297.63 196.20,296.88 196.90,296.12 197.60,295.38 198.30,294.63 199.00,293.90 199.70,293.17 200.40,292.44 201.10,291.72 201.80,291.01 202.50,290.30 203.20,289.60 203.90,288.91 204.60,288.21 205.30,287.53 206.00,286.85 206.70,286.18 207.40,285.51 208.10,284.85 208.80,284.19 209.50,283.54 210.20,282.89 210.90,282.25 211.60,281.62 212.30,280.99 213.00,280.37 213.70,279.75 214.40,279.14 215.10,278.53 215.80,277.93 216.50,277.33 217.20,276.75 217.90,276.16 218.60,275.58 219.30,275.01 220.00,274.44 220.70,273.88 221.40,273.33 222.10,272.78 222.80,272.23 223.50,271.70 224.20,271.16 224.90,270.64 225.60,270.11 226.30,269.60 227.00,269.09 227.70,268.58 228.40,268.08 229.10,267.59 229.80,267.10 230.50,266.62 231.20,266.14 231.90,265.67 232.60,265.21 233.30,264.75 234.00,264.29 234.70,263.85 235.40,263.40 236.10,262.97 236.80,262.54 237.50,262.11 238.20,261.69 238.90,261.27 239.60,260.87 240.30,260.46 241.00,260.07 241.70,259.67 242.40,259.29 243.10,258.91 243.80,258.53 244.50,258.16 245.20,257.80 245.90,257.44 246.60,257.09 247.30,256.74 248.00,256.40 248.70,256.06 249.40,255.73 250.10,255.41 250.80,255.09 251.50,254.78 252.20,254.47 252.90,254.17 253.60,253.87 254.30,253.58 255.00,253.30 255.70,253.02 256.40,252.75 257.10,252.48 257.80,252.22 258.50,251.96 259.20,251.71 259.90,251.46 260.60,251.22 261.30,250.99 262.00,250.76 262.70,250.54 263.40,250.32 264.10,250.11 264.80,249.90 265.50,249.70 266.20,249.51 266.90,249.32 267.60,249.14 268.30,248.96 269.00,248.79 269.70,248.62 270.40,248.46 271.10,248.31 271.80,248.16 272.50,248.01 273.20,247.87 273.90,247.74 274.60,247.61 275.30,247.49 276.00,247.38 276.70,247.27 277.40,247.16 278.10,247.06 278.80,246.97 279.50,246.88 280.20,246.80 280.90,246.73 281.60,246.66 282.30,246.59 283.00,246.53 283.70,246.48 284.40,246.43 285.10,246.39 285.80,246.35 286.50,246.32 287.20,246.30 287.90,246.28 288.60,246.26 289.30,246.25 290.00,246.25 290.70,246.25 291.40,246.26 292.10,246.28 292.80,246.30 293.50,246.32 294.20,246.35 294.90,246.39 295.60,246.43 296.30,246.48 297.00,246.53 297.70,246.59 298.40,246.66 299.10,246.73 299.80,246.80 300.50,246.88 301.20,246.97 301.90,247.06 302.60,247.16 303.30,247.27 304.00,247.38 304.70,247.49 305.40,247.61 306.10,247.74 306.80,247.87 307.50,248.01 308.20,248.16 308.90,248.31 309.60,248.46 310.30,248.62 311.00,248.79 311.70,248.96 312.40,249.14 313.10,249.32 313.80,249.51 314.50,249.70 315.20,249.90 315.90,250.11 316.60,250.32 317.30,250.54 318.00,250.76 318.70,250.99 319.40,251.22 320.10,251.46 320.80,251.71 321.50,251.96 322.20,252.22 322.90,252.48 323.60,252.75 324.30,253.02 325.00,253.30 325.70,253.58 326.40,253.87 327.10,254.17 327.80,254.47 328.50,254.78 329.20,255.09 329.90,255.41 330.60,255.73 331.30,256.06 332.00,256.40 332.70,256.74 333.40,257.09 334.10,257.44 334.80,257.80 335.50,258.16 336.20,258.53 336.90,258.91 337.60,259.29 338.30,259.67 339.00,260.07 339.70,260.46 340.40,260.87 341.10,261.27 341.80,261.69 342.50,262.11 343.20,262.54 343.90,262.97 344.60,263.40 345.30,263.85 346.00,264.29 346.70,264.75 347.40,265.21 348.10,265.67 348.80,266.14 349.50,266.62 350.20,267.10 350.90,267.59 351.60,268.08 352.30,268.58 353.00,269.09 353.70,269.60 354.40,270.11 355.10,270.64 355.80,271.16 356.50,271.70 357.20,272.23 357.90,272.78 358.60,273.33 359.30,273.88 360.00,274.44 360.70,275.01 361.40,275.58 362.10,276.16 362.80,276.75 363.50,277.33 364.20,277.93 364.90,278.53 365.60,279.14 366.30,279.75 367.00,280.37 367.70,280.99 368.40,281.62 369.10,282.25 369.80,282.89 370.50,283.54 371.20,284.19 371.90,284.85 372.60,285.51 373.30,286.18 374.00,286.85 374.70,287.53 375.40,288.21 376.10,288.91 376.80,289.60 377.50,290.30 378.20,291.01 378.90,291.72 379.60,292.44 380.30,293.17 381.00,293.90 381.70,294.63 382.40,295.38 383.10,296.12 383.80,296.88 384.50,297.63 385.20,298.40 385.90,299.17 386.60,299.94 387.30,300.72 388.00,301.51 388.70,302.30 389.40,303.10 390.10,303.90 390.80,304.71 391.50,305.53 392.20,306.35 392.90,307.18 393.60,308.01 394.30,308.84 395.00,309.69 395.70,310.54 396.40,311.39 397.10,312.25 397.80,313.12 398.50,313.99 399.20,314.86 399.90,315.75 400.60,316.63 401.30,317.53 402.00,318.43 402.70,319.33 403.40,320.24 404.10,321.16 404.80,322.08 405.50,323.01 406.20,323.94 406.90,324.88 407.60,325.83 408.30,326.78 409.00,327.73 409.70,328.69 410.40,329.66 411.10,330.63 411.80,331.61 412.50,332.60 413.20,333.59 413.90,334.58 414.60,335.58 415.30,336.59 416.00,337.60 416.70,338.62 417.40,339.64 418.10,340.67 418.80,341.71 419.50,342.75 420.20,343.79 420.90,344.84 421.60,345.90 422.30,346.96 423.00,348.03 423.70,349.11 424.40,350.19 425.10,351.27 425.80,352.36 426.50,353.46 427.20,354.56 427.90,355.67 428.60,356.78 429.30,357.90 430.00,359.03 430.70,360.16 431.40,361.29 432.10,362.44 432.80,363.58 433.50,364.74 434.20,365.90 434.90,367.06 435.60,368.23 436.30,369.41 437.00,370.59 437.70,371.77 438.40,372.97 439.10,374.17 439.80,375.37 440.50,376.58 441.20,377.79 441.90,379.01 442.60,380.24 443.30,381.47 444.00,382.71 444.70,383.95 445.40,385.20 446.10,386.46 446.80,387.72 447.50,388.98 448.20,390.26 448.90,391.53 449.60,392.82 450.30,394.10 451.00,395.40 451.70,396.70 452.40,398.00 453.10,399.31 453.80,400.63 454.50,401.95 455.20,403.28 455.90,404.62 456.60,405.95 457.30,407.30 458.00,408.65 458.70,410.01 459.40,411.37 460.10,412.74 460.80,414.11 461.50,415.49 462.20,416.87 462.90,418.26 463.60,419.66 464.30,421.06 465.00,422.47 465.70,423.88 466.40,425.30 467.10,426.72 467.80,428.15 468.50,429.58 469.20,431.03 469.90,432.47 470.60,433.92 471.30,435.38 472.00,436.84 472.70,438.31 473.40,439.79 474.10,441.27 474.80,442.75 475.50,444.25 476.20,445.74 476.90,447.25 477.60,448.75 478.30,450.27 479.00,451.79 479.70,453.31 480.40,454.84 481.10,456.38 481.80,457.92 482.50,459.47 483.20,461.02 483.90,462.58 484.60,464.15 485.30,465.72 486.00,467.29 486.70,468.88 487.40,470.46 488.10,472.06 488.80,473.66 489.50,475.26 490.20,476.87 490.90,478.48 491.60,480.11 492.30,481.73 493.00,483.37 493.70,485.00 494.40,486.65 495.10,488.30 495.80,489.95 496.50,491.61 497.20,493.28 497.90,494.95 498.60,496.63 499.30,498.31 500.00,500.00" fill="none" stroke="#7dd3fc" stroke-width="3"/>
<polyline points="80.00,500.00 80.70,499.42 81.40,498.83 82.10,498.25 82.80,497.67 83.50,497.08 84.20,496.50 84.90,495.92 85.60,495.33 86.30,494.75 87.00,494.17 87.70,493.58 88.40,493.00 89.10,492.42 89.80,491.83 90.50,491.25 91.20,490.67 91.90,490.08 92.60,489.50 93.30,488.92 94.00,488.33 94.70,487.75 95.40,487.17 96.10,486.58 96.80,486.00 97.50,485.42 98.20,484.83 98.90,484.25 99.60,483.67 100.30,483.08 101.00,482.50 101.70,481.92 102.40,481.33 103.10,480.75 103.80,480.17 104.50,479.58 105.20,479.00 105.90,478.42 106.60,477.83 107.30,477.25 108.00,476.67 108.70,476.08 109.40,475.50 110.10,474.92 110.80,474.33 111.50,473.75 112.20,473.17 112.90,472.58 113.60,472.00 114.30,471.42 115.00,470.83 115.70,470.25 116.40,469.67 117.10,469.08 117.80,468.50 118.50,467.92 119.20,467.33 119.90,466.75 120.60,466.17 121.30,465.58 122.00,465.00 122.70,464.42 123.40,463.83 124.10,463.25 124.80,462.67 125.50,462.08 126.20,461.50 126.90,460.92 127.60,460.33 128.30,459.75 129.00,459.17 129.70,458.58 130.40,458.00 131.10,457.42 131.80,456.83 132.50,456.25 133.20,455.67 133.90,455.08 134.60,454.50 135.30,453.92 136.00,453.33 136.70,452.75 137.40,452.17 138.10,451.58 138.80,451.00 139.50,450.42 140.20,449.83 140.90,449.25 141.60,448.67 142.30,448.08 143.00,447.50 143.70,446.92 144.40,446.33 145.10,445.75 145.80,445.17 146.50,444.58 147.20,444.00 147.90,443.42 148.60,442.83 149.30,442.25 150.00,441.67 150.70,441.08 151.40,440.50 152.10,439.92 152.80,439.33 153.50,438.75 154.20,438.17 154.90,437.58 155.60,437.00 156.30,436.42 157.00,435.83 157.70,435.25 158.40,434.67 159.10,434.08 159.80,433.50 160.50,432.92 161.20,432.33 161.90,431.75 162.60,431.17 163.30,430.58 164.00,430.00 164.70,429.42 165.40,428.83 166.10,428.25 166.80,427.67 167.50,427.08 168.20,426.50 168.90,425.92 169.60,425.33 170.30,424.75 171.00,424.17 171.70,423.58 172.40,423.00 173.10,422.42 173.80,421.83 174.50,421.25 175.20,420.67 175.90,420.08 176.60,419.50 177.30,418.92 178.00,418.33 178.70,417.75 179.40,417.17 180.10,416.58 180.80,416.00 181.50,415.42 182.20,414.83 182.90,414.25 183.60,413.67 184.30,413.08 185.00,412.50 185.70,411.92 186.40,411.33 187.10,410.75 187.80,410.17 188.50,409.58 189.20,409.00 189.90,408.42 190.60,407.83 191.30,407.25 192.00,406.67 192.70,406.08 193.40,405.50 194.10,404.92 194.80,404.33 195.50,403.75 196.20,403.17 196.90,402.58 197.60,402.00 198.30,401.42 199.00,400.83 199.70,400.25 200.40,399.67 201.10,399.08 201.80,398.50 202.50,397.92 203.20,397.33 203.90,396.75 204.60,396.17 205.30,395.58 206.00,395.00 206.70,394.42 207.40,393.83 208.10,393.25 208.80,392.67 209.50,392.08 210.20,391.50 210.90,390.92 211.60,390.33 212.30,389.75 213.00,389.17 213.70,388.58 214.40,388.00 215.10,387.42 215.80,386.83 216.50,386.25 217.20,385.67 217.90,385.08 218.60,384.50 219.30,383.92 220.00,383.33 220.70,382.75 221.40,382.17 222.10,381.58 222.80,381.00 223.50,380.42 224.20,379.83 224.90,379.25 225.60,378.67 226.30,378.08 227.00,377.50 227.70,376.92 228.40,376.33 229.10,375.75 229.80,375.17 230.50,374.58 231.20,374.00 231.90,373.42 232.60,372.83 233.30,372.25 234.00,371.67 234.70,371.08 235.40,370.50 236.10,369.92 236.80,369.33 237.50,368.75 238.20,368.17 238.90,367.58 239.60,367.00 240.30,366.42 241.00,365.83 241.70,365.25 242.40,364.67 243.10,364.08 243.80,363.50 244.50,362.92 245.20,362.33 245.90,361.75 246.60,361.17 247.30,360.58 248.00,360.00 248.70,359.42 249.40,358.83 250.10,358.25 250.80,357.67 251.50,357.08 252.20,356.50 252.90,355.92 253.60,355.33 254.30,354.75 255.00,354.17 255.70,353.58 256.40,353.00 257.10,352.42 257.80,351.83 258.50,351.25 259.20,350.67 259.90,350.08 260.60,349.50 261.30,348.92 262.00,348.33 262.70,347.75 263.40,347.17 264.10,346.58 264.80,346.00 265.50,345.42 266.20,344.83 266.90,344.25 267.60,343.67 268.30,343.08 269.00,342.50 269.70,341.92 270.40,341.33 271.10,340.75 271.80,340.17 272.50,339.58 273.20,339.00 273.90,338.42 274.60,337.83 275.30,337.25 276.00,336.67 276.70,336.08 277.40,335.50 278.10,334.92 278.80,334.33 279.50,333.75 280.20,333.17 280.90,332.58 281.60,332.00 282.30,331.42 283.00,330.83 283.70,330.25 284.40,329.67 285.10,329.08 285.80,328.50 286.50,327.92 287.20,327.33 287.90,326.75 288.60,326.17 289.30,325.58 290.00,325.00 290.70,324.42 291.40,323.83 292.10,323.25 292.80,322.67 293.50,322.08 294.20,321.50 294.90,320.92 295.60,320.33 296.30,319.75 297.00,319.17 297.70,318.58 298.40,318.00 299.10,317.42 299.80,316.83 300.50,316.25 301.20,315.67 301.90,315.08 302.60,314.50 303.30,313.92 304.00,313.33 304.70,312.75 305.40,312.17 306.10,311.58 306.80,311.00 307.50,310.42 308.20,309.83 308.90,309.25 309.60,308.67 310.30,308.08 311.00,307.50 311.70,306.92 312.40,306.33 313.10,305.75 313.80,305.17 314.50,304.58 315.20,304.00 315.90,303.42 316.60,302.83 317.30,302.25 318.00,301.67 318.70,301.08 319.40,300.50 320.10,299.92 320.80,299.33 321.50,298.75 322.20,298.17 322.90,297.58 323.60,297.00 324.30,296.42 325.00,295.83 325.70,295.25 326.40,294.67 327.10,294.08 327.80,293.50 328.50,292.92 329.20,292.33 329.90,291.75 330.60,291.17 331.30,290.58 332.00,290.00 332.70,289.42 333.40,288.83 334.10,288.25 334.80,287.67 335.50,287.08 336.20,286.50 336.90,285.92 337.60,285.33 338.30,284.75 339.00,284.17 339.70,283.58 340.40,283.00 341.10,282.42 341.80,281.83 342.50,281.25 343.20,280.67 343.90,280.08 344.60,279.50 345.30,278.92 346.00,278.33 346.70,277.75 347.40,277.17 348.10,276.58 348.80,276.00 349.50,275.42 350.20,274.83 350.90,274.25 351.60,273.67 352.30,273.08 353.00,272.50 353.70,271.92 354.40,271.33 355.10,270.75 355.80,270.17 356.50,269.58 357.20,269.00 357.90,268.42 358.60,267.83 359.30,267.25 360.00,266.67 360.70,266.08 361.40,265.50 362.10,264.92 362.80,264.33 363.50,263.75 364.20,263.17 364.90,262.58 365.60,262.00 366.30,261.42 367.00,260.83 367.70,260.25 368.40,259.67 369.10,259.08 369.80,258.50 370.50,257.92 371.20,257.33 371.90,256.75 372.60,256.17 373.30,255.58 374.00,255.00 374.70,254.42 375.40,253.83 376.10,253.25 376.80,252.67 377.50,252.08 378.20,251.50 378.90,250.92 379.60,250.33 380.30,249.75 381.00,249.17 381.70,248.58 382.40,248.00 383.10,247.42 383.80,246.83 384.50,246.25 385.20,245.67 385.90,245.08 386.60,244.50 387.30,243.92 388.00,243.33 388.70,242.75 389.40,242.17 390.10,241.58 390.80,241.00 391.50,240.42 392.20,239.83 392.90,239.25 393.60,238.67 394.30,238.08 395.00,237.50 395.70,236.92 396.40,236.33 397.10,235.75 397.80,235.17 398.50,234.58 399.20,234.00 399.90,233.42 400.60,232.83 401.30,232.25 402.00,231.67 402.70,231.08 403.40,230.50 404.10,229.92 404.80,229.33 405.50,228.75 406.20,228.17 406.90,227.58 407.60,227.00 408.30,226.42 409.00,225.83 409.70,225.25 410.40,224.67 411.10,224.08 411.80,223.50 412.50,222.92 413.20,222.33 413.90,221.75 414.60,221.17 415.30,220.58 416.00,220.00 416.70,219.42 417.40,218.83 418.10,218.25 418.80,217.67 419.50,217.08 420.20,216.50 420.90,215.92 421.60,215.33 422.30,214.75 423.00,214.17 423.70,213.58 424.40,213.00 425.10,212.42 425.80,211.83 426.50,211.25 427.20,210.67 427.90,210.08 428.60,209.50 429.30,208.92 430.00,208.33 430.70,207.75 431.40,207.17 432.10,206.58 432.80,206.00 433.50,205.42 434.20,204.83 434.90,204.25 435.60,203.67 436.30,203.08 437.00,202.50 437.70,201.92 438.40,201.33 439.10,200.75 439.80,200.17 440.50,199.58 441.20,199.00 441.90,198.42 442.60,197.83 443.30,197.25 444.00,196.67 444.70,196.08 445.40,195.50 446.10,194.92 446.80,194.33 447.50,193.75 448.20,193.17 448.90,192.58 449.60,192.00 450.30,191.42 451.00,190.83 451.70,190.25 452.40,189.67 453.10,189.08 453.80,188.50 454.50,187.92 455.20,187.33 455.90,186.75 456.60,186.17 457.30,185.58 458.00,185.00 458.70,184.42 459.40,183.83 460.10,183.25 460.80,182.67 461.50,182.08 462.20,181.50 462.90,180.92 463.60,180.33 464.30,179.75 465.00,179.17 465.70,178.58 466.40,178.00 467.10,177.42 467.80,176.83 468.50,176.25 469.20,175.67 469.90,175.08 470.60,174.50 471.30,173.92 472.00,173.33 472.70,172.75 473.40,172.17 474.10,171.58 474.80,171.00 475.50,170.42 476.20,169.83 476.90,169.25 477.60,168.67 478.30,168.08 479.00,167.50 479.70,166.92 480.40,166.33 481.10,165.75 481.80,165.17 482.50,164.58 483.20,164.00 483.90,163.42 484.60,162.83 485.30,162.25 486.00,161.67 486.70,161.08 487.40,160.50 488.10,159.92 488.80,159.33 489.50,158.75 490.20,158.17 490.90,157.58 491.60,157.00 492.30,156.42 493.00,155.83 493.70,155.25 494.40,154.67 495.10,154.08 495.80,153.50 496.50,152.92 497.20,152.33 497.90,151.75 498.60,151.17 499.30,150.58 500.00,150.00" fill="none" stroke="#94a3b8" stroke-width="2" stroke-dasharray="8 8"/>
<polyline points="168.20,426.50 168.20,331.61 282.07,331.61 282.07,331.61 282.07,246.61 384.07,246.61 384.07,246.61 384.07,297.16 323.40,297.16 323.40,297.16 323.40,252.67 376.80,252.67 376.80,252.67 376.80,289.60 332.48,289.60 332.48,289.60 332.48,256.64 372.04,256.64 372.04,256.64 372.04,284.98 338.03,284.98 338.03,284.98 338.03,259.52 368.57,259.52 368.57,259.52 368.57,281.77 341.87,281.77 341.87,281.77 341.87,261.73 365.92,261.73 365.92,261.73 365.92,279.42 344.70,279.42 344.70,279.42 344.70,263.47 363.84,263.47 363.84,263.47 363.84,277.62 346.85,277.62 346.85,277.62 346.85,264.85 362.18,264.85 362.18,264.85 362.18,276.23 348.53,276.23 348.53,276.23 348.53,265.96 360.85,265.96 360.85,265.96 360.85,275.13 349.84,275.13 349.84,275.13 349.84,266.85 359.78,266.85 359.78,266.85 359.78,274.26 350.88,274.26 350.88,274.26 350.88,267.58 358.91,267.58 358.91,267.58 358.91,273.57 351.72,273.57 351.72,273.57 351.72,268.17 358.20,268.17 358.20,268.17 358.20,273.01 352.38,273.01 352.38,273.01 352.38,268.64 357.63,268.64 357.63,268.64 357.63,272.57 352.92,272.57 352.92,272.57 352.92,269.03 357.16,269.03 357.16,269.03 357.16,272.21 353.35,272.21 353.35,272.21 353.35,269.34 356.79,269.34 356.79,269.34 356.79,271.92 353.70,271.92 353.70,271.92 353.70,269.60 356.48,269.60 356.48,269.60 356.48,271.68 353.98,271.68 353.98,271.68 353.98,269.81 356.23,269.81 356.23,269.81 356.23,271.49 354.21,271.49 354.21,271.49 354.21,269.97 356.03,269.97 356.03,269.97 356.03,271.34 354.39,271.34 354.39,271.34 354.39,270.11 355.87,270.11 355.87,270.11 355.87,271.22 354.54,271.22 354.54,271.22 354.54,270.22 355.74,270.22 355.74,270.22 355.74,271.12 354.66,271.12 354.66,271.12 354.66,270.31 355.63,270.31 355.63,270.31 355.63,271.03 354.76,271.03 354.76,271.03 354.76,270.38 355.54,270.38" fill="none" stroke="#f97316" stroke-width="2.2" stroke-linejoin="round"/>
<rect x="530" y="150" width="420" height="350" class="panel"/>
<text x="530.0" y="132.0" class="label" text-anchor="start">r = 3.2</text>
<text x="640.0" y="132.0" class="small" text-anchor="start">period-two orbit</text>
<line x1="530.0" y1="150.0" x2="530.0" y2="500.0" class="grid"/>
<line x1="530.0" y1="500.0" x2="950.0" y2="500.0" class="grid"/>
<line x1="635.0" y1="150.0" x2="635.0" y2="500.0" class="grid"/>
<line x1="530.0" y1="412.5" x2="950.0" y2="412.5" class="grid"/>
<line x1="740.0" y1="150.0" x2="740.0" y2="500.0" class="grid"/>
<line x1="530.0" y1="325.0" x2="950.0" y2="325.0" class="grid"/>
<line x1="845.0" y1="150.0" x2="845.0" y2="500.0" class="grid"/>
<line x1="530.0" y1="237.5" x2="950.0" y2="237.5" class="grid"/>
<line x1="950.0" y1="150.0" x2="950.0" y2="500.0" class="grid"/>
<line x1="530.0" y1="150.0" x2="950.0" y2="150.0" class="grid"/>
<line x1="530.0" y1="500.0" x2="950.0" y2="500.0" class="axis"/>
<line x1="530.0" y1="150.0" x2="530.0" y2="500.0" class="axis"/>
<polyline points="530.00,500.00 530.70,498.14 531.40,496.28 532.10,494.43 532.80,492.58 533.50,490.74 534.20,488.91 534.90,487.09 535.60,485.27 536.30,483.45 537.00,481.64 537.70,479.84 538.40,478.05 539.10,476.26 539.80,474.48 540.50,472.70 541.20,470.93 541.90,469.17 542.60,467.41 543.30,465.66 544.00,463.91 544.70,462.17 545.40,460.44 546.10,458.71 546.80,456.99 547.50,455.28 548.20,453.57 548.90,451.87 549.60,450.17 550.30,448.48 551.00,446.80 551.70,445.12 552.40,443.45 553.10,441.79 553.80,440.13 554.50,438.48 555.20,436.83 555.90,435.19 556.60,433.56 557.30,431.93 558.00,430.31 558.70,428.70 559.40,427.09 560.10,425.49 560.80,423.89 561.50,422.30 562.20,420.72 562.90,419.14 563.60,417.57 564.30,416.00 565.00,414.44 565.70,412.89 566.40,411.35 567.10,409.81 567.80,408.27 568.50,406.74 569.20,405.22 569.90,403.71 570.60,402.20 571.30,400.70 572.00,399.20 572.70,397.71 573.40,396.23 574.10,394.75 574.80,393.28 575.50,391.81 576.20,390.35 576.90,388.90 577.60,387.45 578.30,386.01 579.00,384.58 579.70,383.15 580.40,381.73 581.10,380.31 581.80,378.90 582.50,377.50 583.20,376.10 583.90,374.71 584.60,373.33 585.30,371.95 586.00,370.58 586.70,369.21 587.40,367.85 588.10,366.50 588.80,365.15 589.50,363.81 590.20,362.48 590.90,361.15 591.60,359.83 592.30,358.51 593.00,357.20 593.70,355.90 594.40,354.60 595.10,353.31 595.80,352.02 596.50,350.74 597.20,349.47 597.90,348.21 598.60,346.95 599.30,345.69 600.00,344.44 600.70,343.20 601.40,341.97 602.10,340.74 602.80,339.52 603.50,338.30 604.20,337.09 604.90,335.89 605.60,334.69 606.30,333.50 607.00,332.31 607.70,331.13 608.40,329.96 609.10,328.79 609.80,327.63 610.50,326.48 611.20,325.33 611.90,324.19 612.60,323.05 613.30,321.92 614.00,320.80 614.70,319.68 615.40,318.57 616.10,317.47 616.80,316.37 617.50,315.28 618.20,314.19 618.90,313.11 619.60,312.04 620.30,310.97 621.00,309.91 621.70,308.86 622.40,307.81 623.10,306.77 623.80,305.73 624.50,304.70 625.20,303.68 625.90,302.66 626.60,301.65 627.30,300.64 628.00,299.64 628.70,298.65 629.40,297.67 630.10,296.69 630.80,295.71 631.50,294.74 632.20,293.78 632.90,292.83 633.60,291.88 634.30,290.94 635.00,290.00 635.70,289.07 636.40,288.15 637.10,287.23 637.80,286.32 638.50,285.41 639.20,284.51 639.90,283.62 640.60,282.73 641.30,281.85 642.00,280.98 642.70,280.11 643.40,279.25 644.10,278.39 644.80,277.54 645.50,276.70 646.20,275.86 646.90,275.03 647.60,274.21 648.30,273.39 649.00,272.58 649.70,271.77 650.40,270.97 651.10,270.18 651.80,269.39 652.50,268.61 653.20,267.84 653.90,267.07 654.60,266.31 655.30,265.55 656.00,264.80 656.70,264.06 657.40,263.32 658.10,262.59 658.80,261.86 659.50,261.14 660.20,260.43 660.90,259.73 661.60,259.03 662.30,258.33 663.00,257.64 663.70,256.96 664.40,256.29 665.10,255.62 665.80,254.96 666.50,254.30 667.20,253.65 667.90,253.01 668.60,252.37 669.30,251.74 670.00,251.11 670.70,250.49 671.40,249.88 672.10,249.27 672.80,248.67 673.50,248.08 674.20,247.49 674.90,246.91 675.60,246.33 676.30,245.76 677.00,245.20 677.70,244.64 678.40,244.09 679.10,243.55 679.80,243.01 680.50,242.48 681.20,241.95 681.90,241.43 682.60,240.92 683.30,240.41 684.00,239.91 684.70,239.42 685.40,238.93 686.10,238.45 686.80,237.97 687.50,237.50 688.20,237.04 688.90,236.58 689.60,236.13 690.30,235.68 691.00,235.24 691.70,234.81 692.40,234.39 693.10,233.97 693.80,233.55 694.50,233.14 695.20,232.74 695.90,232.35 696.60,231.96 697.30,231.58 698.00,231.20 698.70,230.83 699.40,230.47 700.10,230.11 700.80,229.76 701.50,229.41 702.20,229.07 702.90,228.74 703.60,228.41 704.30,228.09 705.00,227.78 705.70,227.47 706.40,227.17 707.10,226.87 707.80,226.58 708.50,226.30 709.20,226.02 709.90,225.75 710.60,225.49 711.30,225.23 712.00,224.98 712.70,224.73 713.40,224.49 714.10,224.26 714.80,224.03 715.50,223.81 716.20,223.60 716.90,223.39 717.60,223.19 718.30,222.99 719.00,222.80 719.70,222.62 720.40,222.44 721.10,222.27 721.80,222.10 722.50,221.94 723.20,221.79 723.90,221.65 724.60,221.51 725.30,221.37 726.00,221.24 726.70,221.12 727.40,221.01 728.10,220.90 728.80,220.80 729.50,220.70 730.20,220.61 730.90,220.53 731.60,220.45 732.30,220.38 733.00,220.31 733.70,220.25 734.40,220.20 735.10,220.15 735.80,220.11 736.50,220.08 737.20,220.05 737.90,220.03 738.60,220.01 739.30,220.00 740.00,220.00 740.70,220.00 741.40,220.01 742.10,220.03 742.80,220.05 743.50,220.08 744.20,220.11 744.90,220.15 745.60,220.20 746.30,220.25 747.00,220.31 747.70,220.38 748.40,220.45 749.10,220.53 749.80,220.61 750.50,220.70 751.20,220.80 751.90,220.90 752.60,221.01 753.30,221.12 754.00,221.24 754.70,221.37 755.40,221.51 756.10,221.65 756.80,221.79 757.50,221.94 758.20,222.10 758.90,222.27 759.60,222.44 760.30,222.62 761.00,222.80 761.70,222.99 762.40,223.19 763.10,223.39 763.80,223.60 764.50,223.81 765.20,224.03 765.90,224.26 766.60,224.49 767.30,224.73 768.00,224.98 768.70,225.23 769.40,225.49 770.10,225.75 770.80,226.02 771.50,226.30 772.20,226.58 772.90,226.87 773.60,227.17 774.30,227.47 775.00,227.78 775.70,228.09 776.40,228.41 777.10,228.74 777.80,229.07 778.50,229.41 779.20,229.76 779.90,230.11 780.60,230.47 781.30,230.83 782.00,231.20 782.70,231.58 783.40,231.96 784.10,232.35 784.80,232.74 785.50,233.14 786.20,233.55 786.90,233.97 787.60,234.39 788.30,234.81 789.00,235.24 789.70,235.68 790.40,236.13 791.10,236.58 791.80,237.04 792.50,237.50 793.20,237.97 793.90,238.45 794.60,238.93 795.30,239.42 796.00,239.91 796.70,240.41 797.40,240.92 798.10,241.43 798.80,241.95 799.50,242.48 800.20,243.01 800.90,243.55 801.60,244.09 802.30,244.64 803.00,245.20 803.70,245.76 804.40,246.33 805.10,246.91 805.80,247.49 806.50,248.08 807.20,248.67 807.90,249.27 808.60,249.88 809.30,250.49 810.00,251.11 810.70,251.74 811.40,252.37 812.10,253.01 812.80,253.65 813.50,254.30 814.20,254.96 814.90,255.62 815.60,256.29 816.30,256.96 817.00,257.64 817.70,258.33 818.40,259.03 819.10,259.73 819.80,260.43 820.50,261.14 821.20,261.86 821.90,262.59 822.60,263.32 823.30,264.06 824.00,264.80 824.70,265.55 825.40,266.31 826.10,267.07 826.80,267.84 827.50,268.61 828.20,269.39 828.90,270.18 829.60,270.97 830.30,271.77 831.00,272.58 831.70,273.39 832.40,274.21 833.10,275.03 833.80,275.86 834.50,276.70 835.20,277.54 835.90,278.39 836.60,279.25 837.30,280.11 838.00,280.98 838.70,281.85 839.40,282.73 840.10,283.62 840.80,284.51 841.50,285.41 842.20,286.32 842.90,287.23 843.60,288.15 844.30,289.07 845.00,290.00 845.70,290.94 846.40,291.88 847.10,292.83 847.80,293.78 848.50,294.74 849.20,295.71 849.90,296.69 850.60,297.67 851.30,298.65 852.00,299.64 852.70,300.64 853.40,301.65 854.10,302.66 854.80,303.68 855.50,304.70 856.20,305.73 856.90,306.77 857.60,307.81 858.30,308.86 859.00,309.91 859.70,310.97 860.40,312.04 861.10,313.11 861.80,314.19 862.50,315.28 863.20,316.37 863.90,317.47 864.60,318.57 865.30,319.68 866.00,320.80 866.70,321.92 867.40,323.05 868.10,324.19 868.80,325.33 869.50,326.48 870.20,327.63 870.90,328.79 871.60,329.96 872.30,331.13 873.00,332.31 873.70,333.50 874.40,334.69 875.10,335.89 875.80,337.09 876.50,338.30 877.20,339.52 877.90,340.74 878.60,341.97 879.30,343.20 880.00,344.44 880.70,345.69 881.40,346.95 882.10,348.21 882.80,349.47 883.50,350.74 884.20,352.02 884.90,353.31 885.60,354.60 886.30,355.90 887.00,357.20 887.70,358.51 888.40,359.83 889.10,361.15 889.80,362.48 890.50,363.81 891.20,365.15 891.90,366.50 892.60,367.85 893.30,369.21 894.00,370.58 894.70,371.95 895.40,373.33 896.10,374.71 896.80,376.10 897.50,377.50 898.20,378.90 898.90,380.31 899.60,381.73 900.30,383.15 901.00,384.58 901.70,386.01 902.40,387.45 903.10,388.90 903.80,390.35 904.50,391.81 905.20,393.28 905.90,394.75 906.60,396.23 907.30,397.71 908.00,399.20 908.70,400.70 909.40,402.20 910.10,403.71 910.80,405.22 911.50,406.74 912.20,408.27 912.90,409.81 913.60,411.35 914.30,412.89 915.00,414.44 915.70,416.00 916.40,417.57 917.10,419.14 917.80,420.72 918.50,422.30 919.20,423.89 919.90,425.49 920.60,427.09 921.30,428.70 922.00,430.31 922.70,431.93 923.40,433.56 924.10,435.19 924.80,436.83 925.50,438.48 926.20,440.13 926.90,441.79 927.60,443.45 928.30,445.12 929.00,446.80 929.70,448.48 930.40,450.17 931.10,451.87 931.80,453.57 932.50,455.28 933.20,456.99 933.90,458.71 934.60,460.44 935.30,462.17 936.00,463.91 936.70,465.66 937.40,467.41 938.10,469.17 938.80,470.93 939.50,472.70 940.20,474.48 940.90,476.26 941.60,478.05 942.30,479.84 943.00,481.64 943.70,483.45 944.40,485.27 945.10,487.09 945.80,488.91 946.50,490.74 947.20,492.58 947.90,494.43 948.60,496.28 949.30,498.14 950.00,500.00" fill="none" stroke="#7dd3fc" stroke-width="3"/>
<polyline points="530.00,500.00 530.70,499.42 531.40,498.83 532.10,498.25 532.80,497.67 533.50,497.08 534.20,496.50 534.90,495.92 535.60,495.33 536.30,494.75 537.00,494.17 537.70,493.58 538.40,493.00 539.10,492.42 539.80,491.83 540.50,491.25 541.20,490.67 541.90,490.08 542.60,489.50 543.30,488.92 544.00,488.33 544.70,487.75 545.40,487.17 546.10,486.58 546.80,486.00 547.50,485.42 548.20,484.83 548.90,484.25 549.60,483.67 550.30,483.08 551.00,482.50 551.70,481.92 552.40,481.33 553.10,480.75 553.80,480.17 554.50,479.58 555.20,479.00 555.90,478.42 556.60,477.83 557.30,477.25 558.00,476.67 558.70,476.08 559.40,475.50 560.10,474.92 560.80,474.33 561.50,473.75 562.20,473.17 562.90,472.58 563.60,472.00 564.30,471.42 565.00,470.83 565.70,470.25 566.40,469.67 567.10,469.08 567.80,468.50 568.50,467.92 569.20,467.33 569.90,466.75 570.60,466.17 571.30,465.58 572.00,465.00 572.70,464.42 573.40,463.83 574.10,463.25 574.80,462.67 575.50,462.08 576.20,461.50 576.90,460.92 577.60,460.33 578.30,459.75 579.00,459.17 579.70,458.58 580.40,458.00 581.10,457.42 581.80,456.83 582.50,456.25 583.20,455.67 583.90,455.08 584.60,454.50 585.30,453.92 586.00,453.33 586.70,452.75 587.40,452.17 588.10,451.58 588.80,451.00 589.50,450.42 590.20,449.83 590.90,449.25 591.60,448.67 592.30,448.08 593.00,447.50 593.70,446.92 594.40,446.33 595.10,445.75 595.80,445.17 596.50,444.58 597.20,444.00 597.90,443.42 598.60,442.83 599.30,442.25 600.00,441.67 600.70,441.08 601.40,440.50 602.10,439.92 602.80,439.33 603.50,438.75 604.20,438.17 604.90,437.58 605.60,437.00 606.30,436.42 607.00,435.83 607.70,435.25 608.40,434.67 609.10,434.08 609.80,433.50 610.50,432.92 611.20,432.33 611.90,431.75 612.60,431.17 613.30,430.58 614.00,430.00 614.70,429.42 615.40,428.83 616.10,428.25 616.80,427.67 617.50,427.08 618.20,426.50 618.90,425.92 619.60,425.33 620.30,424.75 621.00,424.17 621.70,423.58 622.40,423.00 623.10,422.42 623.80,421.83 624.50,421.25 625.20,420.67 625.90,420.08 626.60,419.50 627.30,418.92 628.00,418.33 628.70,417.75 629.40,417.17 630.10,416.58 630.80,416.00 631.50,415.42 632.20,414.83 632.90,414.25 633.60,413.67 634.30,413.08 635.00,412.50 635.70,411.92 636.40,411.33 637.10,410.75 637.80,410.17 638.50,409.58 639.20,409.00 639.90,408.42 640.60,407.83 641.30,407.25 642.00,406.67 642.70,406.08 643.40,405.50 644.10,404.92 644.80,404.33 645.50,403.75 646.20,403.17 646.90,402.58 647.60,402.00 648.30,401.42 649.00,400.83 649.70,400.25 650.40,399.67 651.10,399.08 651.80,398.50 652.50,397.92 653.20,397.33 653.90,396.75 654.60,396.17 655.30,395.58 656.00,395.00 656.70,394.42 657.40,393.83 658.10,393.25 658.80,392.67 659.50,392.08 660.20,391.50 660.90,390.92 661.60,390.33 662.30,389.75 663.00,389.17 663.70,388.58 664.40,388.00 665.10,387.42 665.80,386.83 666.50,386.25 667.20,385.67 667.90,385.08 668.60,384.50 669.30,383.92 670.00,383.33 670.70,382.75 671.40,382.17 672.10,381.58 672.80,381.00 673.50,380.42 674.20,379.83 674.90,379.25 675.60,378.67 676.30,378.08 677.00,377.50 677.70,376.92 678.40,376.33 679.10,375.75 679.80,375.17 680.50,374.58 681.20,374.00 681.90,373.42 682.60,372.83 683.30,372.25 684.00,371.67 684.70,371.08 685.40,370.50 686.10,369.92 686.80,369.33 687.50,368.75 688.20,368.17 688.90,367.58 689.60,367.00 690.30,366.42 691.00,365.83 691.70,365.25 692.40,364.67 693.10,364.08 693.80,363.50 694.50,362.92 695.20,362.33 695.90,361.75 696.60,361.17 697.30,360.58 698.00,360.00 698.70,359.42 699.40,358.83 700.10,358.25 700.80,357.67 701.50,357.08 702.20,356.50 702.90,355.92 703.60,355.33 704.30,354.75 705.00,354.17 705.70,353.58 706.40,353.00 707.10,352.42 707.80,351.83 708.50,351.25 709.20,350.67 709.90,350.08 710.60,349.50 711.30,348.92 712.00,348.33 712.70,347.75 713.40,347.17 714.10,346.58 714.80,346.00 715.50,345.42 716.20,344.83 716.90,344.25 717.60,343.67 718.30,343.08 719.00,342.50 719.70,341.92 720.40,341.33 721.10,340.75 721.80,340.17 722.50,339.58 723.20,339.00 723.90,338.42 724.60,337.83 725.30,337.25 726.00,336.67 726.70,336.08 727.40,335.50 728.10,334.92 728.80,334.33 729.50,333.75 730.20,333.17 730.90,332.58 731.60,332.00 732.30,331.42 733.00,330.83 733.70,330.25 734.40,329.67 735.10,329.08 735.80,328.50 736.50,327.92 737.20,327.33 737.90,326.75 738.60,326.17 739.30,325.58 740.00,325.00 740.70,324.42 741.40,323.83 742.10,323.25 742.80,322.67 743.50,322.08 744.20,321.50 744.90,320.92 745.60,320.33 746.30,319.75 747.00,319.17 747.70,318.58 748.40,318.00 749.10,317.42 749.80,316.83 750.50,316.25 751.20,315.67 751.90,315.08 752.60,314.50 753.30,313.92 754.00,313.33 754.70,312.75 755.40,312.17 756.10,311.58 756.80,311.00 757.50,310.42 758.20,309.83 758.90,309.25 759.60,308.67 760.30,308.08 761.00,307.50 761.70,306.92 762.40,306.33 763.10,305.75 763.80,305.17 764.50,304.58 765.20,304.00 765.90,303.42 766.60,302.83 767.30,302.25 768.00,301.67 768.70,301.08 769.40,300.50 770.10,299.92 770.80,299.33 771.50,298.75 772.20,298.17 772.90,297.58 773.60,297.00 774.30,296.42 775.00,295.83 775.70,295.25 776.40,294.67 777.10,294.08 777.80,293.50 778.50,292.92 779.20,292.33 779.90,291.75 780.60,291.17 781.30,290.58 782.00,290.00 782.70,289.42 783.40,288.83 784.10,288.25 784.80,287.67 785.50,287.08 786.20,286.50 786.90,285.92 787.60,285.33 788.30,284.75 789.00,284.17 789.70,283.58 790.40,283.00 791.10,282.42 791.80,281.83 792.50,281.25 793.20,280.67 793.90,280.08 794.60,279.50 795.30,278.92 796.00,278.33 796.70,277.75 797.40,277.17 798.10,276.58 798.80,276.00 799.50,275.42 800.20,274.83 800.90,274.25 801.60,273.67 802.30,273.08 803.00,272.50 803.70,271.92 804.40,271.33 805.10,270.75 805.80,270.17 806.50,269.58 807.20,269.00 807.90,268.42 808.60,267.83 809.30,267.25 810.00,266.67 810.70,266.08 811.40,265.50 812.10,264.92 812.80,264.33 813.50,263.75 814.20,263.17 814.90,262.58 815.60,262.00 816.30,261.42 817.00,260.83 817.70,260.25 818.40,259.67 819.10,259.08 819.80,258.50 820.50,257.92 821.20,257.33 821.90,256.75 822.60,256.17 823.30,255.58 824.00,255.00 824.70,254.42 825.40,253.83 826.10,253.25 826.80,252.67 827.50,252.08 828.20,251.50 828.90,250.92 829.60,250.33 830.30,249.75 831.00,249.17 831.70,248.58 832.40,248.00 833.10,247.42 833.80,246.83 834.50,246.25 835.20,245.67 835.90,245.08 836.60,244.50 837.30,243.92 838.00,243.33 838.70,242.75 839.40,242.17 840.10,241.58 840.80,241.00 841.50,240.42 842.20,239.83 842.90,239.25 843.60,238.67 844.30,238.08 845.00,237.50 845.70,236.92 846.40,236.33 847.10,235.75 847.80,235.17 848.50,234.58 849.20,234.00 849.90,233.42 850.60,232.83 851.30,232.25 852.00,231.67 852.70,231.08 853.40,230.50 854.10,229.92 854.80,229.33 855.50,228.75 856.20,228.17 856.90,227.58 857.60,227.00 858.30,226.42 859.00,225.83 859.70,225.25 860.40,224.67 861.10,224.08 861.80,223.50 862.50,222.92 863.20,222.33 863.90,221.75 864.60,221.17 865.30,220.58 866.00,220.00 866.70,219.42 867.40,218.83 868.10,218.25 868.80,217.67 869.50,217.08 870.20,216.50 870.90,215.92 871.60,215.33 872.30,214.75 873.00,214.17 873.70,213.58 874.40,213.00 875.10,212.42 875.80,211.83 876.50,211.25 877.20,210.67 877.90,210.08 878.60,209.50 879.30,208.92 880.00,208.33 880.70,207.75 881.40,207.17 882.10,206.58 882.80,206.00 883.50,205.42 884.20,204.83 884.90,204.25 885.60,203.67 886.30,203.08 887.00,202.50 887.70,201.92 888.40,201.33 889.10,200.75 889.80,200.17 890.50,199.58 891.20,199.00 891.90,198.42 892.60,197.83 893.30,197.25 894.00,196.67 894.70,196.08 895.40,195.50 896.10,194.92 896.80,194.33 897.50,193.75 898.20,193.17 898.90,192.58 899.60,192.00 900.30,191.42 901.00,190.83 901.70,190.25 902.40,189.67 903.10,189.08 903.80,188.50 904.50,187.92 905.20,187.33 905.90,186.75 906.60,186.17 907.30,185.58 908.00,185.00 908.70,184.42 909.40,183.83 910.10,183.25 910.80,182.67 911.50,182.08 912.20,181.50 912.90,180.92 913.60,180.33 914.30,179.75 915.00,179.17 915.70,178.58 916.40,178.00 917.10,177.42 917.80,176.83 918.50,176.25 919.20,175.67 919.90,175.08 920.60,174.50 921.30,173.92 922.00,173.33 922.70,172.75 923.40,172.17 924.10,171.58 924.80,171.00 925.50,170.42 926.20,169.83 926.90,169.25 927.60,168.67 928.30,168.08 929.00,167.50 929.70,166.92 930.40,166.33 931.10,165.75 931.80,165.17 932.50,164.58 933.20,164.00 933.90,163.42 934.60,162.83 935.30,162.25 936.00,161.67 936.70,161.08 937.40,160.50 938.10,159.92 938.80,159.33 939.50,158.75 940.20,158.17 940.90,157.58 941.60,157.00 942.30,156.42 943.00,155.83 943.70,155.25 944.40,154.67 945.10,154.08 945.80,153.50 946.50,152.92 947.20,152.33 947.90,151.75 948.60,151.17 949.30,150.58 950.00,150.00" fill="none" stroke="#94a3b8" stroke-width="2" stroke-dasharray="8 8"/>
<polyline points="618.20,426.50 618.20,314.19 752.97,314.19 752.97,314.19 752.97,221.07 864.72,221.07 864.72,221.07 864.72,318.76 747.49,318.76 747.49,318.76 747.49,220.36 865.57,220.36 865.57,220.36 865.57,320.12 745.86,320.12 745.86,320.12 745.86,220.22 865.74,220.22 865.74,220.22 865.74,320.38 745.54,320.38 745.54,320.38 745.54,220.19 865.77,220.19 865.77,220.19 865.77,320.43 745.49,320.43 745.49,320.43 745.49,220.19 865.77,220.19 865.77,220.19 865.77,320.43 745.48,320.43 745.48,320.43 745.48,220.19 865.77,220.19 865.77,220.19 865.77,320.43 745.48,320.43 745.48,320.43 745.48,220.19 865.77,220.19 865.77,220.19 865.77,320.43 745.48,320.43 745.48,320.43 745.48,220.19 865.77,220.19 865.77,220.19 865.77,320.43 745.48,320.43 745.48,320.43 745.48,220.19 865.77,220.19 865.77,220.19 865.77,320.43 745.48,320.43 745.48,320.43 745.48,220.19 865.77,220.19 865.77,220.19 865.77,320.43 745.48,320.43 745.48,320.43 745.48,220.19 865.77,220.19 865.77,220.19 865.77,320.43 745.48,320.43 745.48,320.43 745.48,220.19 865.77,220.19 865.77,220.19 865.77,320.43 745.48,320.43 745.48,320.43 745.48,220.19 865.77,220.19 865.77,220.19 865.77,320.43 745.48,320.43 745.48,320.43 745.48,220.19 865.77,220.19 865.77,220.19 865.77,320.43 745.48,320.43 745.48,320.43 745.48,220.19 865.77,220.19 865.77,220.19 865.77,320.43 745.48,320.43 745.48,320.43 745.48,220.19 865.77,220.19 865.77,220.19 865.77,320.43 745.48,320.43 745.48,320.43 745.48,220.19 865.77,220.19 865.77,220.19 865.77,320.43 745.48,320.43 745.48,320.43 745.48,220.19 865.77,220.19 865.77,220.19 865.77,320.43 745.48,320.43 745.48,320.43 745.48,220.19 865.77,220.19 865.77,220.19 865.77,320.43 745.48,320.43 745.48,320.43 745.48,220.19 865.77,220.19 865.77,220.19 865.77,320.43 745.48,320.43 745.48,320.43 745.48,220.19 865.77,220.19" fill="none" stroke="#f97316" stroke-width="2.2" stroke-linejoin="round"/>
<rect x="980" y="150" width="420" height="350" class="panel"/>
<text x="980.0" y="132.0" class="label" text-anchor="start">r = 3.7</text>
<text x="1090.0" y="132.0" class="small" text-anchor="start">chaotic orbit</text>
<line x1="980.0" y1="150.0" x2="980.0" y2="500.0" class="grid"/>
<line x1="980.0" y1="500.0" x2="1400.0" y2="500.0" class="grid"/>
<line x1="1085.0" y1="150.0" x2="1085.0" y2="500.0" class="grid"/>
<line x1="980.0" y1="412.5" x2="1400.0" y2="412.5" class="grid"/>
<line x1="1190.0" y1="150.0" x2="1190.0" y2="500.0" class="grid"/>
<line x1="980.0" y1="325.0" x2="1400.0" y2="325.0" class="grid"/>
<line x1="1295.0" y1="150.0" x2="1295.0" y2="500.0" class="grid"/>
<line x1="980.0" y1="237.5" x2="1400.0" y2="237.5" class="grid"/>
<line x1="1400.0" y1="150.0" x2="1400.0" y2="500.0" class="grid"/>
<line x1="980.0" y1="150.0" x2="1400.0" y2="150.0" class="grid"/>
<line x1="980.0" y1="500.0" x2="1400.0" y2="500.0" class="axis"/>
<line x1="980.0" y1="150.0" x2="980.0" y2="500.0" class="axis"/>
<polyline points="980.00,500.00 980.70,497.85 981.40,495.70 982.10,493.56 982.80,491.42 983.50,489.30 984.20,487.18 984.90,485.07 985.60,482.96 986.30,480.87 987.00,478.78 987.70,476.69 988.40,474.62 989.10,472.55 989.80,470.49 990.50,468.43 991.20,466.39 991.90,464.35 992.60,462.32 993.30,460.29 994.00,458.27 994.70,456.26 995.40,454.26 996.10,452.26 996.80,450.27 997.50,448.29 998.20,446.32 998.90,444.35 999.60,442.39 1000.30,440.43 1001.00,438.49 1001.70,436.55 1002.40,434.62 1003.10,432.69 1003.80,430.78 1004.50,428.86 1005.20,426.96 1005.90,425.07 1006.60,423.18 1007.30,421.30 1008.00,419.42 1008.70,417.56 1009.40,415.70 1010.10,413.84 1010.80,412.00 1011.50,410.16 1012.20,408.33 1012.90,406.50 1013.60,404.69 1014.30,402.88 1015.00,401.08 1015.70,399.28 1016.40,397.49 1017.10,395.71 1017.80,393.94 1018.50,392.17 1019.20,390.41 1019.90,388.66 1020.60,386.92 1021.30,385.18 1022.00,383.45 1022.70,381.73 1023.40,380.01 1024.10,378.30 1024.80,376.60 1025.50,374.91 1026.20,373.22 1026.90,371.54 1027.60,369.87 1028.30,368.20 1029.00,366.54 1029.70,364.89 1030.40,363.25 1031.10,361.61 1031.80,359.98 1032.50,358.36 1033.20,356.74 1033.90,355.14 1034.60,353.54 1035.30,351.94 1036.00,350.36 1036.70,348.78 1037.40,347.20 1038.10,345.64 1038.80,344.08 1039.50,342.53 1040.20,340.99 1040.90,339.45 1041.60,337.92 1042.30,336.40 1043.00,334.89 1043.70,333.38 1044.40,331.88 1045.10,330.39 1045.80,328.90 1046.50,327.42 1047.20,325.95 1047.90,324.49 1048.60,323.03 1049.30,321.58 1050.00,320.14 1050.70,318.70 1051.40,317.28 1052.10,315.85 1052.80,314.44 1053.50,313.03 1054.20,311.64 1054.90,310.24 1055.60,308.86 1056.30,307.48 1057.00,306.11 1057.70,304.75 1058.40,303.39 1059.10,302.04 1059.80,300.70 1060.50,299.36 1061.20,298.04 1061.90,296.72 1062.60,295.40 1063.30,294.10 1064.00,292.80 1064.70,291.51 1065.40,290.22 1066.10,288.95 1066.80,287.68 1067.50,286.41 1068.20,285.16 1068.90,283.91 1069.60,282.67 1070.30,281.44 1071.00,280.21 1071.70,278.99 1072.40,277.78 1073.10,276.57 1073.80,275.38 1074.50,274.18 1075.20,273.00 1075.90,271.82 1076.60,270.66 1077.30,269.49 1078.00,268.34 1078.70,267.19 1079.40,266.05 1080.10,264.92 1080.80,263.79 1081.50,262.67 1082.20,261.56 1082.90,260.46 1083.60,259.36 1084.30,258.27 1085.00,257.19 1085.70,256.11 1086.40,255.04 1087.10,253.98 1087.80,252.93 1088.50,251.88 1089.20,250.84 1089.90,249.81 1090.60,248.78 1091.30,247.77 1092.00,246.76 1092.70,245.75 1093.40,244.76 1094.10,243.77 1094.80,242.78 1095.50,241.81 1096.20,240.84 1096.90,239.88 1097.60,238.93 1098.30,237.98 1099.00,237.04 1099.70,236.11 1100.40,235.19 1101.10,234.27 1101.80,233.36 1102.50,232.46 1103.20,231.56 1103.90,230.67 1104.60,229.79 1105.30,228.92 1106.00,228.05 1106.70,227.19 1107.40,226.34 1108.10,225.49 1108.80,224.65 1109.50,223.82 1110.20,223.00 1110.90,222.18 1111.60,221.37 1112.30,220.57 1113.00,219.78 1113.70,218.99 1114.40,218.21 1115.10,217.43 1115.80,216.67 1116.50,215.91 1117.20,215.16 1117.90,214.41 1118.60,213.68 1119.30,212.95 1120.00,212.22 1120.70,211.51 1121.40,210.80 1122.10,210.10 1122.80,209.40 1123.50,208.71 1124.20,208.04 1124.90,207.36 1125.60,206.70 1126.30,206.04 1127.00,205.39 1127.70,204.74 1128.40,204.11 1129.10,203.48 1129.80,202.86 1130.50,202.24 1131.20,201.63 1131.90,201.03 1132.60,200.44 1133.30,199.85 1134.00,199.27 1134.70,198.70 1135.40,198.14 1136.10,197.58 1136.80,197.03 1137.50,196.48 1138.20,195.95 1138.90,195.42 1139.60,194.90 1140.30,194.38 1141.00,193.88 1141.70,193.38 1142.40,192.88 1143.10,192.40 1143.80,191.92 1144.50,191.45 1145.20,190.98 1145.90,190.53 1146.60,190.08 1147.30,189.64 1148.00,189.20 1148.70,188.77 1149.40,188.35 1150.10,187.94 1150.80,187.53 1151.50,187.13 1152.20,186.74 1152.90,186.35 1153.60,185.98 1154.30,185.61 1155.00,185.24 1155.70,184.89 1156.40,184.54 1157.10,184.20 1157.80,183.86 1158.50,183.53 1159.20,183.21 1159.90,182.90 1160.60,182.60 1161.30,182.30 1162.00,182.01 1162.70,181.72 1163.40,181.44 1164.10,181.17 1164.80,180.91 1165.50,180.66 1166.20,180.41 1166.90,180.17 1167.60,179.93 1168.30,179.71 1169.00,179.49 1169.70,179.28 1170.40,179.07 1171.10,178.87 1171.80,178.68 1172.50,178.50 1173.20,178.32 1173.90,178.15 1174.60,177.99 1175.30,177.84 1176.00,177.69 1176.70,177.55 1177.40,177.42 1178.10,177.29 1178.80,177.17 1179.50,177.06 1180.20,176.96 1180.90,176.86 1181.60,176.77 1182.30,176.69 1183.00,176.61 1183.70,176.54 1184.40,176.48 1185.10,176.43 1185.80,176.38 1186.50,176.34 1187.20,176.31 1187.90,176.28 1188.60,176.26 1189.30,176.25 1190.00,176.25 1190.70,176.25 1191.40,176.26 1192.10,176.28 1192.80,176.31 1193.50,176.34 1194.20,176.38 1194.90,176.43 1195.60,176.48 1196.30,176.54 1197.00,176.61 1197.70,176.69 1198.40,176.77 1199.10,176.86 1199.80,176.96 1200.50,177.06 1201.20,177.17 1201.90,177.29 1202.60,177.42 1203.30,177.55 1204.00,177.69 1204.70,177.84 1205.40,177.99 1206.10,178.15 1206.80,178.32 1207.50,178.50 1208.20,178.68 1208.90,178.87 1209.60,179.07 1210.30,179.28 1211.00,179.49 1211.70,179.71 1212.40,179.93 1213.10,180.17 1213.80,180.41 1214.50,180.66 1215.20,180.91 1215.90,181.17 1216.60,181.44 1217.30,181.72 1218.00,182.01 1218.70,182.30 1219.40,182.60 1220.10,182.90 1220.80,183.21 1221.50,183.53 1222.20,183.86 1222.90,184.20 1223.60,184.54 1224.30,184.89 1225.00,185.24 1225.70,185.61 1226.40,185.98 1227.10,186.35 1227.80,186.74 1228.50,187.13 1229.20,187.53 1229.90,187.94 1230.60,188.35 1231.30,188.77 1232.00,189.20 1232.70,189.64 1233.40,190.08 1234.10,190.53 1234.80,190.98 1235.50,191.45 1236.20,191.92 1236.90,192.40 1237.60,192.88 1238.30,193.38 1239.00,193.88 1239.70,194.38 1240.40,194.90 1241.10,195.42 1241.80,195.95 1242.50,196.48 1243.20,197.03 1243.90,197.58 1244.60,198.14 1245.30,198.70 1246.00,199.27 1246.70,199.85 1247.40,200.44 1248.10,201.03 1248.80,201.63 1249.50,202.24 1250.20,202.86 1250.90,203.48 1251.60,204.11 1252.30,204.74 1253.00,205.39 1253.70,206.04 1254.40,206.70 1255.10,207.36 1255.80,208.04 1256.50,208.71 1257.20,209.40 1257.90,210.10 1258.60,210.80 1259.30,211.51 1260.00,212.22 1260.70,212.95 1261.40,213.68 1262.10,214.41 1262.80,215.16 1263.50,215.91 1264.20,216.67 1264.90,217.43 1265.60,218.21 1266.30,218.99 1267.00,219.78 1267.70,220.57 1268.40,221.37 1269.10,222.18 1269.80,223.00 1270.50,223.82 1271.20,224.65 1271.90,225.49 1272.60,226.34 1273.30,227.19 1274.00,228.05 1274.70,228.92 1275.40,229.79 1276.10,230.67 1276.80,231.56 1277.50,232.46 1278.20,233.36 1278.90,234.27 1279.60,235.19 1280.30,236.11 1281.00,237.04 1281.70,237.98 1282.40,238.93 1283.10,239.88 1283.80,240.84 1284.50,241.81 1285.20,242.78 1285.90,243.77 1286.60,244.76 1287.30,245.75 1288.00,246.76 1288.70,247.77 1289.40,248.78 1290.10,249.81 1290.80,250.84 1291.50,251.88 1292.20,252.93 1292.90,253.98 1293.60,255.04 1294.30,256.11 1295.00,257.19 1295.70,258.27 1296.40,259.36 1297.10,260.46 1297.80,261.56 1298.50,262.67 1299.20,263.79 1299.90,264.92 1300.60,266.05 1301.30,267.19 1302.00,268.34 1302.70,269.49 1303.40,270.66 1304.10,271.82 1304.80,273.00 1305.50,274.18 1306.20,275.38 1306.90,276.57 1307.60,277.78 1308.30,278.99 1309.00,280.21 1309.70,281.44 1310.40,282.67 1311.10,283.91 1311.80,285.16 1312.50,286.41 1313.20,287.68 1313.90,288.95 1314.60,290.22 1315.30,291.51 1316.00,292.80 1316.70,294.10 1317.40,295.40 1318.10,296.72 1318.80,298.04 1319.50,299.36 1320.20,300.70 1320.90,302.04 1321.60,303.39 1322.30,304.75 1323.00,306.11 1323.70,307.48 1324.40,308.86 1325.10,310.24 1325.80,311.64 1326.50,313.03 1327.20,314.44 1327.90,315.85 1328.60,317.28 1329.30,318.70 1330.00,320.14 1330.70,321.58 1331.40,323.03 1332.10,324.49 1332.80,325.95 1333.50,327.42 1334.20,328.90 1334.90,330.39 1335.60,331.88 1336.30,333.38 1337.00,334.89 1337.70,336.40 1338.40,337.92 1339.10,339.45 1339.80,340.99 1340.50,342.53 1341.20,344.08 1341.90,345.64 1342.60,347.20 1343.30,348.78 1344.00,350.36 1344.70,351.94 1345.40,353.54 1346.10,355.14 1346.80,356.74 1347.50,358.36 1348.20,359.98 1348.90,361.61 1349.60,363.25 1350.30,364.89 1351.00,366.54 1351.70,368.20 1352.40,369.87 1353.10,371.54 1353.80,373.22 1354.50,374.91 1355.20,376.60 1355.90,378.30 1356.60,380.01 1357.30,381.73 1358.00,383.45 1358.70,385.18 1359.40,386.92 1360.10,388.66 1360.80,390.41 1361.50,392.17 1362.20,393.94 1362.90,395.71 1363.60,397.49 1364.30,399.28 1365.00,401.08 1365.70,402.88 1366.40,404.69 1367.10,406.50 1367.80,408.33 1368.50,410.16 1369.20,412.00 1369.90,413.84 1370.60,415.70 1371.30,417.56 1372.00,419.42 1372.70,421.30 1373.40,423.18 1374.10,425.07 1374.80,426.96 1375.50,428.86 1376.20,430.78 1376.90,432.69 1377.60,434.62 1378.30,436.55 1379.00,438.49 1379.70,440.43 1380.40,442.39 1381.10,444.35 1381.80,446.32 1382.50,448.29 1383.20,450.27 1383.90,452.26 1384.60,454.26 1385.30,456.26 1386.00,458.27 1386.70,460.29 1387.40,462.32 1388.10,464.35 1388.80,466.39 1389.50,468.43 1390.20,470.49 1390.90,472.55 1391.60,474.62 1392.30,476.69 1393.00,478.78 1393.70,480.87 1394.40,482.96 1395.10,485.07 1395.80,487.18 1396.50,489.30 1397.20,491.42 1397.90,493.56 1398.60,495.70 1399.30,497.85 1400.00,500.00" fill="none" stroke="#7dd3fc" stroke-width="3"/>
<polyline points="980.00,500.00 980.70,499.42 981.40,498.83 982.10,498.25 982.80,497.67 983.50,497.08 984.20,496.50 984.90,495.92 985.60,495.33 986.30,494.75 987.00,494.17 987.70,493.58 988.40,493.00 989.10,492.42 989.80,491.83 990.50,491.25 991.20,490.67 991.90,490.08 992.60,489.50 993.30,488.92 994.00,488.33 994.70,487.75 995.40,487.17 996.10,486.58 996.80,486.00 997.50,485.42 998.20,484.83 998.90,484.25 999.60,483.67 1000.30,483.08 1001.00,482.50 1001.70,481.92 1002.40,481.33 1003.10,480.75 1003.80,480.17 1004.50,479.58 1005.20,479.00 1005.90,478.42 1006.60,477.83 1007.30,477.25 1008.00,476.67 1008.70,476.08 1009.40,475.50 1010.10,474.92 1010.80,474.33 1011.50,473.75 1012.20,473.17 1012.90,472.58 1013.60,472.00 1014.30,471.42 1015.00,470.83 1015.70,470.25 1016.40,469.67 1017.10,469.08 1017.80,468.50 1018.50,467.92 1019.20,467.33 1019.90,466.75 1020.60,466.17 1021.30,465.58 1022.00,465.00 1022.70,464.42 1023.40,463.83 1024.10,463.25 1024.80,462.67 1025.50,462.08 1026.20,461.50 1026.90,460.92 1027.60,460.33 1028.30,459.75 1029.00,459.17 1029.70,458.58 1030.40,458.00 1031.10,457.42 1031.80,456.83 1032.50,456.25 1033.20,455.67 1033.90,455.08 1034.60,454.50 1035.30,453.92 1036.00,453.33 1036.70,452.75 1037.40,452.17 1038.10,451.58 1038.80,451.00 1039.50,450.42 1040.20,449.83 1040.90,449.25 1041.60,448.67 1042.30,448.08 1043.00,447.50 1043.70,446.92 1044.40,446.33 1045.10,445.75 1045.80,445.17 1046.50,444.58 1047.20,444.00 1047.90,443.42 1048.60,442.83 1049.30,442.25 1050.00,441.67 1050.70,441.08 1051.40,440.50 1052.10,439.92 1052.80,439.33 1053.50,438.75 1054.20,438.17 1054.90,437.58 1055.60,437.00 1056.30,436.42 1057.00,435.83 1057.70,435.25 1058.40,434.67 1059.10,434.08 1059.80,433.50 1060.50,432.92 1061.20,432.33 1061.90,431.75 1062.60,431.17 1063.30,430.58 1064.00,430.00 1064.70,429.42 1065.40,428.83 1066.10,428.25 1066.80,427.67 1067.50,427.08 1068.20,426.50 1068.90,425.92 1069.60,425.33 1070.30,424.75 1071.00,424.17 1071.70,423.58 1072.40,423.00 1073.10,422.42 1073.80,421.83 1074.50,421.25 1075.20,420.67 1075.90,420.08 1076.60,419.50 1077.30,418.92 1078.00,418.33 1078.70,417.75 1079.40,417.17 1080.10,416.58 1080.80,416.00 1081.50,415.42 1082.20,414.83 1082.90,414.25 1083.60,413.67 1084.30,413.08 1085.00,412.50 1085.70,411.92 1086.40,411.33 1087.10,410.75 1087.80,410.17 1088.50,409.58 1089.20,409.00 1089.90,408.42 1090.60,407.83 1091.30,407.25 1092.00,406.67 1092.70,406.08 1093.40,405.50 1094.10,404.92 1094.80,404.33 1095.50,403.75 1096.20,403.17 1096.90,402.58 1097.60,402.00 1098.30,401.42 1099.00,400.83 1099.70,400.25 1100.40,399.67 1101.10,399.08 1101.80,398.50 1102.50,397.92 1103.20,397.33 1103.90,396.75 1104.60,396.17 1105.30,395.58 1106.00,395.00 1106.70,394.42 1107.40,393.83 1108.10,393.25 1108.80,392.67 1109.50,392.08 1110.20,391.50 1110.90,390.92 1111.60,390.33 1112.30,389.75 1113.00,389.17 1113.70,388.58 1114.40,388.00 1115.10,387.42 1115.80,386.83 1116.50,386.25 1117.20,385.67 1117.90,385.08 1118.60,384.50 1119.30,383.92 1120.00,383.33 1120.70,382.75 1121.40,382.17 1122.10,381.58 1122.80,381.00 1123.50,380.42 1124.20,379.83 1124.90,379.25 1125.60,378.67 1126.30,378.08 1127.00,377.50 1127.70,376.92 1128.40,376.33 1129.10,375.75 1129.80,375.17 1130.50,374.58 1131.20,374.00 1131.90,373.42 1132.60,372.83 1133.30,372.25 1134.00,371.67 1134.70,371.08 1135.40,370.50 1136.10,369.92 1136.80,369.33 1137.50,368.75 1138.20,368.17 1138.90,367.58 1139.60,367.00 1140.30,366.42 1141.00,365.83 1141.70,365.25 1142.40,364.67 1143.10,364.08 1143.80,363.50 1144.50,362.92 1145.20,362.33 1145.90,361.75 1146.60,361.17 1147.30,360.58 1148.00,360.00 1148.70,359.42 1149.40,358.83 1150.10,358.25 1150.80,357.67 1151.50,357.08 1152.20,356.50 1152.90,355.92 1153.60,355.33 1154.30,354.75 1155.00,354.17 1155.70,353.58 1156.40,353.00 1157.10,352.42 1157.80,351.83 1158.50,351.25 1159.20,350.67 1159.90,350.08 1160.60,349.50 1161.30,348.92 1162.00,348.33 1162.70,347.75 1163.40,347.17 1164.10,346.58 1164.80,346.00 1165.50,345.42 1166.20,344.83 1166.90,344.25 1167.60,343.67 1168.30,343.08 1169.00,342.50 1169.70,341.92 1170.40,341.33 1171.10,340.75 1171.80,340.17 1172.50,339.58 1173.20,339.00 1173.90,338.42 1174.60,337.83 1175.30,337.25 1176.00,336.67 1176.70,336.08 1177.40,335.50 1178.10,334.92 1178.80,334.33 1179.50,333.75 1180.20,333.17 1180.90,332.58 1181.60,332.00 1182.30,331.42 1183.00,330.83 1183.70,330.25 1184.40,329.67 1185.10,329.08 1185.80,328.50 1186.50,327.92 1187.20,327.33 1187.90,326.75 1188.60,326.17 1189.30,325.58 1190.00,325.00 1190.70,324.42 1191.40,323.83 1192.10,323.25 1192.80,322.67 1193.50,322.08 1194.20,321.50 1194.90,320.92 1195.60,320.33 1196.30,319.75 1197.00,319.17 1197.70,318.58 1198.40,318.00 1199.10,317.42 1199.80,316.83 1200.50,316.25 1201.20,315.67 1201.90,315.08 1202.60,314.50 1203.30,313.92 1204.00,313.33 1204.70,312.75 1205.40,312.17 1206.10,311.58 1206.80,311.00 1207.50,310.42 1208.20,309.83 1208.90,309.25 1209.60,308.67 1210.30,308.08 1211.00,307.50 1211.70,306.92 1212.40,306.33 1213.10,305.75 1213.80,305.17 1214.50,304.58 1215.20,304.00 1215.90,303.42 1216.60,302.83 1217.30,302.25 1218.00,301.67 1218.70,301.08 1219.40,300.50 1220.10,299.92 1220.80,299.33 1221.50,298.75 1222.20,298.17 1222.90,297.58 1223.60,297.00 1224.30,296.42 1225.00,295.83 1225.70,295.25 1226.40,294.67 1227.10,294.08 1227.80,293.50 1228.50,292.92 1229.20,292.33 1229.90,291.75 1230.60,291.17 1231.30,290.58 1232.00,290.00 1232.70,289.42 1233.40,288.83 1234.10,288.25 1234.80,287.67 1235.50,287.08 1236.20,286.50 1236.90,285.92 1237.60,285.33 1238.30,284.75 1239.00,284.17 1239.70,283.58 1240.40,283.00 1241.10,282.42 1241.80,281.83 1242.50,281.25 1243.20,280.67 1243.90,280.08 1244.60,279.50 1245.30,278.92 1246.00,278.33 1246.70,277.75 1247.40,277.17 1248.10,276.58 1248.80,276.00 1249.50,275.42 1250.20,274.83 1250.90,274.25 1251.60,273.67 1252.30,273.08 1253.00,272.50 1253.70,271.92 1254.40,271.33 1255.10,270.75 1255.80,270.17 1256.50,269.58 1257.20,269.00 1257.90,268.42 1258.60,267.83 1259.30,267.25 1260.00,266.67 1260.70,266.08 1261.40,265.50 1262.10,264.92 1262.80,264.33 1263.50,263.75 1264.20,263.17 1264.90,262.58 1265.60,262.00 1266.30,261.42 1267.00,260.83 1267.70,260.25 1268.40,259.67 1269.10,259.08 1269.80,258.50 1270.50,257.92 1271.20,257.33 1271.90,256.75 1272.60,256.17 1273.30,255.58 1274.00,255.00 1274.70,254.42 1275.40,253.83 1276.10,253.25 1276.80,252.67 1277.50,252.08 1278.20,251.50 1278.90,250.92 1279.60,250.33 1280.30,249.75 1281.00,249.17 1281.70,248.58 1282.40,248.00 1283.10,247.42 1283.80,246.83 1284.50,246.25 1285.20,245.67 1285.90,245.08 1286.60,244.50 1287.30,243.92 1288.00,243.33 1288.70,242.75 1289.40,242.17 1290.10,241.58 1290.80,241.00 1291.50,240.42 1292.20,239.83 1292.90,239.25 1293.60,238.67 1294.30,238.08 1295.00,237.50 1295.70,236.92 1296.40,236.33 1297.10,235.75 1297.80,235.17 1298.50,234.58 1299.20,234.00 1299.90,233.42 1300.60,232.83 1301.30,232.25 1302.00,231.67 1302.70,231.08 1303.40,230.50 1304.10,229.92 1304.80,229.33 1305.50,228.75 1306.20,228.17 1306.90,227.58 1307.60,227.00 1308.30,226.42 1309.00,225.83 1309.70,225.25 1310.40,224.67 1311.10,224.08 1311.80,223.50 1312.50,222.92 1313.20,222.33 1313.90,221.75 1314.60,221.17 1315.30,220.58 1316.00,220.00 1316.70,219.42 1317.40,218.83 1318.10,218.25 1318.80,217.67 1319.50,217.08 1320.20,216.50 1320.90,215.92 1321.60,215.33 1322.30,214.75 1323.00,214.17 1323.70,213.58 1324.40,213.00 1325.10,212.42 1325.80,211.83 1326.50,211.25 1327.20,210.67 1327.90,210.08 1328.60,209.50 1329.30,208.92 1330.00,208.33 1330.70,207.75 1331.40,207.17 1332.10,206.58 1332.80,206.00 1333.50,205.42 1334.20,204.83 1334.90,204.25 1335.60,203.67 1336.30,203.08 1337.00,202.50 1337.70,201.92 1338.40,201.33 1339.10,200.75 1339.80,200.17 1340.50,199.58 1341.20,199.00 1341.90,198.42 1342.60,197.83 1343.30,197.25 1344.00,196.67 1344.70,196.08 1345.40,195.50 1346.10,194.92 1346.80,194.33 1347.50,193.75 1348.20,193.17 1348.90,192.58 1349.60,192.00 1350.30,191.42 1351.00,190.83 1351.70,190.25 1352.40,189.67 1353.10,189.08 1353.80,188.50 1354.50,187.92 1355.20,187.33 1355.90,186.75 1356.60,186.17 1357.30,185.58 1358.00,185.00 1358.70,184.42 1359.40,183.83 1360.10,183.25 1360.80,182.67 1361.50,182.08 1362.20,181.50 1362.90,180.92 1363.60,180.33 1364.30,179.75 1365.00,179.17 1365.70,178.58 1366.40,178.00 1367.10,177.42 1367.80,176.83 1368.50,176.25 1369.20,175.67 1369.90,175.08 1370.60,174.50 1371.30,173.92 1372.00,173.33 1372.70,172.75 1373.40,172.17 1374.10,171.58 1374.80,171.00 1375.50,170.42 1376.20,169.83 1376.90,169.25 1377.60,168.67 1378.30,168.08 1379.00,167.50 1379.70,166.92 1380.40,166.33 1381.10,165.75 1381.80,165.17 1382.50,164.58 1383.20,164.00 1383.90,163.42 1384.60,162.83 1385.30,162.25 1386.00,161.67 1386.70,161.08 1387.40,160.50 1388.10,159.92 1388.80,159.33 1389.50,158.75 1390.20,158.17 1390.90,157.58 1391.60,157.00 1392.30,156.42 1393.00,155.83 1393.70,155.25 1394.40,154.67 1395.10,154.08 1395.80,153.50 1396.50,152.92 1397.20,152.33 1397.90,151.75 1398.60,151.17 1399.30,150.58 1400.00,150.00" fill="none" stroke="#94a3b8" stroke-width="2" stroke-dasharray="8 8"/>
<polyline points="1068.20,426.50 1068.20,285.16 1237.81,285.16 1237.81,285.16 1237.81,193.03 1348.36,193.03 1348.36,193.03 1348.36,360.36 1147.56,360.36 1147.56,360.36 1147.56,189.47 1352.64,189.47 1352.64,189.47 1352.64,370.43 1135.49,370.43 1135.49,370.43 1135.49,198.07 1342.32,198.07 1342.32,198.07 1342.32,346.58 1164.11,346.58 1164.11,346.58 1164.11,181.17 1362.59,181.17 1362.59,181.17 1362.59,394.94 1106.08,394.94 1106.08,394.94 1106.08,227.95 1306.45,227.95 1306.45,227.95 1306.45,275.81 1249.03,275.81 1249.03,275.81 1249.03,201.83 1337.80,201.83 1337.80,201.83 1337.80,336.63 1176.04,336.63 1176.04,336.63 1176.04,177.68 1366.78,177.68 1366.78,177.68 1366.78,405.68 1093.18,405.68 1093.18,405.68 1093.18,245.07 1285.92,245.07 1285.92,245.07 1285.92,243.79 1287.45,243.79 1287.45,243.79 1287.45,245.97 1284.83,245.97 1284.83,245.97 1284.83,242.27 1289.27,242.27 1289.27,242.27 1289.27,248.60 1281.68,248.60 1281.68,248.60 1281.68,237.96 1294.45,237.96 1294.45,237.96 1294.45,256.34 1272.39,256.34 1272.39,256.34 1272.39,226.08 1308.70,226.08 1308.70,226.08 1308.70,279.69 1244.37,279.69 1244.37,279.69 1244.37,197.96 1342.45,197.96 1342.45,197.96 1342.45,346.88 1163.75,346.88 1163.75,346.88 1163.75,181.31 1362.43,181.31 1362.43,181.31 1362.43,394.52 1106.58,394.52 1106.58,394.52 1106.58,227.34 1307.19,227.34 1307.19,227.34 1307.19,277.07 1247.51,277.07 1247.51,277.07 1247.51,200.53 1339.36,200.53 1339.36,200.53 1339.36,340.03 1171.97,340.03 1171.97,340.03 1171.97,178.64 1365.64,178.64 1365.64,178.64 1365.64,402.71 1096.74,402.71 1096.74,402.71 1096.74,240.09 1291.89,240.09 1291.89,240.09 1291.89,252.46 1277.05,252.46 1277.05,252.46 1277.05,231.88 1301.74,231.88 1301.74,231.88 1301.74,267.92 1258.50,267.92 1258.50,267.92 1258.50,210.69 1327.17,210.69 1327.17,210.69 1327.17,314.37 1202.75,314.37 1202.75,314.37 1202.75,177.44 1367.07,177.44 1367.07,177.44 1367.07,406.42 1092.30,406.42" fill="none" stroke="#f97316" stroke-width="2.2" stroke-linejoin="round"/>
</svg>
