<svg xmlns="http://www.w3.org/2000/svg" viewBox="0 0 1380 820">
<defs>
  <linearGradient id="bg" x1="0" y1="0" x2="1" y2="1">
    <stop offset="0%" stop-color="#081018"/>
    <stop offset="100%" stop-color="#101d2a"/>
  </linearGradient>
  <style>
    .title { font: 700 34px Helvetica, Arial, sans-serif; fill: #e6edf3; }
    .subtitle { font: 500 18px Helvetica, Arial, sans-serif; fill: #9fb3c8; }
    .label { font: 600 18px Helvetica, Arial, sans-serif; fill: #dce7f3; }
    .small { font: 500 15px Helvetica, Arial, sans-serif; fill: #9fb3c8; }
    .axis { stroke: #39516a; stroke-width: 2; }
    .grid { stroke: #223445; stroke-width: 1; opacity: 0.8; }
    .panel { fill: #122131; stroke: #5e7fa3; stroke-width: 2; rx: 18; }
  </style>
</defs>
<rect width="1380" height="820" fill="url(#bg)"/>
<text x="60.0" y="58.0" class="title" text-anchor="start">Orbit-density contrast in the logistic map</text>
<text x="60.0" y="88.0" class="subtitle" text-anchor="start">At r = 4 the chaotic invariant measure piles up near the edges. In a period-3 window the mass collapses onto a few bands.</text>
<rect x="110" y="180" width="540" height="510" class="panel"/>
<text x="110.0" y="162.0" class="label" text-anchor="start">r = 4.0</text>
<text x="205.0" y="162.0" class="small" text-anchor="start">empirical histogram plus exact invariant density</text>
<line x1="110.0" y1="180.0" x2="110.0" y2="690.0" class="grid"/>
<text x="110.0" y="716.0" class="small" text-anchor="middle">0</text>
<line x1="245.0" y1="180.0" x2="245.0" y2="690.0" class="grid"/>
<text x="245.0" y="716.0" class="small" text-anchor="middle">0.25</text>
<line x1="380.0" y1="180.0" x2="380.0" y2="690.0" class="grid"/>
<text x="380.0" y="716.0" class="small" text-anchor="middle">0.5</text>
<line x1="515.0" y1="180.0" x2="515.0" y2="690.0" class="grid"/>
<text x="515.0" y="716.0" class="small" text-anchor="middle">0.75</text>
<line x1="650.0" y1="180.0" x2="650.0" y2="690.0" class="grid"/>
<text x="650.0" y="716.0" class="small" text-anchor="middle">1</text>
<line x1="110.0" y1="690.0" x2="650.0" y2="690.0" class="grid"/>
<text x="90.0" y="695.0" class="small" text-anchor="end">0</text>
<line x1="110.0" y1="555.8" x2="650.0" y2="555.8" class="grid"/>
<text x="90.0" y="560.8" class="small" text-anchor="end">1</text>
<line x1="110.0" y1="421.6" x2="650.0" y2="421.6" class="grid"/>
<text x="90.0" y="426.6" class="small" text-anchor="end">2</text>
<line x1="110.0" y1="287.4" x2="650.0" y2="287.4" class="grid"/>
<text x="90.0" y="292.4" class="small" text-anchor="end">3</text>
<line x1="110.0" y1="690.0" x2="650.0" y2="690.0" class="axis"/>
<line x1="110.0" y1="180.0" x2="110.0" y2="690.0" class="axis"/>
<rect x="111.00" y="180.00" width="6.44" height="510.00" fill="#7dd3fc" opacity="0.68"/>
<rect x="119.44" y="408.61" width="6.44" height="281.39" fill="#7dd3fc" opacity="0.68"/>
<rect x="127.88" y="462.04" width="6.44" height="227.96" fill="#7dd3fc" opacity="0.68"/>
<rect x="136.31" y="506.70" width="6.44" height="183.30" fill="#7dd3fc" opacity="0.68"/>
<rect x="144.75" y="522.68" width="6.44" height="167.32" fill="#7dd3fc" opacity="0.68"/>
<rect x="153.19" y="535.22" width="6.44" height="154.78" fill="#7dd3fc" opacity="0.68"/>
<rect x="161.62" y="541.92" width="6.44" height="148.08" fill="#7dd3fc" opacity="0.68"/>
<rect x="170.06" y="556.69" width="6.44" height="133.31" fill="#7dd3fc" opacity="0.68"/>
<rect x="178.50" y="560.30" width="6.44" height="129.70" fill="#7dd3fc" opacity="0.68"/>
<rect x="186.94" y="574.90" width="6.44" height="115.10" fill="#7dd3fc" opacity="0.68"/>
<rect x="195.38" y="572.67" width="6.44" height="117.33" fill="#7dd3fc" opacity="0.68"/>
<rect x="203.81" y="576.45" width="6.44" height="113.55" fill="#7dd3fc" opacity="0.68"/>
<rect x="212.25" y="587.44" width="6.44" height="102.56" fill="#7dd3fc" opacity="0.68"/>
<rect x="220.69" y="590.88" width="6.44" height="99.12" fill="#7dd3fc" opacity="0.68"/>
<rect x="229.12" y="589.50" width="6.44" height="100.50" fill="#7dd3fc" opacity="0.68"/>
<rect x="237.56" y="594.66" width="6.44" height="95.34" fill="#7dd3fc" opacity="0.68"/>
<rect x="246.00" y="591.91" width="6.44" height="98.09" fill="#7dd3fc" opacity="0.68"/>
<rect x="254.44" y="586.75" width="6.44" height="103.25" fill="#7dd3fc" opacity="0.68"/>
<rect x="262.88" y="588.30" width="6.44" height="101.70" fill="#7dd3fc" opacity="0.68"/>
<rect x="271.31" y="597.06" width="6.44" height="92.94" fill="#7dd3fc" opacity="0.68"/>
<rect x="279.75" y="598.78" width="6.44" height="91.22" fill="#7dd3fc" opacity="0.68"/>
<rect x="288.19" y="601.18" width="6.44" height="88.82" fill="#7dd3fc" opacity="0.68"/>
<rect x="296.62" y="596.72" width="6.44" height="93.28" fill="#7dd3fc" opacity="0.68"/>
<rect x="305.06" y="597.75" width="6.44" height="92.25" fill="#7dd3fc" opacity="0.68"/>
<rect x="313.50" y="606.17" width="6.44" height="83.83" fill="#7dd3fc" opacity="0.68"/>
<rect x="321.94" y="604.79" width="6.44" height="85.21" fill="#7dd3fc" opacity="0.68"/>
<rect x="330.38" y="596.72" width="6.44" height="93.28" fill="#7dd3fc" opacity="0.68"/>
<rect x="338.81" y="602.04" width="6.44" height="87.96" fill="#7dd3fc" opacity="0.68"/>
<rect x="347.25" y="607.20" width="6.44" height="82.80" fill="#7dd3fc" opacity="0.68"/>
<rect x="355.69" y="600.15" width="6.44" height="89.85" fill="#7dd3fc" opacity="0.68"/>
<rect x="364.12" y="602.22" width="6.44" height="87.78" fill="#7dd3fc" opacity="0.68"/>
<rect x="372.56" y="610.46" width="6.44" height="79.54" fill="#7dd3fc" opacity="0.68"/>
<rect x="381.00" y="608.74" width="6.44" height="81.26" fill="#7dd3fc" opacity="0.68"/>
<rect x="389.44" y="608.06" width="6.44" height="81.94" fill="#7dd3fc" opacity="0.68"/>
<rect x="397.88" y="604.62" width="6.44" height="85.38" fill="#7dd3fc" opacity="0.68"/>
<rect x="406.31" y="598.61" width="6.44" height="91.39" fill="#7dd3fc" opacity="0.68"/>
<rect x="414.75" y="597.23" width="6.44" height="92.77" fill="#7dd3fc" opacity="0.68"/>
<rect x="423.19" y="602.90" width="6.44" height="87.10" fill="#7dd3fc" opacity="0.68"/>
<rect x="431.62" y="603.59" width="6.44" height="86.41" fill="#7dd3fc" opacity="0.68"/>
<rect x="440.06" y="605.14" width="6.44" height="84.86" fill="#7dd3fc" opacity="0.68"/>
<rect x="448.50" y="599.64" width="6.44" height="90.36" fill="#7dd3fc" opacity="0.68"/>
<rect x="456.94" y="602.39" width="6.44" height="87.61" fill="#7dd3fc" opacity="0.68"/>
<rect x="465.38" y="595.52" width="6.44" height="94.48" fill="#7dd3fc" opacity="0.68"/>
<rect x="473.81" y="598.09" width="6.44" height="91.91" fill="#7dd3fc" opacity="0.68"/>
<rect x="482.25" y="604.28" width="6.44" height="85.72" fill="#7dd3fc" opacity="0.68"/>
<rect x="490.69" y="596.89" width="6.44" height="93.11" fill="#7dd3fc" opacity="0.68"/>
<rect x="499.12" y="592.60" width="6.44" height="97.40" fill="#7dd3fc" opacity="0.68"/>
<rect x="507.56" y="593.45" width="6.44" height="96.55" fill="#7dd3fc" opacity="0.68"/>
<rect x="516.00" y="586.41" width="6.44" height="103.59" fill="#7dd3fc" opacity="0.68"/>
<rect x="524.44" y="592.94" width="6.44" height="97.06" fill="#7dd3fc" opacity="0.68"/>
<rect x="532.88" y="576.96" width="6.44" height="113.04" fill="#7dd3fc" opacity="0.68"/>
<rect x="541.31" y="579.20" width="6.44" height="110.80" fill="#7dd3fc" opacity="0.68"/>
<rect x="549.75" y="577.48" width="6.44" height="112.52" fill="#7dd3fc" opacity="0.68"/>
<rect x="558.19" y="572.15" width="6.44" height="117.85" fill="#7dd3fc" opacity="0.68"/>
<rect x="566.62" y="576.10" width="6.44" height="113.90" fill="#7dd3fc" opacity="0.68"/>
<rect x="575.06" y="563.73" width="6.44" height="126.27" fill="#7dd3fc" opacity="0.68"/>
<rect x="583.50" y="552.57" width="6.44" height="137.43" fill="#7dd3fc" opacity="0.68"/>
<rect x="591.94" y="552.74" width="6.44" height="137.26" fill="#7dd3fc" opacity="0.68"/>
<rect x="600.38" y="533.67" width="6.44" height="156.33" fill="#7dd3fc" opacity="0.68"/>
<rect x="608.81" y="517.35" width="6.44" height="172.65" fill="#7dd3fc" opacity="0.68"/>
<rect x="617.25" y="509.62" width="6.44" height="180.38" fill="#7dd3fc" opacity="0.68"/>
<rect x="625.69" y="467.53" width="6.44" height="222.47" fill="#7dd3fc" opacity="0.68"/>
<rect x="634.12" y="391.43" width="6.44" height="298.57" fill="#7dd3fc" opacity="0.68"/>
<rect x="642.56" y="180.00" width="6.44" height="510.00" fill="#7dd3fc" opacity="0.68"/>
<text x="380.0" y="744.0" class="small" text-anchor="middle">state x</text>
<rect x="710" y="180" width="540" height="510" class="panel"/>
<text x="710.0" y="162.0" class="label" text-anchor="start">r = 3.83</text>
<text x="805.0" y="162.0" class="small" text-anchor="start">period-3 window: the orbit keeps revisiting a few narrow bands</text>
<line x1="710.0" y1="180.0" x2="710.0" y2="690.0" class="grid"/>
<text x="710.0" y="716.0" class="small" text-anchor="middle">0</text>
<line x1="845.0" y1="180.0" x2="845.0" y2="690.0" class="grid"/>
<text x="845.0" y="716.0" class="small" text-anchor="middle">0.25</text>
<line x1="980.0" y1="180.0" x2="980.0" y2="690.0" class="grid"/>
<text x="980.0" y="716.0" class="small" text-anchor="middle">0.5</text>
<line x1="1115.0" y1="180.0" x2="1115.0" y2="690.0" class="grid"/>
<text x="1115.0" y="716.0" class="small" text-anchor="middle">0.75</text>
<line x1="1250.0" y1="180.0" x2="1250.0" y2="690.0" class="grid"/>
<text x="1250.0" y="716.0" class="small" text-anchor="middle">1</text>
<line x1="710.0" y1="690.0" x2="1250.0" y2="690.0" class="grid"/>
<text x="690.0" y="695.0" class="small" text-anchor="end">0</text>
<line x1="710.0" y1="653.6" x2="1250.0" y2="653.6" class="grid"/>
<text x="690.0" y="658.6" class="small" text-anchor="end">1</text>
<line x1="710.0" y1="617.1" x2="1250.0" y2="617.1" class="grid"/>
<text x="690.0" y="622.1" class="small" text-anchor="end">2</text>
<line x1="710.0" y1="580.7" x2="1250.0" y2="580.7" class="grid"/>
<text x="690.0" y="585.7" class="small" text-anchor="end">3</text>
<line x1="710.0" y1="544.3" x2="1250.0" y2="544.3" class="grid"/>
<text x="690.0" y="549.3" class="small" text-anchor="end">4</text>
<line x1="710.0" y1="507.9" x2="1250.0" y2="507.9" class="grid"/>
<text x="690.0" y="512.9" class="small" text-anchor="end">5</text>
<line x1="710.0" y1="471.4" x2="1250.0" y2="471.4" class="grid"/>
<text x="690.0" y="476.4" class="small" text-anchor="end">6</text>
<line x1="710.0" y1="435.0" x2="1250.0" y2="435.0" class="grid"/>
<text x="690.0" y="440.0" class="small" text-anchor="end">7</text>
<line x1="710.0" y1="398.6" x2="1250.0" y2="398.6" class="grid"/>
<text x="690.0" y="403.6" class="small" text-anchor="end">8</text>
<line x1="710.0" y1="362.1" x2="1250.0" y2="362.1" class="grid"/>
<text x="690.0" y="367.1" class="small" text-anchor="end">9</text>
<line x1="710.0" y1="325.7" x2="1250.0" y2="325.7" class="grid"/>
<text x="690.0" y="330.7" class="small" text-anchor="end">10</text>
<line x1="710.0" y1="289.3" x2="1250.0" y2="289.3" class="grid"/>
<text x="690.0" y="294.3" class="small" text-anchor="end">11</text>
<line x1="710.0" y1="252.9" x2="1250.0" y2="252.9" class="grid"/>
<text x="690.0" y="257.9" class="small" text-anchor="end">12</text>
<line x1="710.0" y1="216.4" x2="1250.0" y2="216.4" class="grid"/>
<text x="690.0" y="221.4" class="small" text-anchor="end">13</text>
<line x1="710.0" y1="180.0" x2="1250.0" y2="180.0" class="grid"/>
<text x="690.0" y="185.0" class="small" text-anchor="end">14</text>
<line x1="710.0" y1="690.0" x2="1250.0" y2="690.0" class="axis"/>
<line x1="710.0" y1="180.0" x2="710.0" y2="690.0" class="axis"/>
<rect x="711.00" y="690.00" width="6.44" height="0.00" fill="#c084fc" opacity="0.68"/>
<rect x="719.44" y="690.00" width="6.44" height="0.00" fill="#c084fc" opacity="0.68"/>
<rect x="727.88" y="690.00" width="6.44" height="0.00" fill="#c084fc" opacity="0.68"/>
<rect x="736.31" y="690.00" width="6.44" height="0.00" fill="#c084fc" opacity="0.68"/>
<rect x="744.75" y="690.00" width="6.44" height="0.00" fill="#c084fc" opacity="0.68"/>
<rect x="753.19" y="690.00" width="6.44" height="0.00" fill="#c084fc" opacity="0.68"/>
<rect x="761.62" y="690.00" width="6.44" height="0.00" fill="#c084fc" opacity="0.68"/>
<rect x="770.06" y="690.00" width="6.44" height="0.00" fill="#c084fc" opacity="0.68"/>
<rect x="778.50" y="690.00" width="6.44" height="0.00" fill="#c084fc" opacity="0.68"/>
<rect x="786.94" y="180.00" width="6.44" height="510.00" fill="#c084fc" opacity="0.68"/>
<rect x="795.38" y="690.00" width="6.44" height="0.00" fill="#c084fc" opacity="0.68"/>
<rect x="803.81" y="690.00" width="6.44" height="0.00" fill="#c084fc" opacity="0.68"/>
<rect x="812.25" y="690.00" width="6.44" height="0.00" fill="#c084fc" opacity="0.68"/>
<rect x="820.69" y="690.00" width="6.44" height="0.00" fill="#c084fc" opacity="0.68"/>
<rect x="829.12" y="690.00" width="6.44" height="0.00" fill="#c084fc" opacity="0.68"/>
<rect x="837.56" y="690.00" width="6.44" height="0.00" fill="#c084fc" opacity="0.68"/>
<rect x="846.00" y="690.00" width="6.44" height="0.00" fill="#c084fc" opacity="0.68"/>
<rect x="854.44" y="690.00" width="6.44" height="0.00" fill="#c084fc" opacity="0.68"/>
<rect x="862.88" y="690.00" width="6.44" height="0.00" fill="#c084fc" opacity="0.68"/>
<rect x="871.31" y="690.00" width="6.44" height="0.00" fill="#c084fc" opacity="0.68"/>
<rect x="879.75" y="690.00" width="6.44" height="0.00" fill="#c084fc" opacity="0.68"/>
<rect x="888.19" y="690.00" width="6.44" height="0.00" fill="#c084fc" opacity="0.68"/>
<rect x="896.62" y="690.00" width="6.44" height="0.00" fill="#c084fc" opacity="0.68"/>
<rect x="905.06" y="690.00" width="6.44" height="0.00" fill="#c084fc" opacity="0.68"/>
<rect x="913.50" y="690.00" width="6.44" height="0.00" fill="#c084fc" opacity="0.68"/>
<rect x="921.94" y="690.00" width="6.44" height="0.00" fill="#c084fc" opacity="0.68"/>
<rect x="930.38" y="690.00" width="6.44" height="0.00" fill="#c084fc" opacity="0.68"/>
<rect x="938.81" y="690.00" width="6.44" height="0.00" fill="#c084fc" opacity="0.68"/>
<rect x="947.25" y="690.00" width="6.44" height="0.00" fill="#c084fc" opacity="0.68"/>
<rect x="955.69" y="690.00" width="6.44" height="0.00" fill="#c084fc" opacity="0.68"/>
<rect x="964.12" y="690.00" width="6.44" height="0.00" fill="#c084fc" opacity="0.68"/>
<rect x="972.56" y="690.00" width="6.44" height="0.00" fill="#c084fc" opacity="0.68"/>
<rect x="981.00" y="180.00" width="6.44" height="510.00" fill="#c084fc" opacity="0.68"/>
<rect x="989.44" y="690.00" width="6.44" height="0.00" fill="#c084fc" opacity="0.68"/>
<rect x="997.88" y="690.00" width="6.44" height="0.00" fill="#c084fc" opacity="0.68"/>
<rect x="1006.31" y="690.00" width="6.44" height="0.00" fill="#c084fc" opacity="0.68"/>
<rect x="1014.75" y="690.00" width="6.44" height="0.00" fill="#c084fc" opacity="0.68"/>
<rect x="1023.19" y="690.00" width="6.44" height="0.00" fill="#c084fc" opacity="0.68"/>
<rect x="1031.62" y="690.00" width="6.44" height="0.00" fill="#c084fc" opacity="0.68"/>
<rect x="1040.06" y="690.00" width="6.44" height="0.00" fill="#c084fc" opacity="0.68"/>
<rect x="1048.50" y="690.00" width="6.44" height="0.00" fill="#c084fc" opacity="0.68"/>
<rect x="1056.94" y="690.00" width="6.44" height="0.00" fill="#c084fc" opacity="0.68"/>
<rect x="1065.38" y="690.00" width="6.44" height="0.00" fill="#c084fc" opacity="0.68"/>
<rect x="1073.81" y="690.00" width="6.44" height="0.00" fill="#c084fc" opacity="0.68"/>
<rect x="1082.25" y="690.00" width="6.44" height="0.00" fill="#c084fc" opacity="0.68"/>
<rect x="1090.69" y="690.00" width="6.44" height="0.00" fill="#c084fc" opacity="0.68"/>
<rect x="1099.12" y="690.00" width="6.44" height="0.00" fill="#c084fc" opacity="0.68"/>
<rect x="1107.56" y="690.00" width="6.44" height="0.00" fill="#c084fc" opacity="0.68"/>
<rect x="1116.00" y="690.00" width="6.44" height="0.00" fill="#c084fc" opacity="0.68"/>
<rect x="1124.44" y="690.00" width="6.44" height="0.00" fill="#c084fc" opacity="0.68"/>
<rect x="1132.88" y="690.00" width="6.44" height="0.00" fill="#c084fc" opacity="0.68"/>
<rect x="1141.31" y="690.00" width="6.44" height="0.00" fill="#c084fc" opacity="0.68"/>
<rect x="1149.75" y="690.00" width="6.44" height="0.00" fill="#c084fc" opacity="0.68"/>
<rect x="1158.19" y="690.00" width="6.44" height="0.00" fill="#c084fc" opacity="0.68"/>
<rect x="1166.62" y="690.00" width="6.44" height="0.00" fill="#c084fc" opacity="0.68"/>
<rect x="1175.06" y="690.00" width="6.44" height="0.00" fill="#c084fc" opacity="0.68"/>
<rect x="1183.50" y="690.00" width="6.44" height="0.00" fill="#c084fc" opacity="0.68"/>
<rect x="1191.94" y="690.00" width="6.44" height="0.00" fill="#c084fc" opacity="0.68"/>
<rect x="1200.38" y="690.00" width="6.44" height="0.00" fill="#c084fc" opacity="0.68"/>
<rect x="1208.81" y="690.00" width="6.44" height="0.00" fill="#c084fc" opacity="0.68"/>
<rect x="1217.25" y="690.00" width="6.44" height="0.00" fill="#c084fc" opacity="0.68"/>
<rect x="1225.69" y="180.00" width="6.44" height="510.00" fill="#c084fc" opacity="0.68"/>
<rect x="1234.12" y="690.00" width="6.44" height="0.00" fill="#c084fc" opacity="0.68"/>
<rect x="1242.56" y="690.00" width="6.44" height="0.00" fill="#c084fc" opacity="0.68"/>
<text x="980.0" y="744.0" class="small" text-anchor="middle">state x</text>
<polyline points="110.84,180.00 111.69,180.00 112.53,180.00 113.38,180.00 114.22,204.77 115.06,246.70 115.91,279.26 116.75,305.49 117.59,327.19 118.44,345.53 119.28,361.30 120.12,375.05 120.97,387.16 121.81,397.94 122.66,407.62 123.50,416.37 124.34,424.33 125.19,431.60 126.03,438.29 126.88,444.47 127.72,450.19 128.56,455.52 129.41,460.49 130.25,465.14 131.09,469.50 131.94,473.61 132.78,477.48 133.62,481.14 134.47,484.60 135.31,487.89 136.16,491.01 137.00,493.98 137.84,496.82 138.69,499.52 139.53,502.11 140.38,504.58 141.22,506.96 142.06,509.23 142.91,511.41 143.75,513.51 144.59,515.53 145.44,517.48 146.28,519.35 147.12,521.16 147.97,522.91 148.81,524.60 149.66,526.23 150.50,527.81 151.34,529.33 152.19,530.81 153.03,532.25 153.88,533.64 154.72,534.99 155.56,536.30 156.41,537.57 157.25,538.81 158.09,540.02 158.94,541.19 159.78,542.33 160.62,543.44 161.47,544.52 162.31,545.57 163.16,546.60 164.00,547.60 164.84,548.58 165.69,549.53 166.53,550.46 167.38,551.37 168.22,552.26 169.06,553.12 169.91,553.97 170.75,554.80 171.59,555.61 172.44,556.40 173.28,557.18 174.12,557.94 174.97,558.68 175.81,559.41 176.66,560.13 177.50,560.83 178.34,561.51 179.19,562.18 180.03,562.84 180.88,563.49 181.72,564.12 182.56,564.74 183.41,565.35 184.25,565.95 185.09,566.53 185.94,567.11 186.78,567.68 187.62,568.23 188.47,568.78 189.31,569.31 190.16,569.84 191.00,570.36 191.84,570.87 192.69,571.37 193.53,571.86 194.38,572.34 195.22,572.82 196.06,573.29 196.91,573.75 197.75,574.20 198.59,574.64 199.44,575.08 200.28,575.51 201.12,575.94 201.97,576.35 202.81,576.76 203.66,577.17 204.50,577.57 205.34,577.96 206.19,578.35 207.03,578.73 207.88,579.10 208.72,579.47 209.56,579.84 210.41,580.19 211.25,580.55 212.09,580.90 212.94,581.24 213.78,581.58 214.62,581.91 215.47,582.24 216.31,582.56 217.16,582.88 218.00,583.20 218.84,583.51 219.69,583.82 220.53,584.12 221.38,584.42 222.22,584.71 223.06,585.00 223.91,585.29 224.75,585.57 225.59,585.85 226.44,586.12 227.28,586.39 228.12,586.66 228.97,586.92 229.81,587.18 230.66,587.44 231.50,587.70 232.34,587.95 233.19,588.19 234.03,588.44 234.88,588.68 235.72,588.92 236.56,589.15 237.41,589.38 238.25,589.61 239.09,589.84 239.94,590.06 240.78,590.28 241.62,590.50 242.47,590.71 243.31,590.92 244.16,591.13 245.00,591.34 245.84,591.55 246.69,591.75 247.53,591.95 248.38,592.14 249.22,592.34 250.06,592.53 250.91,592.72 251.75,592.91 252.59,593.09 253.44,593.27 254.28,593.45 255.12,593.63 255.97,593.81 256.81,593.98 257.66,594.15 258.50,594.32 259.34,594.49 260.19,594.66 261.03,594.82 261.88,594.98 262.72,595.14 263.56,595.30 264.41,595.46 265.25,595.61 266.09,595.76 266.94,595.91 267.78,596.06 268.62,596.21 269.47,596.35 270.31,596.50 271.16,596.64 272.00,596.78 272.84,596.91 273.69,597.05 274.53,597.18 275.38,597.32 276.22,597.45 277.06,597.58 277.91,597.71 278.75,597.83 279.59,597.96 280.44,598.08 281.28,598.20 282.12,598.32 282.97,598.44 283.81,598.56 284.66,598.68 285.50,598.79 286.34,598.90 287.19,599.01 288.03,599.12 288.88,599.23 289.72,599.34 290.56,599.45 291.41,599.55 292.25,599.65 293.09,599.76 293.94,599.86 294.78,599.96 295.62,600.05 296.47,600.15 297.31,600.25 298.16,600.34 299.00,600.43 299.84,600.53 300.69,600.62 301.53,600.70 302.38,600.79 303.22,600.88 304.06,600.96 304.91,601.05 305.75,601.13 306.59,601.21 307.44,601.30 308.28,601.38 309.12,601.45 309.97,601.53 310.81,601.61 311.66,601.68 312.50,601.76 313.34,601.83 314.19,601.90 315.03,601.97 315.88,602.04 316.72,602.11 317.56,602.18 318.41,602.24 319.25,602.31 320.09,602.37 320.94,602.44 321.78,602.50 322.62,602.56 323.47,602.62 324.31,602.68 325.16,602.74 326.00,602.80 326.84,602.85 327.69,602.91 328.53,602.96 329.38,603.02 330.22,603.07 331.06,603.12 331.91,603.17 332.75,603.22 333.59,603.27 334.44,603.32 335.28,603.36 336.12,603.41 336.97,603.45 337.81,603.50 338.66,603.54 339.50,603.58 340.34,603.62 341.19,603.66 342.03,603.70 342.88,603.74 343.72,603.78 344.56,603.81 345.41,603.85 346.25,603.88 347.09,603.92 347.94,603.95 348.78,603.98 349.62,604.01 350.47,604.04 351.31,604.07 352.16,604.10 353.00,604.13 353.84,604.16 354.69,604.18 355.53,604.21 356.38,604.23 357.22,604.25 358.06,604.28 358.91,604.30 359.75,604.32 360.59,604.34 361.44,604.36 362.28,604.37 363.12,604.39 363.97,604.41 364.81,604.42 365.66,604.44 366.50,604.45 367.34,604.46 368.19,604.48 369.03,604.49 369.88,604.50 370.72,604.51 371.56,604.52 372.41,604.53 373.25,604.53 374.09,604.54 374.94,604.54 375.78,604.55 376.62,604.55 377.47,604.56 378.31,604.56 379.16,604.56 380.00,604.56 380.84,604.56 381.69,604.56 382.53,604.56 383.38,604.55 384.22,604.55 385.06,604.54 385.91,604.54 386.75,604.53 387.59,604.53 388.44,604.52 389.28,604.51 390.12,604.50 390.97,604.49 391.81,604.48 392.66,604.46 393.50,604.45 394.34,604.44 395.19,604.42 396.03,604.41 396.88,604.39 397.72,604.37 398.56,604.36 399.41,604.34 400.25,604.32 401.09,604.30 401.94,604.28 402.78,604.25 403.62,604.23 404.47,604.21 405.31,604.18 406.16,604.16 407.00,604.13 407.84,604.10 408.69,604.07 409.53,604.04 410.38,604.01 411.22,603.98 412.06,603.95 412.91,603.92 413.75,603.88 414.59,603.85 415.44,603.81 416.28,603.78 417.12,603.74 417.97,603.70 418.81,603.66 419.66,603.62 420.50,603.58 421.34,603.54 422.19,603.50 423.03,603.45 423.88,603.41 424.72,603.36 425.56,603.32 426.41,603.27 427.25,603.22 428.09,603.17 428.94,603.12 429.78,603.07 430.62,603.02 431.47,602.96 432.31,602.91 433.16,602.85 434.00,602.80 434.84,602.74 435.69,602.68 436.53,602.62 437.38,602.56 438.22,602.50 439.06,602.44 439.91,602.37 440.75,602.31 441.59,602.24 442.44,602.18 443.28,602.11 444.12,602.04 444.97,601.97 445.81,601.90 446.66,601.83 447.50,601.76 448.34,601.68 449.19,601.61 450.03,601.53 450.88,601.45 451.72,601.38 452.56,601.30 453.41,601.21 454.25,601.13 455.09,601.05 455.94,600.96 456.78,600.88 457.62,600.79 458.47,600.70 459.31,600.62 460.16,600.53 461.00,600.43 461.84,600.34 462.69,600.25 463.53,600.15 464.38,600.05 465.22,599.96 466.06,599.86 466.91,599.76 467.75,599.65 468.59,599.55 469.44,599.45 470.28,599.34 471.12,599.23 471.97,599.12 472.81,599.01 473.66,598.90 474.50,598.79 475.34,598.68 476.19,598.56 477.03,598.44 477.88,598.32 478.72,598.20 479.56,598.08 480.41,597.96 481.25,597.83 482.09,597.71 482.94,597.58 483.78,597.45 484.62,597.32 485.47,597.18 486.31,597.05 487.16,596.91 488.00,596.78 488.84,596.64 489.69,596.50 490.53,596.35 491.38,596.21 492.22,596.06 493.06,595.91 493.91,595.76 494.75,595.61 495.59,595.46 496.44,595.30 497.28,595.14 498.12,594.98 498.97,594.82 499.81,594.66 500.66,594.49 501.50,594.32 502.34,594.15 503.19,593.98 504.03,593.81 504.88,593.63 505.72,593.45 506.56,593.27 507.41,593.09 508.25,592.91 509.09,592.72 509.94,592.53 510.78,592.34 511.62,592.14 512.47,591.95 513.31,591.75 514.16,591.55 515.00,591.34 515.84,591.13 516.69,590.92 517.53,590.71 518.38,590.50 519.22,590.28 520.06,590.06 520.91,589.84 521.75,589.61 522.59,589.38 523.44,589.15 524.28,588.92 525.12,588.68 525.97,588.44 526.81,588.19 527.66,587.95 528.50,587.70 529.34,587.44 530.19,587.18 531.03,586.92 531.88,586.66 532.72,586.39 533.56,586.12 534.41,585.85 535.25,585.57 536.09,585.29 536.94,585.00 537.78,584.71 538.62,584.42 539.47,584.12 540.31,583.82 541.16,583.51 542.00,583.20 542.84,582.88 543.69,582.56 544.53,582.24 545.38,581.91 546.22,581.58 547.06,581.24 547.91,580.90 548.75,580.55 549.59,580.19 550.44,579.84 551.28,579.47 552.12,579.10 552.97,578.73 553.81,578.35 554.66,577.96 555.50,577.57 556.34,577.17 557.19,576.76 558.03,576.35 558.88,575.94 559.72,575.51 560.56,575.08 561.41,574.64 562.25,574.20 563.09,573.75 563.94,573.29 564.78,572.82 565.62,572.34 566.47,571.86 567.31,571.37 568.16,570.87 569.00,570.36 569.84,569.84 570.69,569.31 571.53,568.78 572.38,568.23 573.22,567.68 574.06,567.11 574.91,566.53 575.75,565.95 576.59,565.35 577.44,564.74 578.28,564.12 579.12,563.49 579.97,562.84 580.81,562.18 581.66,561.51 582.50,560.83 583.34,560.13 584.19,559.41 585.03,558.68 585.88,557.94 586.72,557.18 587.56,556.40 588.41,555.61 589.25,554.80 590.09,553.97 590.94,553.12 591.78,552.26 592.62,551.37 593.47,550.46 594.31,549.53 595.16,548.58 596.00,547.60 596.84,546.60 597.69,545.57 598.53,544.52 599.38,543.44 600.22,542.33 601.06,541.19 601.91,540.02 602.75,538.81 603.59,537.57 604.44,536.30 605.28,534.99 606.12,533.64 606.97,532.25 607.81,530.81 608.66,529.33 609.50,527.81 610.34,526.23 611.19,524.60 612.03,522.91 612.88,521.16 613.72,519.35 614.56,517.48 615.41,515.53 616.25,513.51 617.09,511.41 617.94,509.23 618.78,506.96 619.62,504.58 620.47,502.11 621.31,499.52 622.16,496.82 623.00,493.98 623.84,491.01 624.69,487.89 625.53,484.60 626.38,481.14 627.22,477.48 628.06,473.61 628.91,469.50 629.75,465.14 630.59,460.49 631.44,455.52 632.28,450.19 633.12,444.47 633.97,438.29 634.81,431.60 635.66,424.33 636.50,416.37 637.34,407.62 638.19,397.94 639.03,387.16 639.88,375.05 640.72,361.30 641.56,345.53 642.41,327.19 643.25,305.49 644.09,279.26 644.94,246.70 645.78,204.77 646.62,180.00 647.47,180.00 648.31,180.00 649.16,180.00" fill="none" stroke="#f97316" stroke-width="3.2" stroke-linejoin="round" stroke-linecap="round"/>
<text x="410.0" y="214.0" class="small" text-anchor="start"><tspan x="410.0" dy="0">orange curve = exact density 1 / (π√(x(1-x)))</tspan><tspan x="410.0" dy="20.0">blue bars = long-run histogram from 50,000 iterates</tspan></text>
<text x="988.0" y="214.0" class="small" text-anchor="start"><tspan x="988.0" dy="0">the mass collapses into a few spikes because</tspan><tspan x="988.0" dy="20.0">the orbit falls into a period-3 window</tspan></text>
<text x="42.0" y="435.0" class="small" text-anchor="middle" transform="rotate(-90 42 435.0)">density</text>
</svg>
