<svg xmlns="http://www.w3.org/2000/svg" viewBox="0 0 1460 760">
<defs>
  <linearGradient id="bg" x1="0" y1="0" x2="1" y2="1">
    <stop offset="0%" stop-color="#081018"/>
    <stop offset="100%" stop-color="#101d2a"/>
  </linearGradient>
  <style>
    .title { font: 700 34px Helvetica, Arial, sans-serif; fill: #e6edf3; }
    .subtitle { font: 500 18px Helvetica, Arial, sans-serif; fill: #9fb3c8; }
    .label { font: 600 18px Helvetica, Arial, sans-serif; fill: #dce7f3; }
    .small { font: 500 15px Helvetica, Arial, sans-serif; fill: #9fb3c8; }
    .axis { stroke: #39516a; stroke-width: 2; }
    .grid { stroke: #223445; stroke-width: 1; opacity: 0.8; }
    .panel { fill: #122131; stroke: #5e7fa3; stroke-width: 2; rx: 18; }
  </style>
</defs>
<rect width="1460" height="760" fill="url(#bg)"/>
<text x="60.0" y="58.0" class="title" text-anchor="start">Orbit-density contrast in the logistic map</text>
<text x="60.0" y="88.0" class="subtitle" text-anchor="start">At r = 4 the chaotic invariant measure piles up near the edges. In a period-3 window the mass collapses onto a few bands.</text>
<rect x="90" y="150" width="610" height="510" class="panel"/>
<text x="90.0" y="132.0" class="label" text-anchor="start">r = 4.0</text>
<text x="185.0" y="132.0" class="small" text-anchor="start">empirical histogram plus exact invariant density</text>
<line x1="90.0" y1="150.0" x2="90.0" y2="660.0" class="grid"/>
<text x="90.0" y="686.0" class="small" text-anchor="middle">0</text>
<line x1="242.5" y1="150.0" x2="242.5" y2="660.0" class="grid"/>
<text x="242.5" y="686.0" class="small" text-anchor="middle">0.25</text>
<line x1="395.0" y1="150.0" x2="395.0" y2="660.0" class="grid"/>
<text x="395.0" y="686.0" class="small" text-anchor="middle">0.5</text>
<line x1="547.5" y1="150.0" x2="547.5" y2="660.0" class="grid"/>
<text x="547.5" y="686.0" class="small" text-anchor="middle">0.75</text>
<line x1="700.0" y1="150.0" x2="700.0" y2="660.0" class="grid"/>
<text x="700.0" y="686.0" class="small" text-anchor="middle">1</text>
<line x1="90.0" y1="660.0" x2="700.0" y2="660.0" class="grid"/>
<text x="48.0" y="665.0" class="small" text-anchor="start">0</text>
<line x1="90.0" y1="525.8" x2="700.0" y2="525.8" class="grid"/>
<text x="48.0" y="530.8" class="small" text-anchor="start">1</text>
<line x1="90.0" y1="391.6" x2="700.0" y2="391.6" class="grid"/>
<text x="48.0" y="396.6" class="small" text-anchor="start">2</text>
<line x1="90.0" y1="257.4" x2="700.0" y2="257.4" class="grid"/>
<text x="48.0" y="262.4" class="small" text-anchor="start">3</text>
<line x1="90.0" y1="660.0" x2="700.0" y2="660.0" class="axis"/>
<line x1="90.0" y1="150.0" x2="90.0" y2="660.0" class="axis"/>
<rect x="91.00" y="-0.02" width="7.53" height="660.02" fill="#7dd3fc" opacity="0.68"/>
<rect x="100.53" y="378.61" width="7.53" height="281.39" fill="#7dd3fc" opacity="0.68"/>
<rect x="110.06" y="432.04" width="7.53" height="227.96" fill="#7dd3fc" opacity="0.68"/>
<rect x="119.59" y="476.70" width="7.53" height="183.30" fill="#7dd3fc" opacity="0.68"/>
<rect x="129.12" y="492.68" width="7.53" height="167.32" fill="#7dd3fc" opacity="0.68"/>
<rect x="138.66" y="505.22" width="7.53" height="154.78" fill="#7dd3fc" opacity="0.68"/>
<rect x="148.19" y="511.92" width="7.53" height="148.08" fill="#7dd3fc" opacity="0.68"/>
<rect x="157.72" y="526.69" width="7.53" height="133.31" fill="#7dd3fc" opacity="0.68"/>
<rect x="167.25" y="530.30" width="7.53" height="129.70" fill="#7dd3fc" opacity="0.68"/>
<rect x="176.78" y="544.90" width="7.53" height="115.10" fill="#7dd3fc" opacity="0.68"/>
<rect x="186.31" y="542.67" width="7.53" height="117.33" fill="#7dd3fc" opacity="0.68"/>
<rect x="195.84" y="546.45" width="7.53" height="113.55" fill="#7dd3fc" opacity="0.68"/>
<rect x="205.38" y="557.44" width="7.53" height="102.56" fill="#7dd3fc" opacity="0.68"/>
<rect x="214.91" y="560.88" width="7.53" height="99.12" fill="#7dd3fc" opacity="0.68"/>
<rect x="224.44" y="559.50" width="7.53" height="100.50" fill="#7dd3fc" opacity="0.68"/>
<rect x="233.97" y="564.66" width="7.53" height="95.34" fill="#7dd3fc" opacity="0.68"/>
<rect x="243.50" y="561.91" width="7.53" height="98.09" fill="#7dd3fc" opacity="0.68"/>
<rect x="253.03" y="556.75" width="7.53" height="103.25" fill="#7dd3fc" opacity="0.68"/>
<rect x="262.56" y="558.30" width="7.53" height="101.70" fill="#7dd3fc" opacity="0.68"/>
<rect x="272.09" y="567.06" width="7.53" height="92.94" fill="#7dd3fc" opacity="0.68"/>
<rect x="281.62" y="568.78" width="7.53" height="91.22" fill="#7dd3fc" opacity="0.68"/>
<rect x="291.16" y="571.18" width="7.53" height="88.82" fill="#7dd3fc" opacity="0.68"/>
<rect x="300.69" y="566.72" width="7.53" height="93.28" fill="#7dd3fc" opacity="0.68"/>
<rect x="310.22" y="567.75" width="7.53" height="92.25" fill="#7dd3fc" opacity="0.68"/>
<rect x="319.75" y="576.17" width="7.53" height="83.83" fill="#7dd3fc" opacity="0.68"/>
<rect x="329.28" y="574.79" width="7.53" height="85.21" fill="#7dd3fc" opacity="0.68"/>
<rect x="338.81" y="566.72" width="7.53" height="93.28" fill="#7dd3fc" opacity="0.68"/>
<rect x="348.34" y="572.04" width="7.53" height="87.96" fill="#7dd3fc" opacity="0.68"/>
<rect x="357.88" y="577.20" width="7.53" height="82.80" fill="#7dd3fc" opacity="0.68"/>
<rect x="367.41" y="570.15" width="7.53" height="89.85" fill="#7dd3fc" opacity="0.68"/>
<rect x="376.94" y="572.22" width="7.53" height="87.78" fill="#7dd3fc" opacity="0.68"/>
<rect x="386.47" y="580.46" width="7.53" height="79.54" fill="#7dd3fc" opacity="0.68"/>
<rect x="396.00" y="578.74" width="7.53" height="81.26" fill="#7dd3fc" opacity="0.68"/>
<rect x="405.53" y="578.06" width="7.53" height="81.94" fill="#7dd3fc" opacity="0.68"/>
<rect x="415.06" y="574.62" width="7.53" height="85.38" fill="#7dd3fc" opacity="0.68"/>
<rect x="424.59" y="568.61" width="7.53" height="91.39" fill="#7dd3fc" opacity="0.68"/>
<rect x="434.12" y="567.23" width="7.53" height="92.77" fill="#7dd3fc" opacity="0.68"/>
<rect x="443.66" y="572.90" width="7.53" height="87.10" fill="#7dd3fc" opacity="0.68"/>
<rect x="453.19" y="573.59" width="7.53" height="86.41" fill="#7dd3fc" opacity="0.68"/>
<rect x="462.72" y="575.14" width="7.53" height="84.86" fill="#7dd3fc" opacity="0.68"/>
<rect x="472.25" y="569.64" width="7.53" height="90.36" fill="#7dd3fc" opacity="0.68"/>
<rect x="481.78" y="572.39" width="7.53" height="87.61" fill="#7dd3fc" opacity="0.68"/>
<rect x="491.31" y="565.52" width="7.53" height="94.48" fill="#7dd3fc" opacity="0.68"/>
<rect x="500.84" y="568.09" width="7.53" height="91.91" fill="#7dd3fc" opacity="0.68"/>
<rect x="510.38" y="574.28" width="7.53" height="85.72" fill="#7dd3fc" opacity="0.68"/>
<rect x="519.91" y="566.89" width="7.53" height="93.11" fill="#7dd3fc" opacity="0.68"/>
<rect x="529.44" y="562.60" width="7.53" height="97.40" fill="#7dd3fc" opacity="0.68"/>
<rect x="538.97" y="563.45" width="7.53" height="96.55" fill="#7dd3fc" opacity="0.68"/>
<rect x="548.50" y="556.41" width="7.53" height="103.59" fill="#7dd3fc" opacity="0.68"/>
<rect x="558.03" y="562.94" width="7.53" height="97.06" fill="#7dd3fc" opacity="0.68"/>
<rect x="567.56" y="546.96" width="7.53" height="113.04" fill="#7dd3fc" opacity="0.68"/>
<rect x="577.09" y="549.20" width="7.53" height="110.80" fill="#7dd3fc" opacity="0.68"/>
<rect x="586.62" y="547.48" width="7.53" height="112.52" fill="#7dd3fc" opacity="0.68"/>
<rect x="596.16" y="542.15" width="7.53" height="117.85" fill="#7dd3fc" opacity="0.68"/>
<rect x="605.69" y="546.10" width="7.53" height="113.90" fill="#7dd3fc" opacity="0.68"/>
<rect x="615.22" y="533.73" width="7.53" height="126.27" fill="#7dd3fc" opacity="0.68"/>
<rect x="624.75" y="522.57" width="7.53" height="137.43" fill="#7dd3fc" opacity="0.68"/>
<rect x="634.28" y="522.74" width="7.53" height="137.26" fill="#7dd3fc" opacity="0.68"/>
<rect x="643.81" y="503.67" width="7.53" height="156.33" fill="#7dd3fc" opacity="0.68"/>
<rect x="653.34" y="487.35" width="7.53" height="172.65" fill="#7dd3fc" opacity="0.68"/>
<rect x="662.88" y="479.62" width="7.53" height="180.38" fill="#7dd3fc" opacity="0.68"/>
<rect x="672.41" y="437.53" width="7.53" height="222.47" fill="#7dd3fc" opacity="0.68"/>
<rect x="681.94" y="361.43" width="7.53" height="298.57" fill="#7dd3fc" opacity="0.68"/>
<rect x="691.47" y="-19.94" width="7.53" height="679.94" fill="#7dd3fc" opacity="0.68"/>
<text x="395.0" y="714.0" class="small" text-anchor="middle">state x</text>
<rect x="760" y="150" width="610" height="510" class="panel"/>
<text x="760.0" y="132.0" class="label" text-anchor="start">r = 3.83</text>
<text x="855.0" y="132.0" class="small" text-anchor="start">period-3 window: the orbit keeps revisiting a few narrow bands</text>
<line x1="760.0" y1="150.0" x2="760.0" y2="660.0" class="grid"/>
<text x="760.0" y="686.0" class="small" text-anchor="middle">0</text>
<line x1="912.5" y1="150.0" x2="912.5" y2="660.0" class="grid"/>
<text x="912.5" y="686.0" class="small" text-anchor="middle">0.25</text>
<line x1="1065.0" y1="150.0" x2="1065.0" y2="660.0" class="grid"/>
<text x="1065.0" y="686.0" class="small" text-anchor="middle">0.5</text>
<line x1="1217.5" y1="150.0" x2="1217.5" y2="660.0" class="grid"/>
<text x="1217.5" y="686.0" class="small" text-anchor="middle">0.75</text>
<line x1="1370.0" y1="150.0" x2="1370.0" y2="660.0" class="grid"/>
<text x="1370.0" y="686.0" class="small" text-anchor="middle">1</text>
<line x1="760.0" y1="660.0" x2="1370.0" y2="660.0" class="grid"/>
<text x="718.0" y="665.0" class="small" text-anchor="start">0</text>
<line x1="760.0" y1="623.6" x2="1370.0" y2="623.6" class="grid"/>
<text x="718.0" y="628.6" class="small" text-anchor="start">1</text>
<line x1="760.0" y1="587.1" x2="1370.0" y2="587.1" class="grid"/>
<text x="718.0" y="592.1" class="small" text-anchor="start">2</text>
<line x1="760.0" y1="550.7" x2="1370.0" y2="550.7" class="grid"/>
<text x="718.0" y="555.7" class="small" text-anchor="start">3</text>
<line x1="760.0" y1="514.3" x2="1370.0" y2="514.3" class="grid"/>
<text x="718.0" y="519.3" class="small" text-anchor="start">4</text>
<line x1="760.0" y1="477.9" x2="1370.0" y2="477.9" class="grid"/>
<text x="718.0" y="482.9" class="small" text-anchor="start">5</text>
<line x1="760.0" y1="441.4" x2="1370.0" y2="441.4" class="grid"/>
<text x="718.0" y="446.4" class="small" text-anchor="start">6</text>
<line x1="760.0" y1="405.0" x2="1370.0" y2="405.0" class="grid"/>
<text x="718.0" y="410.0" class="small" text-anchor="start">7</text>
<line x1="760.0" y1="368.6" x2="1370.0" y2="368.6" class="grid"/>
<text x="718.0" y="373.6" class="small" text-anchor="start">8</text>
<line x1="760.0" y1="332.1" x2="1370.0" y2="332.1" class="grid"/>
<text x="718.0" y="337.1" class="small" text-anchor="start">9</text>
<line x1="760.0" y1="295.7" x2="1370.0" y2="295.7" class="grid"/>
<text x="718.0" y="300.7" class="small" text-anchor="start">10</text>
<line x1="760.0" y1="259.3" x2="1370.0" y2="259.3" class="grid"/>
<text x="718.0" y="264.3" class="small" text-anchor="start">11</text>
<line x1="760.0" y1="222.9" x2="1370.0" y2="222.9" class="grid"/>
<text x="718.0" y="227.9" class="small" text-anchor="start">12</text>
<line x1="760.0" y1="186.4" x2="1370.0" y2="186.4" class="grid"/>
<text x="718.0" y="191.4" class="small" text-anchor="start">13</text>
<line x1="760.0" y1="150.0" x2="1370.0" y2="150.0" class="grid"/>
<text x="718.0" y="155.0" class="small" text-anchor="start">14</text>
<line x1="760.0" y1="660.0" x2="1370.0" y2="660.0" class="axis"/>
<line x1="760.0" y1="150.0" x2="760.0" y2="660.0" class="axis"/>
<rect x="761.00" y="660.00" width="7.53" height="0.00" fill="#c084fc" opacity="0.68"/>
<rect x="770.53" y="660.00" width="7.53" height="0.00" fill="#c084fc" opacity="0.68"/>
<rect x="780.06" y="660.00" width="7.53" height="0.00" fill="#c084fc" opacity="0.68"/>
<rect x="789.59" y="660.00" width="7.53" height="0.00" fill="#c084fc" opacity="0.68"/>
<rect x="799.12" y="660.00" width="7.53" height="0.00" fill="#c084fc" opacity="0.68"/>
<rect x="808.66" y="660.00" width="7.53" height="0.00" fill="#c084fc" opacity="0.68"/>
<rect x="818.19" y="660.00" width="7.53" height="0.00" fill="#c084fc" opacity="0.68"/>
<rect x="827.72" y="660.00" width="7.53" height="0.00" fill="#c084fc" opacity="0.68"/>
<rect x="837.25" y="660.00" width="7.53" height="0.00" fill="#c084fc" opacity="0.68"/>
<rect x="846.78" y="-117.14" width="7.53" height="777.14" fill="#c084fc" opacity="0.68"/>
<rect x="856.31" y="660.00" width="7.53" height="0.00" fill="#c084fc" opacity="0.68"/>
<rect x="865.84" y="660.00" width="7.53" height="0.00" fill="#c084fc" opacity="0.68"/>
<rect x="875.38" y="660.00" width="7.53" height="0.00" fill="#c084fc" opacity="0.68"/>
<rect x="884.91" y="660.00" width="7.53" height="0.00" fill="#c084fc" opacity="0.68"/>
<rect x="894.44" y="660.00" width="7.53" height="0.00" fill="#c084fc" opacity="0.68"/>
<rect x="903.97" y="660.00" width="7.53" height="0.00" fill="#c084fc" opacity="0.68"/>
<rect x="913.50" y="660.00" width="7.53" height="0.00" fill="#c084fc" opacity="0.68"/>
<rect x="923.03" y="660.00" width="7.53" height="0.00" fill="#c084fc" opacity="0.68"/>
<rect x="932.56" y="660.00" width="7.53" height="0.00" fill="#c084fc" opacity="0.68"/>
<rect x="942.09" y="660.00" width="7.53" height="0.00" fill="#c084fc" opacity="0.68"/>
<rect x="951.62" y="660.00" width="7.53" height="0.00" fill="#c084fc" opacity="0.68"/>
<rect x="961.16" y="660.00" width="7.53" height="0.00" fill="#c084fc" opacity="0.68"/>
<rect x="970.69" y="660.00" width="7.53" height="0.00" fill="#c084fc" opacity="0.68"/>
<rect x="980.22" y="660.00" width="7.53" height="0.00" fill="#c084fc" opacity="0.68"/>
<rect x="989.75" y="660.00" width="7.53" height="0.00" fill="#c084fc" opacity="0.68"/>
<rect x="999.28" y="660.00" width="7.53" height="0.00" fill="#c084fc" opacity="0.68"/>
<rect x="1008.81" y="660.00" width="7.53" height="0.00" fill="#c084fc" opacity="0.68"/>
<rect x="1018.34" y="660.00" width="7.53" height="0.00" fill="#c084fc" opacity="0.68"/>
<rect x="1027.88" y="660.00" width="7.53" height="0.00" fill="#c084fc" opacity="0.68"/>
<rect x="1037.41" y="660.00" width="7.53" height="0.00" fill="#c084fc" opacity="0.68"/>
<rect x="1046.94" y="660.00" width="7.53" height="0.00" fill="#c084fc" opacity="0.68"/>
<rect x="1056.47" y="660.00" width="7.53" height="0.00" fill="#c084fc" opacity="0.68"/>
<rect x="1066.00" y="-117.14" width="7.53" height="777.14" fill="#c084fc" opacity="0.68"/>
<rect x="1075.53" y="660.00" width="7.53" height="0.00" fill="#c084fc" opacity="0.68"/>
<rect x="1085.06" y="660.00" width="7.53" height="0.00" fill="#c084fc" opacity="0.68"/>
<rect x="1094.59" y="660.00" width="7.53" height="0.00" fill="#c084fc" opacity="0.68"/>
<rect x="1104.12" y="660.00" width="7.53" height="0.00" fill="#c084fc" opacity="0.68"/>
<rect x="1113.66" y="660.00" width="7.53" height="0.00" fill="#c084fc" opacity="0.68"/>
<rect x="1123.19" y="660.00" width="7.53" height="0.00" fill="#c084fc" opacity="0.68"/>
<rect x="1132.72" y="660.00" width="7.53" height="0.00" fill="#c084fc" opacity="0.68"/>
<rect x="1142.25" y="660.00" width="7.53" height="0.00" fill="#c084fc" opacity="0.68"/>
<rect x="1151.78" y="660.00" width="7.53" height="0.00" fill="#c084fc" opacity="0.68"/>
<rect x="1161.31" y="660.00" width="7.53" height="0.00" fill="#c084fc" opacity="0.68"/>
<rect x="1170.84" y="660.00" width="7.53" height="0.00" fill="#c084fc" opacity="0.68"/>
<rect x="1180.38" y="660.00" width="7.53" height="0.00" fill="#c084fc" opacity="0.68"/>
<rect x="1189.91" y="660.00" width="7.53" height="0.00" fill="#c084fc" opacity="0.68"/>
<rect x="1199.44" y="660.00" width="7.53" height="0.00" fill="#c084fc" opacity="0.68"/>
<rect x="1208.97" y="660.00" width="7.53" height="0.00" fill="#c084fc" opacity="0.68"/>
<rect x="1218.50" y="660.00" width="7.53" height="0.00" fill="#c084fc" opacity="0.68"/>
<rect x="1228.03" y="660.00" width="7.53" height="0.00" fill="#c084fc" opacity="0.68"/>
<rect x="1237.56" y="660.00" width="7.53" height="0.00" fill="#c084fc" opacity="0.68"/>
<rect x="1247.09" y="660.00" width="7.53" height="0.00" fill="#c084fc" opacity="0.68"/>
<rect x="1256.62" y="660.00" width="7.53" height="0.00" fill="#c084fc" opacity="0.68"/>
<rect x="1266.16" y="660.00" width="7.53" height="0.00" fill="#c084fc" opacity="0.68"/>
<rect x="1275.69" y="660.00" width="7.53" height="0.00" fill="#c084fc" opacity="0.68"/>
<rect x="1285.22" y="660.00" width="7.53" height="0.00" fill="#c084fc" opacity="0.68"/>
<rect x="1294.75" y="660.00" width="7.53" height="0.00" fill="#c084fc" opacity="0.68"/>
<rect x="1304.28" y="660.00" width="7.53" height="0.00" fill="#c084fc" opacity="0.68"/>
<rect x="1313.81" y="660.00" width="7.53" height="0.00" fill="#c084fc" opacity="0.68"/>
<rect x="1323.34" y="660.00" width="7.53" height="0.00" fill="#c084fc" opacity="0.68"/>
<rect x="1332.88" y="660.00" width="7.53" height="0.00" fill="#c084fc" opacity="0.68"/>
<rect x="1342.41" y="-117.14" width="7.53" height="777.14" fill="#c084fc" opacity="0.68"/>
<rect x="1351.94" y="660.00" width="7.53" height="0.00" fill="#c084fc" opacity="0.68"/>
<rect x="1361.47" y="660.00" width="7.53" height="0.00" fill="#c084fc" opacity="0.68"/>
<text x="1065.0" y="714.0" class="small" text-anchor="middle">state x</text>
<polyline points="90.95,150.00 91.91,150.00 92.86,150.00 93.81,150.00 94.77,174.77 95.72,216.70 96.67,249.26 97.62,275.49 98.58,297.19 99.53,315.53 100.48,331.30 101.44,345.05 102.39,357.16 103.34,367.94 104.30,377.62 105.25,386.37 106.20,394.33 107.16,401.60 108.11,408.29 109.06,414.47 110.02,420.19 110.97,425.52 111.92,430.49 112.88,435.14 113.83,439.50 114.78,443.61 115.73,447.48 116.69,451.14 117.64,454.60 118.59,457.89 119.55,461.01 120.50,463.98 121.45,466.82 122.41,469.52 123.36,472.11 124.31,474.58 125.27,476.96 126.22,479.23 127.17,481.41 128.12,483.51 129.08,485.53 130.03,487.48 130.98,489.35 131.94,491.16 132.89,492.91 133.84,494.60 134.80,496.23 135.75,497.81 136.70,499.33 137.66,500.81 138.61,502.25 139.56,503.64 140.52,504.99 141.47,506.30 142.42,507.57 143.38,508.81 144.33,510.02 145.28,511.19 146.23,512.33 147.19,513.44 148.14,514.52 149.09,515.57 150.05,516.60 151.00,517.60 151.95,518.58 152.91,519.53 153.86,520.46 154.81,521.37 155.77,522.26 156.72,523.12 157.67,523.97 158.62,524.80 159.58,525.61 160.53,526.40 161.48,527.18 162.44,527.94 163.39,528.68 164.34,529.41 165.30,530.13 166.25,530.83 167.20,531.51 168.16,532.18 169.11,532.84 170.06,533.49 171.02,534.12 171.97,534.74 172.92,535.35 173.88,535.95 174.83,536.53 175.78,537.11 176.73,537.68 177.69,538.23 178.64,538.78 179.59,539.31 180.55,539.84 181.50,540.36 182.45,540.87 183.41,541.37 184.36,541.86 185.31,542.34 186.27,542.82 187.22,543.29 188.17,543.75 189.12,544.20 190.08,544.64 191.03,545.08 191.98,545.51 192.94,545.94 193.89,546.35 194.84,546.76 195.80,547.17 196.75,547.57 197.70,547.96 198.66,548.35 199.61,548.73 200.56,549.10 201.52,549.47 202.47,549.84 203.42,550.19 204.38,550.55 205.33,550.90 206.28,551.24 207.23,551.58 208.19,551.91 209.14,552.24 210.09,552.56 211.05,552.88 212.00,553.20 212.95,553.51 213.91,553.82 214.86,554.12 215.81,554.42 216.77,554.71 217.72,555.00 218.67,555.29 219.62,555.57 220.58,555.85 221.53,556.12 222.48,556.39 223.44,556.66 224.39,556.92 225.34,557.18 226.30,557.44 227.25,557.70 228.20,557.95 229.16,558.19 230.11,558.44 231.06,558.68 232.02,558.92 232.97,559.15 233.92,559.38 234.88,559.61 235.83,559.84 236.78,560.06 237.73,560.28 238.69,560.50 239.64,560.71 240.59,560.92 241.55,561.13 242.50,561.34 243.45,561.55 244.41,561.75 245.36,561.95 246.31,562.14 247.27,562.34 248.22,562.53 249.17,562.72 250.12,562.91 251.08,563.09 252.03,563.27 252.98,563.45 253.94,563.63 254.89,563.81 255.84,563.98 256.80,564.15 257.75,564.32 258.70,564.49 259.66,564.66 260.61,564.82 261.56,564.98 262.52,565.14 263.47,565.30 264.42,565.46 265.38,565.61 266.33,565.76 267.28,565.91 268.23,566.06 269.19,566.21 270.14,566.35 271.09,566.50 272.05,566.64 273.00,566.78 273.95,566.91 274.91,567.05 275.86,567.18 276.81,567.32 277.77,567.45 278.72,567.58 279.67,567.71 280.62,567.83 281.58,567.96 282.53,568.08 283.48,568.20 284.44,568.32 285.39,568.44 286.34,568.56 287.30,568.68 288.25,568.79 289.20,568.90 290.16,569.01 291.11,569.12 292.06,569.23 293.02,569.34 293.97,569.45 294.92,569.55 295.88,569.65 296.83,569.76 297.78,569.86 298.73,569.96 299.69,570.05 300.64,570.15 301.59,570.25 302.55,570.34 303.50,570.43 304.45,570.53 305.41,570.62 306.36,570.70 307.31,570.79 308.27,570.88 309.22,570.96 310.17,571.05 311.12,571.13 312.08,571.21 313.03,571.30 313.98,571.38 314.94,571.45 315.89,571.53 316.84,571.61 317.80,571.68 318.75,571.76 319.70,571.83 320.66,571.90 321.61,571.97 322.56,572.04 323.52,572.11 324.47,572.18 325.42,572.24 326.38,572.31 327.33,572.37 328.28,572.44 329.23,572.50 330.19,572.56 331.14,572.62 332.09,572.68 333.05,572.74 334.00,572.80 334.95,572.85 335.91,572.91 336.86,572.96 337.81,573.02 338.77,573.07 339.72,573.12 340.67,573.17 341.62,573.22 342.58,573.27 343.53,573.32 344.48,573.36 345.44,573.41 346.39,573.45 347.34,573.50 348.30,573.54 349.25,573.58 350.20,573.62 351.16,573.66 352.11,573.70 353.06,573.74 354.02,573.78 354.97,573.81 355.92,573.85 356.88,573.88 357.83,573.92 358.78,573.95 359.73,573.98 360.69,574.01 361.64,574.04 362.59,574.07 363.55,574.10 364.50,574.13 365.45,574.16 366.41,574.18 367.36,574.21 368.31,574.23 369.27,574.25 370.22,574.28 371.17,574.30 372.12,574.32 373.08,574.34 374.03,574.36 374.98,574.37 375.94,574.39 376.89,574.41 377.84,574.42 378.80,574.44 379.75,574.45 380.70,574.46 381.66,574.48 382.61,574.49 383.56,574.50 384.52,574.51 385.47,574.52 386.42,574.53 387.38,574.53 388.33,574.54 389.28,574.54 390.23,574.55 391.19,574.55 392.14,574.56 393.09,574.56 394.05,574.56 395.00,574.56 395.95,574.56 396.91,574.56 397.86,574.56 398.81,574.55 399.77,574.55 400.72,574.54 401.67,574.54 402.62,574.53 403.58,574.53 404.53,574.52 405.48,574.51 406.44,574.50 407.39,574.49 408.34,574.48 409.30,574.46 410.25,574.45 411.20,574.44 412.16,574.42 413.11,574.41 414.06,574.39 415.02,574.37 415.97,574.36 416.92,574.34 417.88,574.32 418.83,574.30 419.78,574.28 420.73,574.25 421.69,574.23 422.64,574.21 423.59,574.18 424.55,574.16 425.50,574.13 426.45,574.10 427.41,574.07 428.36,574.04 429.31,574.01 430.27,573.98 431.22,573.95 432.17,573.92 433.12,573.88 434.08,573.85 435.03,573.81 435.98,573.78 436.94,573.74 437.89,573.70 438.84,573.66 439.80,573.62 440.75,573.58 441.70,573.54 442.66,573.50 443.61,573.45 444.56,573.41 445.52,573.36 446.47,573.32 447.42,573.27 448.38,573.22 449.33,573.17 450.28,573.12 451.23,573.07 452.19,573.02 453.14,572.96 454.09,572.91 455.05,572.85 456.00,572.80 456.95,572.74 457.91,572.68 458.86,572.62 459.81,572.56 460.77,572.50 461.72,572.44 462.67,572.37 463.62,572.31 464.58,572.24 465.53,572.18 466.48,572.11 467.44,572.04 468.39,571.97 469.34,571.90 470.30,571.83 471.25,571.76 472.20,571.68 473.16,571.61 474.11,571.53 475.06,571.45 476.02,571.38 476.97,571.30 477.92,571.21 478.88,571.13 479.83,571.05 480.78,570.96 481.73,570.88 482.69,570.79 483.64,570.70 484.59,570.62 485.55,570.53 486.50,570.43 487.45,570.34 488.41,570.25 489.36,570.15 490.31,570.05 491.27,569.96 492.22,569.86 493.17,569.76 494.12,569.65 495.08,569.55 496.03,569.45 496.98,569.34 497.94,569.23 498.89,569.12 499.84,569.01 500.80,568.90 501.75,568.79 502.70,568.68 503.66,568.56 504.61,568.44 505.56,568.32 506.52,568.20 507.47,568.08 508.42,567.96 509.38,567.83 510.33,567.71 511.28,567.58 512.23,567.45 513.19,567.32 514.14,567.18 515.09,567.05 516.05,566.91 517.00,566.78 517.95,566.64 518.91,566.50 519.86,566.35 520.81,566.21 521.77,566.06 522.72,565.91 523.67,565.76 524.62,565.61 525.58,565.46 526.53,565.30 527.48,565.14 528.44,564.98 529.39,564.82 530.34,564.66 531.30,564.49 532.25,564.32 533.20,564.15 534.16,563.98 535.11,563.81 536.06,563.63 537.02,563.45 537.97,563.27 538.92,563.09 539.88,562.91 540.83,562.72 541.78,562.53 542.73,562.34 543.69,562.14 544.64,561.95 545.59,561.75 546.55,561.55 547.50,561.34 548.45,561.13 549.41,560.92 550.36,560.71 551.31,560.50 552.27,560.28 553.22,560.06 554.17,559.84 555.12,559.61 556.08,559.38 557.03,559.15 557.98,558.92 558.94,558.68 559.89,558.44 560.84,558.19 561.80,557.95 562.75,557.70 563.70,557.44 564.66,557.18 565.61,556.92 566.56,556.66 567.52,556.39 568.47,556.12 569.42,555.85 570.38,555.57 571.33,555.29 572.28,555.00 573.23,554.71 574.19,554.42 575.14,554.12 576.09,553.82 577.05,553.51 578.00,553.20 578.95,552.88 579.91,552.56 580.86,552.24 581.81,551.91 582.77,551.58 583.72,551.24 584.67,550.90 585.62,550.55 586.58,550.19 587.53,549.84 588.48,549.47 589.44,549.10 590.39,548.73 591.34,548.35 592.30,547.96 593.25,547.57 594.20,547.17 595.16,546.76 596.11,546.35 597.06,545.94 598.02,545.51 598.97,545.08 599.92,544.64 600.88,544.20 601.83,543.75 602.78,543.29 603.73,542.82 604.69,542.34 605.64,541.86 606.59,541.37 607.55,540.87 608.50,540.36 609.45,539.84 610.41,539.31 611.36,538.78 612.31,538.23 613.27,537.68 614.22,537.11 615.17,536.53 616.12,535.95 617.08,535.35 618.03,534.74 618.98,534.12 619.94,533.49 620.89,532.84 621.84,532.18 622.80,531.51 623.75,530.83 624.70,530.13 625.66,529.41 626.61,528.68 627.56,527.94 628.52,527.18 629.47,526.40 630.42,525.61 631.38,524.80 632.33,523.97 633.28,523.12 634.23,522.26 635.19,521.37 636.14,520.46 637.09,519.53 638.05,518.58 639.00,517.60 639.95,516.60 640.91,515.57 641.86,514.52 642.81,513.44 643.77,512.33 644.72,511.19 645.67,510.02 646.62,508.81 647.58,507.57 648.53,506.30 649.48,504.99 650.44,503.64 651.39,502.25 652.34,500.81 653.30,499.33 654.25,497.81 655.20,496.23 656.16,494.60 657.11,492.91 658.06,491.16 659.02,489.35 659.97,487.48 660.92,485.53 661.88,483.51 662.83,481.41 663.78,479.23 664.73,476.96 665.69,474.58 666.64,472.11 667.59,469.52 668.55,466.82 669.50,463.98 670.45,461.01 671.41,457.89 672.36,454.60 673.31,451.14 674.27,447.48 675.22,443.61 676.17,439.50 677.12,435.14 678.08,430.49 679.03,425.52 679.98,420.19 680.94,414.47 681.89,408.29 682.84,401.60 683.80,394.33 684.75,386.37 685.70,377.62 686.66,367.94 687.61,357.16 688.56,345.05 689.52,331.30 690.47,315.53 691.42,297.19 692.38,275.49 693.33,249.26 694.28,216.70 695.23,174.77 696.19,150.00 697.14,150.00 698.09,150.00 699.05,150.00" fill="none" stroke="#f97316" stroke-width="3.2" stroke-linejoin="round" stroke-linecap="round"/>
<text x="430.0" y="186.0" class="small" text-anchor="start">orange curve = exact density 1 / (π√(x(1-x)))</text>
<text x="430.0" y="210.0" class="small" text-anchor="start">blue bars = long-run histogram from 50,000 iterates</text>
<text x="1055.0" y="186.0" class="small" text-anchor="start">the mass collapses into a few spikes because the orbit falls into a period-3 window</text>
<text x="58.0" y="405.0" class="small" text-anchor="middle">density</text>
</svg>
