<svg xmlns="http://www.w3.org/2000/svg" viewBox="0 0 1380 740">
<defs>
  <linearGradient id="bg" x1="0" y1="0" x2="1" y2="1">
    <stop offset="0%" stop-color="#081018"/>
    <stop offset="100%" stop-color="#101d2a"/>
  </linearGradient>
  <style>
    .title { font: 700 34px Helvetica, Arial, sans-serif; fill: #e6edf3; }
    .subtitle { font: 500 18px Helvetica, Arial, sans-serif; fill: #9fb3c8; }
    .label { font: 600 18px Helvetica, Arial, sans-serif; fill: #dce7f3; }
    .small { font: 500 15px Helvetica, Arial, sans-serif; fill: #9fb3c8; }
    .axis { stroke: #39516a; stroke-width: 2; }
    .grid { stroke: #223445; stroke-width: 1; opacity: 0.8; }
    .panel { fill: #122131; stroke: #5e7fa3; stroke-width: 2; rx: 18; }
  </style>
</defs>
<rect width="1380" height="740" fill="url(#bg)"/>
<text x="60.0" y="58.0" class="title" text-anchor="start">Lyapunov exponent across the logistic map</text>
<text x="60.0" y="88.0" class="subtitle" text-anchor="start">Negative means nearby orbits collapse together. Positive means they separate exponentially.</text>
<rect x="110" y="130" width="1180" height="490" class="panel"/>
<rect x="110" y="130" width="1180" height="150.8" fill="#0f2d1f" opacity="0.38"/>
<rect x="110" y="280.8" width="1180" height="339.2" fill="#351226" opacity="0.34"/>
<line x1="306.7" y1="130.0" x2="306.7" y2="620.0" class="grid"/>
<text x="306.7" y="646.0" class="small" text-anchor="middle">3.0</text>
<line x1="503.3" y1="130.0" x2="503.3" y2="620.0" class="grid"/>
<text x="503.3" y="646.0" class="small" text-anchor="middle">3.2</text>
<line x1="700.0" y1="130.0" x2="700.0" y2="620.0" class="grid"/>
<text x="700.0" y="646.0" class="small" text-anchor="middle">3.4</text>
<line x1="896.7" y1="130.0" x2="896.7" y2="620.0" class="grid"/>
<text x="896.7" y="646.0" class="small" text-anchor="middle">3.6</text>
<line x1="1093.3" y1="130.0" x2="1093.3" y2="620.0" class="grid"/>
<text x="1093.3" y="646.0" class="small" text-anchor="middle">3.8</text>
<line x1="1290.0" y1="130.0" x2="1290.0" y2="620.0" class="grid"/>
<text x="1290.0" y="646.0" class="small" text-anchor="middle">4.0</text>
<line x1="110.0" y1="563.5" x2="1290.0" y2="563.5" class="grid"/>
<text x="84.0" y="568.5" class="small" text-anchor="end">-1.5</text>
<line x1="110.0" y1="469.2" x2="1290.0" y2="469.2" class="grid"/>
<text x="84.0" y="474.2" class="small" text-anchor="end">-1.0</text>
<line x1="110.0" y1="375.0" x2="1290.0" y2="375.0" class="grid"/>
<text x="84.0" y="380.0" class="small" text-anchor="end">-0.5</text>
<line x1="110.0" y1="280.8" x2="1290.0" y2="280.8" class="grid"/>
<text x="84.0" y="285.8" class="small" text-anchor="end">0.0</text>
<line x1="110.0" y1="186.5" x2="1290.0" y2="186.5" class="grid"/>
<text x="84.0" y="191.5" class="small" text-anchor="end">0.5</text>
<line x1="110.0" y1="280.8" x2="1290.0" y2="280.8" class="axis"/>
<line x1="110.0" y1="130.0" x2="110.0" y2="620.0" class="axis"/>
<line x1="110.0" y1="620.0" x2="1290.0" y2="620.0" class="axis"/>
<text x="700.0" y="676.0" class="small" text-anchor="middle">growth parameter r</text>
<text x="34.0" y="375.0" class="small" text-anchor="middle" transform="rotate(-90 34 375.0)">Lyapunov exponent λ</text>
<polyline points="110.00,322.82 111.31,322.51 112.63,322.20 113.94,321.88 115.25,321.57 116.56,321.26 117.88,320.95 119.19,320.63 120.50,320.32 121.81,320.01 123.13,319.70 124.44,319.40 125.75,319.09 127.06,318.78 128.38,318.47 129.69,318.16 131.00,317.86 132.31,317.55 133.63,317.25 134.94,316.94 136.25,316.64 137.56,316.33 138.88,316.03 140.19,315.73 141.50,315.42 142.81,315.12 144.13,314.82 145.44,314.52 146.75,314.22 148.06,313.92 149.38,313.62 150.69,313.32 152.00,313.02 153.31,312.72 154.63,312.42 155.94,312.13 157.25,311.83 158.57,311.53 159.88,311.24 161.19,310.94 162.50,310.65 163.82,310.35 165.13,310.06 166.44,309.76 167.75,309.47 169.07,309.18 170.38,308.89 171.69,308.59 173.00,308.30 174.32,308.01 175.63,307.72 176.94,307.43 178.25,307.14 179.57,306.85 180.88,306.56 182.19,306.28 183.50,305.99 184.82,305.70 186.13,305.41 187.44,305.13 188.75,304.84 190.07,304.56 191.38,304.27 192.69,303.99 194.00,303.70 195.32,303.42 196.63,303.13 197.94,302.85 199.25,302.57 200.57,302.29 201.88,302.00 203.19,301.72 204.51,301.44 205.82,301.16 207.13,300.88 208.44,300.60 209.76,300.32 211.07,300.04 212.38,299.77 213.69,299.49 215.01,299.21 216.32,298.93 217.63,298.66 218.94,298.38 220.26,298.10 221.57,297.83 222.88,297.55 224.19,297.28 225.51,297.00 226.82,296.73 228.13,296.46 229.44,296.18 230.76,295.91 232.07,295.64 233.38,295.37 234.69,295.09 236.01,294.82 237.32,294.55 238.63,294.28 239.94,294.01 241.26,293.74 242.57,293.47 243.88,293.20 245.19,292.94 246.51,292.67 247.82,292.40 249.13,292.13 250.44,291.86 251.76,291.60 253.07,291.33 254.38,291.07 255.70,290.80 257.01,290.54 258.32,290.27 259.63,290.01 260.95,289.74 262.26,289.48 263.57,289.22 264.88,288.95 266.20,288.69 267.51,288.43 268.82,288.17 270.13,287.90 271.45,287.64 272.76,287.38 274.07,287.12 275.38,286.86 276.70,286.60 278.01,286.34 279.32,286.08 280.63,285.83 281.95,285.57 283.26,285.31 284.57,285.05 285.88,284.79 287.20,284.54 288.51,284.28 289.82,284.03 291.13,283.77 292.45,283.51 293.76,283.26 295.07,283.00 296.38,282.75 297.70,282.50 299.01,282.24 300.32,281.99 301.64,281.74 302.95,281.48 304.26,281.23 305.57,281.01 306.89,280.99 308.20,281.37 309.51,281.87 310.82,282.38 312.14,282.89 313.45,283.41 314.76,283.93 316.07,284.45 317.39,284.98 318.70,285.51 320.01,286.05 321.32,286.58 322.64,287.13 323.95,287.67 325.26,288.22 326.57,288.77 327.89,289.32 329.20,289.88 330.51,290.44 331.82,291.01 333.14,291.58 334.45,292.15 335.76,292.73 337.07,293.31 338.39,293.90 339.70,294.49 341.01,295.08 342.32,295.68 343.64,296.28 344.95,296.89 346.26,297.50 347.58,298.12 348.89,298.74 350.20,299.36 351.51,299.99 352.83,300.62 354.14,301.26 355.45,301.90 356.76,302.55 358.08,303.20 359.39,303.86 360.70,304.52 362.01,305.19 363.33,305.86 364.64,306.54 365.95,307.23 367.26,307.91 368.58,308.61 369.89,309.31 371.20,310.02 372.51,310.73 373.83,311.44 375.14,312.17 376.45,312.90 377.76,313.63 379.08,314.38 380.39,315.12 381.70,315.88 383.01,316.64 384.33,317.41 385.64,318.18 386.95,318.96 388.26,319.75 389.58,320.55 390.89,321.35 392.20,322.16 393.52,322.98 394.83,323.81 396.14,324.64 397.45,325.48 398.77,326.33 400.08,327.19 401.39,328.06 402.70,328.94 404.02,329.82 405.33,330.71 406.64,331.61 407.95,332.53 409.27,333.45 410.58,334.38 411.89,335.32 413.20,336.27 414.52,337.23 415.83,338.20 417.14,339.18 418.45,340.18 419.77,341.18 421.08,342.20 422.39,343.23 423.70,344.27 425.02,345.32 426.33,346.38 427.64,347.46 428.95,348.55 430.27,349.65 431.58,350.77 432.89,351.90 434.20,353.05 435.52,354.21 436.83,355.39 438.14,356.58 439.45,357.79 440.77,359.01 442.08,360.25 443.39,361.51 444.71,362.79 446.02,364.08 447.33,365.40 448.64,366.73 449.96,368.08 451.27,369.46 452.58,370.85 453.89,372.27 455.21,373.71 456.52,375.17 457.83,376.66 459.14,378.17 460.46,379.71 461.77,381.27 463.08,382.86 464.39,384.48 465.71,386.13 467.02,387.81 468.33,389.52 469.64,391.26 470.96,393.04 472.27,394.85 473.58,396.70 474.89,398.59 476.21,400.51 477.52,402.48 478.83,404.49 480.14,406.55 481.46,408.66 482.77,410.81 484.08,413.01 485.39,415.27 486.71,417.59 488.02,419.97 489.33,422.41 490.65,424.91 491.96,427.49 493.27,430.14 494.58,432.86 495.90,435.68 497.21,438.57 498.52,441.57 499.83,444.66 501.15,447.86 502.46,451.18 503.77,454.62 505.08,458.19 506.40,461.90 507.71,465.77 509.02,469.80 510.33,474.02 511.65,478.44 512.96,483.08 514.27,487.97 515.58,493.12 516.90,498.58 518.21,504.37 519.52,510.55 520.83,517.17 522.15,524.29 523.46,531.99 524.77,540.39 526.08,549.62 527.40,559.86 528.71,571.36 530.02,584.46 531.33,599.69 532.65,617.89 533.96,640.47 535.27,670.25 536.59,714.07 537.90,798.65 539.21,872.96 540.52,737.68 541.84,684.28 543.15,650.38 544.46,625.49 545.77,605.82 547.09,589.53 548.40,575.65 549.71,563.54 551.02,552.81 552.34,543.17 553.65,534.42 554.96,526.41 556.27,519.03 557.59,512.17 558.90,505.78 560.21,499.79 561.52,494.16 562.84,488.84 564.15,483.80 565.46,479.01 566.77,474.46 568.09,470.11 569.40,465.95 570.71,461.96 572.02,458.14 573.34,454.46 574.65,450.92 575.96,447.50 577.27,444.20 578.59,441.01 579.90,437.93 581.21,434.94 582.53,432.04 583.84,429.22 585.15,426.49 586.46,423.83 587.78,421.24 589.09,418.72 590.40,416.26 591.71,413.87 593.03,411.53 594.34,409.25 595.65,407.02 596.96,404.84 598.28,402.71 599.59,400.63 600.90,398.59 602.21,396.59 603.53,394.63 604.84,392.71 606.15,390.83 607.46,388.98 608.78,387.17 610.09,385.39 611.40,383.64 612.71,381.93 614.03,380.24 615.34,378.58 616.65,376.95 617.96,375.35 619.28,373.77 620.59,372.22 621.90,370.69 623.21,369.19 624.53,367.71 625.84,366.25 627.15,364.81 628.46,363.39 629.78,362.00 631.09,360.62 632.40,359.26 633.72,357.92 635.03,356.60 636.34,355.29 637.65,354.01 638.97,352.74 640.28,351.48 641.59,350.24 642.90,349.02 644.22,347.81 645.53,346.62 646.84,345.44 648.15,344.27 649.47,343.12 650.78,341.98 652.09,340.86 653.40,339.75 654.72,338.65 656.03,337.56 657.34,336.48 658.65,335.42 659.97,334.36 661.28,333.32 662.59,332.29 663.90,331.27 665.22,330.26 666.53,329.25 667.84,328.26 669.15,327.28 670.47,326.31 671.78,325.35 673.09,324.40 674.40,323.45 675.72,322.52 677.03,321.59 678.34,320.67 679.66,319.76 680.97,318.86 682.28,317.97 683.59,317.08 684.91,316.21 686.22,315.34 687.53,314.47 688.84,313.62 690.16,312.77 691.47,311.93 692.78,311.10 694.09,310.27 695.41,309.45 696.72,308.64 698.03,307.83 699.34,307.03 700.66,306.23 701.97,305.44 703.28,304.66 704.59,303.89 705.91,303.12 707.22,302.35 708.53,301.59 709.84,300.84 711.16,300.09 712.47,299.35 713.78,298.61 715.09,297.88 716.41,297.16 717.72,296.44 719.03,295.72 720.34,295.01 721.66,294.30 722.97,293.60 724.28,292.91 725.60,292.22 726.91,291.53 728.22,290.85 729.53,290.17 730.85,289.50 732.16,288.83 733.47,288.16 734.78,287.50 736.10,286.85 737.41,286.19 738.72,285.55 740.03,284.90 741.35,284.26 742.66,283.63 743.97,283.00 745.28,282.37 746.60,281.74 747.91,281.13 749.22,281.31 750.53,282.56 751.85,283.86 753.16,285.21 754.47,286.59 755.78,288.02 757.10,289.50 758.41,291.03 759.72,292.62 761.03,294.26 762.35,295.97 763.66,297.74 764.97,299.59 766.28,301.51 767.60,303.53 768.91,305.64 770.22,307.85 771.54,310.17 772.85,312.63 774.16,315.22 775.47,317.97 776.79,320.89 778.10,324.02 779.41,327.38 780.72,331.00 782.04,334.93 783.35,339.23 784.66,343.97 785.97,349.26 787.29,355.23 788.60,362.08 789.91,370.12 791.22,379.84 792.54,392.13 793.85,408.85 795.16,435.08 796.47,499.74 797.79,468.26 799.10,424.79 800.41,402.53 801.72,387.45 803.04,376.02 804.35,366.81 805.66,359.10 806.97,352.46 808.29,346.63 809.60,341.43 810.91,336.74 812.22,332.47 813.54,328.54 814.85,324.91 816.16,321.53 817.47,318.37 818.79,315.40 820.10,312.61 821.41,309.96 822.73,307.45 824.04,305.06 825.35,302.79 826.66,300.61 827.98,298.53 829.29,296.53 830.60,294.60 831.91,292.75 833.23,290.97 834.54,289.24 835.85,287.58 837.16,285.96 838.48,284.40 839.79,282.89 841.10,281.41 842.41,282.31 843.73,285.56 845.04,289.41 846.35,294.10 847.66,300.07 848.98,308.21 850.29,321.02 851.60,352.34 852.91,337.93 854.23,315.99 855.54,304.78 856.85,297.16 858.16,291.37 859.48,286.69 860.79,282.75 862.10,282.89 863.41,298.12 864.73,291.20 866.04,281.84 867.35,276.67 868.67,270.38 869.98,276.49 871.29,269.30 872.60,264.83 873.92,261.77 875.23,260.29 876.54,261.08 877.85,261.26 879.17,323.17 880.48,276.11 881.79,258.71 883.10,259.26 884.42,257.01 885.73,253.89 887.04,253.07 888.35,288.72 889.67,246.52 890.98,250.34 892.29,248.28 893.60,247.40 894.92,246.71 896.23,251.47 897.54,250.39 898.85,246.79 900.17,242.25 901.48,248.17 902.79,283.05 904.10,246.89 905.42,244.81 906.73,241.18 908.04,241.43 909.35,243.57 910.67,242.46 911.98,241.90 913.29,243.01 914.61,243.50 915.92,250.52 917.23,240.89 918.54,240.96 919.86,240.26 921.17,240.06 922.48,250.89 923.79,412.92 925.11,298.85 926.42,281.59 927.73,298.15 929.04,275.14 930.36,265.32 931.67,248.28 932.98,245.36 934.29,246.69 935.61,236.74 936.92,237.66 938.23,234.88 939.54,235.39 940.86,234.24 942.17,234.46 943.48,241.57 944.79,242.29 946.11,234.35 947.42,231.76 948.73,228.41 950.04,226.96 951.36,231.26 952.67,229.75 953.98,225.61 955.29,230.90 956.61,223.34 957.92,298.98 959.23,228.19 960.55,225.09 961.86,224.45 963.17,227.67 964.48,224.03 965.80,221.38 967.11,222.30 968.42,227.16 969.73,222.72 971.05,219.49 972.36,219.47 973.67,216.85 974.98,216.95 976.30,217.48 977.61,218.17 978.92,214.53 980.23,213.81 981.55,213.42 982.86,219.10 984.17,214.57 985.48,213.28 986.80,210.42 988.11,215.92 989.42,214.94 990.73,210.57 992.05,217.98 993.36,218.48 994.67,211.43 995.98,212.76 997.30,292.53 998.61,220.61 999.92,216.82 1001.23,214.05 1002.55,213.52 1003.86,214.01 1005.17,211.68 1006.48,212.24 1007.80,209.57 1009.11,214.29 1010.42,210.81 1011.74,209.80 1013.05,215.66 1014.36,207.64 1015.67,211.33 1016.99,208.83 1018.30,208.70 1019.61,214.25 1020.92,210.62 1022.24,211.46 1023.55,209.30 1024.86,215.00 1026.17,206.35 1027.49,207.36 1028.80,203.73 1030.11,212.75 1031.42,207.62 1032.74,308.69 1034.05,311.61 1035.36,281.76 1036.67,286.54 1037.99,264.98 1039.30,238.06 1040.61,222.92 1041.92,221.66 1043.24,214.60 1044.55,218.61 1045.86,211.21 1047.17,209.60 1048.49,207.91 1049.80,211.18 1051.11,207.58 1052.42,205.60 1053.74,205.59 1055.05,207.20 1056.36,224.26 1057.68,208.29 1058.99,206.79 1060.30,203.24 1061.61,202.86 1062.93,202.54 1064.24,204.35 1065.55,204.41 1066.86,201.15 1068.18,283.75 1069.49,209.17 1070.80,209.52 1072.11,204.78 1073.43,203.50 1074.74,206.09 1076.05,208.11 1077.36,206.89 1078.68,201.94 1079.99,205.28 1081.30,205.74 1082.61,196.49 1083.93,195.64 1085.24,197.23 1086.55,196.19 1087.86,201.97 1089.18,197.77 1090.49,196.91 1091.80,201.41 1093.11,197.43 1094.43,196.24 1095.74,204.52 1097.05,197.44 1098.36,197.60 1099.68,201.88 1100.99,197.89 1102.30,201.71 1103.62,202.10 1104.93,199.79 1106.24,196.83 1107.55,194.65 1108.87,200.73 1110.18,199.54 1111.49,198.44 1112.80,202.01 1114.12,201.50 1115.43,193.96 1116.74,205.87 1118.05,207.79 1119.37,214.21 1120.68,217.46 1121.99,318.87 1123.30,372.94 1124.62,573.95 1125.93,390.78 1127.24,349.72 1128.55,327.00 1129.87,311.66 1131.18,298.59 1132.49,289.36 1133.80,283.03 1135.12,293.63 1136.43,324.23 1137.74,331.22 1139.05,295.95 1140.37,286.02 1141.68,294.03 1142.99,270.22 1144.30,254.28 1145.62,252.41 1146.93,252.37 1148.24,242.89 1149.56,231.29 1150.87,216.79 1152.18,205.82 1153.49,214.15 1154.81,209.12 1156.12,199.95 1157.43,207.72 1158.74,200.89 1160.06,193.22 1161.37,195.99 1162.68,207.51 1163.99,201.58 1165.31,194.68 1166.62,193.23 1167.93,198.32 1169.24,191.05 1170.56,191.67 1171.87,195.73 1173.18,194.40 1174.49,191.14 1175.81,192.37 1177.12,189.02 1178.43,195.47 1179.74,190.52 1181.06,185.78 1182.37,186.96 1183.68,186.04 1184.99,189.28 1186.31,183.20 1187.62,189.26 1188.93,186.20 1190.24,187.79 1191.56,193.52 1192.87,190.12 1194.18,186.19 1195.49,186.00 1196.81,194.57 1198.12,267.47 1199.43,188.83 1200.75,189.95 1202.06,186.84 1203.37,186.74 1204.68,190.33 1206.00,186.50 1207.31,185.41 1208.62,180.76 1209.93,180.46 1211.25,179.80 1212.56,179.87 1213.87,185.27 1215.18,182.03 1216.50,176.52 1217.81,178.13 1219.12,177.11 1220.43,179.22 1221.75,181.60 1223.06,180.23 1224.37,174.37 1225.68,173.99 1227.00,173.32 1228.31,172.65 1229.62,180.50 1230.93,178.56 1232.25,176.04 1233.56,179.59 1234.87,175.77 1236.18,174.60 1237.50,171.09 1238.81,174.28 1240.12,169.09 1241.43,174.39 1242.75,171.69 1244.06,169.69 1245.37,167.64 1246.69,169.82 1248.00,170.38 1249.31,167.37 1250.62,175.78 1251.94,264.64 1253.25,183.84 1254.56,173.65 1255.87,173.65 1257.19,168.60 1258.50,169.78 1259.81,178.16 1261.12,168.54 1262.44,168.01 1263.75,166.01 1265.06,166.20 1266.37,165.44 1267.69,169.62 1269.00,166.01 1270.31,166.35 1271.62,166.74 1272.94,162.45 1274.25,163.88 1275.56,162.89 1276.87,162.65 1278.19,160.60 1279.50,160.00 1280.81,163.78 1282.12,158.14 1283.44,157.43 1284.75,156.76 1286.06,155.25 1287.37,156.69 1288.69,155.79 1290.00,149.81" fill="none" stroke="#f472b6" stroke-width="3" stroke-linejoin="round" stroke-linecap="round"/>
<text x="1100.0" y="166.0" class="small" text-anchor="start">positive λ → chaotic sensitivity</text>
<text x="1100.0" y="308.8" class="small" text-anchor="start">negative λ → stable / periodic</text>
</svg>
