<svg xmlns="http://www.w3.org/2000/svg" viewBox="0 0 1400 700">
<defs>
  <linearGradient id="bg" x1="0" y1="0" x2="1" y2="1">
    <stop offset="0%" stop-color="#081018"/>
    <stop offset="100%" stop-color="#101d2a"/>
  </linearGradient>
  <style>
    .title { font: 700 34px Helvetica, Arial, sans-serif; fill: #e6edf3; }
    .subtitle { font: 500 18px Helvetica, Arial, sans-serif; fill: #9fb3c8; }
    .label { font: 600 18px Helvetica, Arial, sans-serif; fill: #dce7f3; }
    .small { font: 500 15px Helvetica, Arial, sans-serif; fill: #9fb3c8; }
    .axis { stroke: #39516a; stroke-width: 2; }
    .grid { stroke: #223445; stroke-width: 1; opacity: 0.8; }
    .panel { fill: #122131; stroke: #5e7fa3; stroke-width: 2; rx: 18; }
  </style>
</defs>
<rect width="1400" height="700" fill="url(#bg)"/>
<text x="60.0" y="58.0" class="title" text-anchor="start">Lyapunov exponent across the logistic map</text>
<text x="60.0" y="88.0" class="subtitle" text-anchor="start">Negative means nearby orbits collapse together. Positive means they separate exponentially.</text>
<rect x="90" y="120" width="1230" height="490" class="panel"/>
<rect x="90" y="120" width="1230" height="150.8" fill="#0f2d1f" opacity="0.38"/>
<rect x="90" y="270.8" width="1230" height="339.2" fill="#351226" opacity="0.34"/>
<line x1="295.0" y1="120.0" x2="295.0" y2="610.0" class="grid"/>
<text x="295.0" y="646.0" class="small" text-anchor="middle">3.0</text>
<line x1="500.0" y1="120.0" x2="500.0" y2="610.0" class="grid"/>
<text x="500.0" y="646.0" class="small" text-anchor="middle">3.2</text>
<line x1="705.0" y1="120.0" x2="705.0" y2="610.0" class="grid"/>
<text x="705.0" y="646.0" class="small" text-anchor="middle">3.4</text>
<line x1="910.0" y1="120.0" x2="910.0" y2="610.0" class="grid"/>
<text x="910.0" y="646.0" class="small" text-anchor="middle">3.6</text>
<line x1="1115.0" y1="120.0" x2="1115.0" y2="610.0" class="grid"/>
<text x="1115.0" y="646.0" class="small" text-anchor="middle">3.8</text>
<line x1="1320.0" y1="120.0" x2="1320.0" y2="610.0" class="grid"/>
<text x="1320.0" y="646.0" class="small" text-anchor="middle">4.0</text>
<line x1="90.0" y1="553.5" x2="1320.0" y2="553.5" class="grid"/>
<text x="46.0" y="558.5" class="small" text-anchor="start">-1.5</text>
<line x1="90.0" y1="459.2" x2="1320.0" y2="459.2" class="grid"/>
<text x="46.0" y="464.2" class="small" text-anchor="start">-1.0</text>
<line x1="90.0" y1="365.0" x2="1320.0" y2="365.0" class="grid"/>
<text x="46.0" y="370.0" class="small" text-anchor="start">-0.5</text>
<line x1="90.0" y1="270.8" x2="1320.0" y2="270.8" class="grid"/>
<text x="46.0" y="275.8" class="small" text-anchor="start">0.0</text>
<line x1="90.0" y1="176.5" x2="1320.0" y2="176.5" class="grid"/>
<text x="46.0" y="181.5" class="small" text-anchor="start">0.5</text>
<line x1="90.0" y1="270.8" x2="1320.0" y2="270.8" class="axis"/>
<line x1="90.0" y1="120.0" x2="90.0" y2="610.0" class="axis"/>
<line x1="90.0" y1="610.0" x2="1320.0" y2="610.0" class="axis"/>
<polyline points="90.00,312.82 91.37,312.51 92.74,312.20 94.10,311.88 95.47,311.57 96.84,311.26 98.21,310.95 99.58,310.63 100.95,310.32 102.31,310.01 103.68,309.70 105.05,309.40 106.42,309.09 107.79,308.78 109.15,308.47 110.52,308.16 111.89,307.86 113.26,307.55 114.63,307.25 116.00,306.94 117.36,306.64 118.73,306.33 120.10,306.03 121.47,305.73 122.84,305.42 124.20,305.12 125.57,304.82 126.94,304.52 128.31,304.22 129.68,303.92 131.05,303.62 132.41,303.32 133.78,303.02 135.15,302.72 136.52,302.42 137.89,302.13 139.25,301.83 140.62,301.53 141.99,301.24 143.36,300.94 144.73,300.65 146.10,300.35 147.46,300.06 148.83,299.76 150.20,299.47 151.57,299.18 152.94,298.89 154.30,298.59 155.67,298.30 157.04,298.01 158.41,297.72 159.78,297.43 161.15,297.14 162.51,296.85 163.88,296.56 165.25,296.28 166.62,295.99 167.99,295.70 169.35,295.41 170.72,295.13 172.09,294.84 173.46,294.56 174.83,294.27 176.20,293.99 177.56,293.70 178.93,293.42 180.30,293.13 181.67,292.85 183.04,292.57 184.40,292.29 185.77,292.00 187.14,291.72 188.51,291.44 189.88,291.16 191.25,290.88 192.61,290.60 193.98,290.32 195.35,290.04 196.72,289.77 198.09,289.49 199.45,289.21 200.82,288.93 202.19,288.66 203.56,288.38 204.93,288.10 206.30,287.83 207.66,287.55 209.03,287.28 210.40,287.00 211.77,286.73 213.14,286.46 214.51,286.18 215.87,285.91 217.24,285.64 218.61,285.37 219.98,285.09 221.35,284.82 222.71,284.55 224.08,284.28 225.45,284.01 226.82,283.74 228.19,283.47 229.56,283.20 230.92,282.94 232.29,282.67 233.66,282.40 235.03,282.13 236.40,281.86 237.76,281.60 239.13,281.33 240.50,281.07 241.87,280.80 243.24,280.54 244.61,280.27 245.97,280.01 247.34,279.74 248.71,279.48 250.08,279.22 251.45,278.95 252.81,278.69 254.18,278.43 255.55,278.17 256.92,277.90 258.29,277.64 259.66,277.38 261.02,277.12 262.39,276.86 263.76,276.60 265.13,276.34 266.50,276.08 267.86,275.83 269.23,275.57 270.60,275.31 271.97,275.05 273.34,274.79 274.71,274.54 276.07,274.28 277.44,274.03 278.81,273.77 280.18,273.51 281.55,273.26 282.91,273.00 284.28,272.75 285.65,272.50 287.02,272.24 288.39,271.99 289.76,271.74 291.12,271.48 292.49,271.23 293.86,271.01 295.23,270.99 296.60,271.37 297.96,271.87 299.33,272.38 300.70,272.89 302.07,273.41 303.44,273.93 304.81,274.45 306.17,274.98 307.54,275.51 308.91,276.05 310.28,276.58 311.65,277.13 313.01,277.67 314.38,278.22 315.75,278.77 317.12,279.32 318.49,279.88 319.86,280.44 321.22,281.01 322.59,281.58 323.96,282.15 325.33,282.73 326.70,283.31 328.06,283.90 329.43,284.49 330.80,285.08 332.17,285.68 333.54,286.28 334.91,286.89 336.27,287.50 337.64,288.12 339.01,288.74 340.38,289.36 341.75,289.99 343.11,290.62 344.48,291.26 345.85,291.90 347.22,292.55 348.59,293.20 349.96,293.86 351.32,294.52 352.69,295.19 354.06,295.86 355.43,296.54 356.80,297.23 358.16,297.91 359.53,298.61 360.90,299.31 362.27,300.02 363.64,300.73 365.01,301.44 366.37,302.17 367.74,302.90 369.11,303.63 370.48,304.38 371.85,305.12 373.21,305.88 374.58,306.64 375.95,307.41 377.32,308.18 378.69,308.96 380.06,309.75 381.42,310.55 382.79,311.35 384.16,312.16 385.53,312.98 386.90,313.81 388.26,314.64 389.63,315.48 391.00,316.33 392.37,317.19 393.74,318.06 395.11,318.94 396.47,319.82 397.84,320.71 399.21,321.61 400.58,322.53 401.95,323.45 403.31,324.38 404.68,325.32 406.05,326.27 407.42,327.23 408.79,328.20 410.16,329.18 411.52,330.18 412.89,331.18 414.26,332.20 415.63,333.23 417.00,334.27 418.36,335.32 419.73,336.38 421.10,337.46 422.47,338.55 423.84,339.65 425.21,340.77 426.57,341.90 427.94,343.05 429.31,344.21 430.68,345.39 432.05,346.58 433.41,347.79 434.78,349.01 436.15,350.25 437.52,351.51 438.89,352.79 440.26,354.08 441.62,355.40 442.99,356.73 444.36,358.08 445.73,359.46 447.10,360.85 448.46,362.27 449.83,363.71 451.20,365.17 452.57,366.66 453.94,368.17 455.31,369.71 456.67,371.27 458.04,372.86 459.41,374.48 460.78,376.13 462.15,377.81 463.52,379.52 464.88,381.26 466.25,383.04 467.62,384.85 468.99,386.70 470.36,388.59 471.72,390.51 473.09,392.48 474.46,394.49 475.83,396.55 477.20,398.66 478.57,400.81 479.93,403.01 481.30,405.27 482.67,407.59 484.04,409.97 485.41,412.41 486.77,414.91 488.14,417.49 489.51,420.14 490.88,422.86 492.25,425.68 493.62,428.57 494.98,431.57 496.35,434.66 497.72,437.86 499.09,441.18 500.46,444.62 501.82,448.19 503.19,451.90 504.56,455.77 505.93,459.80 507.30,464.02 508.67,468.44 510.03,473.08 511.40,477.97 512.77,483.12 514.14,488.58 515.51,494.37 516.87,500.55 518.24,507.17 519.61,514.29 520.98,521.99 522.35,530.39 523.72,539.62 525.08,549.86 526.45,561.36 527.82,574.46 529.19,589.69 530.56,607.89 531.92,630.47 533.29,660.25 534.66,704.07 536.03,788.65 537.40,862.96 538.77,727.68 540.13,674.28 541.50,640.38 542.87,615.49 544.24,595.82 545.61,579.53 546.97,565.65 548.34,553.54 549.71,542.81 551.08,533.17 552.45,524.42 553.82,516.41 555.18,509.03 556.55,502.17 557.92,495.78 559.29,489.79 560.66,484.16 562.02,478.84 563.39,473.80 564.76,469.01 566.13,464.46 567.50,460.11 568.87,455.95 570.23,451.96 571.60,448.14 572.97,444.46 574.34,440.92 575.71,437.50 577.07,434.20 578.44,431.01 579.81,427.93 581.18,424.94 582.55,422.04 583.92,419.22 585.28,416.49 586.65,413.83 588.02,411.24 589.39,408.72 590.76,406.26 592.12,403.87 593.49,401.53 594.86,399.25 596.23,397.02 597.60,394.84 598.97,392.71 600.33,390.63 601.70,388.59 603.07,386.59 604.44,384.63 605.81,382.71 607.17,380.83 608.54,378.98 609.91,377.17 611.28,375.39 612.65,373.64 614.02,371.93 615.38,370.24 616.75,368.58 618.12,366.95 619.49,365.35 620.86,363.77 622.22,362.22 623.59,360.69 624.96,359.19 626.33,357.71 627.70,356.25 629.07,354.81 630.43,353.39 631.80,352.00 633.17,350.62 634.54,349.26 635.91,347.92 637.27,346.60 638.64,345.29 640.01,344.01 641.38,342.74 642.75,341.48 644.12,340.24 645.48,339.02 646.85,337.81 648.22,336.62 649.59,335.44 650.96,334.27 652.32,333.12 653.69,331.98 655.06,330.86 656.43,329.75 657.80,328.65 659.17,327.56 660.53,326.48 661.90,325.42 663.27,324.36 664.64,323.32 666.01,322.29 667.37,321.27 668.74,320.26 670.11,319.25 671.48,318.26 672.85,317.28 674.22,316.31 675.58,315.35 676.95,314.40 678.32,313.45 679.69,312.52 681.06,311.59 682.42,310.67 683.79,309.76 685.16,308.86 686.53,307.97 687.90,307.08 689.27,306.21 690.63,305.34 692.00,304.47 693.37,303.62 694.74,302.77 696.11,301.93 697.47,301.10 698.84,300.27 700.21,299.45 701.58,298.64 702.95,297.83 704.32,297.03 705.68,296.23 707.05,295.44 708.42,294.66 709.79,293.89 711.16,293.12 712.53,292.35 713.89,291.59 715.26,290.84 716.63,290.09 718.00,289.35 719.37,288.61 720.73,287.88 722.10,287.16 723.47,286.44 724.84,285.72 726.21,285.01 727.58,284.30 728.94,283.60 730.31,282.91 731.68,282.22 733.05,281.53 734.42,280.85 735.78,280.17 737.15,279.50 738.52,278.83 739.89,278.16 741.26,277.50 742.63,276.85 743.99,276.19 745.36,275.55 746.73,274.90 748.10,274.26 749.47,273.63 750.83,273.00 752.20,272.37 753.57,271.74 754.94,271.13 756.31,271.31 757.68,272.56 759.04,273.86 760.41,275.21 761.78,276.59 763.15,278.02 764.52,279.50 765.88,281.03 767.25,282.62 768.62,284.26 769.99,285.97 771.36,287.74 772.73,289.59 774.09,291.51 775.46,293.53 776.83,295.64 778.20,297.85 779.57,300.17 780.93,302.63 782.30,305.22 783.67,307.97 785.04,310.89 786.41,314.02 787.78,317.38 789.14,321.00 790.51,324.93 791.88,329.23 793.25,333.97 794.62,339.26 795.98,345.23 797.35,352.08 798.72,360.12 800.09,369.84 801.46,382.13 802.83,398.85 804.19,425.08 805.56,489.74 806.93,458.26 808.30,414.79 809.67,392.53 811.03,377.45 812.40,366.02 813.77,356.81 815.14,349.10 816.51,342.46 817.88,336.63 819.24,331.43 820.61,326.74 821.98,322.47 823.35,318.54 824.72,314.91 826.08,311.53 827.45,308.37 828.82,305.40 830.19,302.61 831.56,299.96 832.93,297.45 834.29,295.06 835.66,292.79 837.03,290.61 838.40,288.53 839.77,286.53 841.13,284.60 842.50,282.75 843.87,280.97 845.24,279.24 846.61,277.58 847.98,275.96 849.34,274.40 850.71,272.89 852.08,271.41 853.45,272.31 854.82,275.56 856.18,279.41 857.55,284.10 858.92,290.07 860.29,298.21 861.66,311.02 863.03,342.34 864.39,327.93 865.76,305.99 867.13,294.78 868.50,287.16 869.87,281.37 871.23,276.69 872.60,272.75 873.97,272.89 875.34,288.12 876.71,281.20 878.08,271.84 879.44,266.67 880.81,260.38 882.18,266.49 883.55,259.30 884.92,254.83 886.28,251.77 887.65,250.29 889.02,251.08 890.39,251.26 891.76,313.17 893.13,266.11 894.49,248.71 895.86,249.26 897.23,247.01 898.60,243.89 899.97,243.07 901.33,278.72 902.70,236.52 904.07,240.34 905.44,238.28 906.81,237.40 908.18,236.71 909.54,241.47 910.91,240.39 912.28,236.79 913.65,232.25 915.02,238.17 916.38,273.05 917.75,236.89 919.12,234.81 920.49,231.18 921.86,231.43 923.23,233.57 924.59,232.46 925.96,231.90 927.33,233.01 928.70,233.50 930.07,240.52 931.43,230.89 932.80,230.96 934.17,230.26 935.54,230.06 936.91,240.89 938.28,402.92 939.64,288.85 941.01,271.59 942.38,288.15 943.75,265.14 945.12,255.32 946.48,238.28 947.85,235.36 949.22,236.69 950.59,226.74 951.96,227.66 953.33,224.88 954.69,225.39 956.06,224.24 957.43,224.46 958.80,231.57 960.17,232.29 961.54,224.35 962.90,221.76 964.27,218.41 965.64,216.96 967.01,221.26 968.38,219.75 969.74,215.61 971.11,220.90 972.48,213.34 973.85,288.98 975.22,218.19 976.59,215.09 977.95,214.45 979.32,217.67 980.69,214.03 982.06,211.38 983.43,212.30 984.79,217.16 986.16,212.72 987.53,209.49 988.90,209.47 990.27,206.85 991.64,206.95 993.00,207.48 994.37,208.17 995.74,204.53 997.11,203.81 998.48,203.42 999.84,209.10 1001.21,204.57 1002.58,203.28 1003.95,200.42 1005.32,205.92 1006.69,204.94 1008.05,200.57 1009.42,207.98 1010.79,208.48 1012.16,201.43 1013.53,202.76 1014.89,282.53 1016.26,210.61 1017.63,206.82 1019.00,204.05 1020.37,203.52 1021.74,204.01 1023.10,201.68 1024.47,202.24 1025.84,199.57 1027.21,204.29 1028.58,200.81 1029.94,199.80 1031.31,205.66 1032.68,197.64 1034.05,201.33 1035.42,198.83 1036.79,198.70 1038.15,204.25 1039.52,200.62 1040.89,201.46 1042.26,199.30 1043.63,205.00 1044.99,196.35 1046.36,197.36 1047.73,193.73 1049.10,202.75 1050.47,197.62 1051.84,298.69 1053.20,301.61 1054.57,271.76 1055.94,276.54 1057.31,254.98 1058.68,228.06 1060.04,212.92 1061.41,211.66 1062.78,204.60 1064.15,208.61 1065.52,201.21 1066.89,199.60 1068.25,197.91 1069.62,201.18 1070.99,197.58 1072.36,195.60 1073.73,195.59 1075.09,197.20 1076.46,214.26 1077.83,198.29 1079.20,196.79 1080.57,193.24 1081.94,192.86 1083.30,192.54 1084.67,194.35 1086.04,194.41 1087.41,191.15 1088.78,273.75 1090.14,199.17 1091.51,199.52 1092.88,194.78 1094.25,193.50 1095.62,196.09 1096.99,198.11 1098.35,196.89 1099.72,191.94 1101.09,195.28 1102.46,195.74 1103.83,186.49 1105.19,185.64 1106.56,187.23 1107.93,186.19 1109.30,191.97 1110.67,187.77 1112.04,186.91 1113.40,191.41 1114.77,187.43 1116.14,186.24 1117.51,194.52 1118.88,187.44 1120.24,187.60 1121.61,191.88 1122.98,187.89 1124.35,191.71 1125.72,192.10 1127.09,189.79 1128.45,186.83 1129.82,184.65 1131.19,190.73 1132.56,189.54 1133.93,188.44 1135.29,192.01 1136.66,191.50 1138.03,183.96 1139.40,195.87 1140.77,197.79 1142.14,204.21 1143.50,207.46 1144.87,308.87 1146.24,362.94 1147.61,563.95 1148.98,380.78 1150.34,339.72 1151.71,317.00 1153.08,301.66 1154.45,288.59 1155.82,279.36 1157.19,273.03 1158.55,283.63 1159.92,314.23 1161.29,321.22 1162.66,285.95 1164.03,276.02 1165.39,284.03 1166.76,260.22 1168.13,244.28 1169.50,242.41 1170.87,242.37 1172.24,232.89 1173.60,221.29 1174.97,206.79 1176.34,195.82 1177.71,204.15 1179.08,199.12 1180.44,189.95 1181.81,197.72 1183.18,190.89 1184.55,183.22 1185.92,185.99 1187.29,197.51 1188.65,191.58 1190.02,184.68 1191.39,183.23 1192.76,188.32 1194.13,181.05 1195.49,181.67 1196.86,185.73 1198.23,184.40 1199.60,181.14 1200.97,182.37 1202.34,179.02 1203.70,185.47 1205.07,180.52 1206.44,175.78 1207.81,176.96 1209.18,176.04 1210.55,179.28 1211.91,173.20 1213.28,179.26 1214.65,176.20 1216.02,177.79 1217.39,183.52 1218.75,180.12 1220.12,176.19 1221.49,176.00 1222.86,184.57 1224.23,257.47 1225.60,178.83 1226.96,179.95 1228.33,176.84 1229.70,176.74 1231.07,180.33 1232.44,176.50 1233.80,175.41 1235.17,170.76 1236.54,170.46 1237.91,169.80 1239.28,169.87 1240.65,175.27 1242.01,172.03 1243.38,166.52 1244.75,168.13 1246.12,167.11 1247.49,169.22 1248.85,171.60 1250.22,170.23 1251.59,164.37 1252.96,163.99 1254.33,163.32 1255.70,162.65 1257.06,170.50 1258.43,168.56 1259.80,166.04 1261.17,169.59 1262.54,165.77 1263.90,164.60 1265.27,161.09 1266.64,164.28 1268.01,159.09 1269.38,164.39 1270.75,161.69 1272.11,159.69 1273.48,157.64 1274.85,159.82 1276.22,160.38 1277.59,157.37 1278.95,165.78 1280.32,254.64 1281.69,173.84 1283.06,163.65 1284.43,163.65 1285.80,158.60 1287.16,159.78 1288.53,168.16 1289.90,158.54 1291.27,158.01 1292.64,156.01 1294.00,156.20 1295.37,155.44 1296.74,159.62 1298.11,156.01 1299.48,156.35 1300.85,156.74 1302.21,152.45 1303.58,153.88 1304.95,152.89 1306.32,152.65 1307.69,150.60 1309.05,150.00 1310.42,153.78 1311.79,148.14 1313.16,147.43 1314.53,146.76 1315.90,145.25 1317.26,146.69 1318.63,145.79 1320.00,139.81" fill="none" stroke="#f472b6" stroke-width="3" stroke-linejoin="round" stroke-linecap="round"/>
<text x="1100.0" y="156.0" class="small" text-anchor="start">positive λ → chaotic sensitivity</text>
<text x="1100.0" y="298.8" class="small" text-anchor="start">negative λ → stable / periodic</text>
</svg>
