<svg xmlns="http://www.w3.org/2000/svg" viewBox="0 0 1440 1000">
<defs>
  <linearGradient id="bg" x1="0" y1="0" x2="1" y2="1">
    <stop offset="0%" stop-color="#081018"/>
    <stop offset="100%" stop-color="#101d2a"/>
  </linearGradient>
  <style>
    .title { font: 700 34px Helvetica, Arial, sans-serif; fill: #e6edf3; }
    .subtitle { font: 500 18px Helvetica, Arial, sans-serif; fill: #9fb3c8; }
    .label { font: 600 18px Helvetica, Arial, sans-serif; fill: #dce7f3; }
    .small { font: 500 15px Helvetica, Arial, sans-serif; fill: #9fb3c8; }
    .axis { stroke: #39516a; stroke-width: 2; }
    .grid { stroke: #223445; stroke-width: 1; opacity: 0.8; }
    .panel { fill: #122131; stroke: #5e7fa3; stroke-width: 2; rx: 18; }
  </style>
</defs>
<rect width="1440" height="1000" fill="url(#bg)"/>
<text x="60.0" y="58.0" class="title" text-anchor="start">Period windows and Feigenbaum drift</text>
<text x="60.0" y="88.0" class="subtitle" text-anchor="start">A parameter scan finds stable periods directly, then the superstable points track how the doubling cascade compresses.</text>
<rect x="90" y="150" width="1260" height="350" class="panel"/>
<text x="90.0" y="132.0" class="label" text-anchor="start">Detected stable periods on a direct r-scan</text>
<text x="510.0" y="132.0" class="small" text-anchor="start">negative Lyapunov plus a repeating tail makes the windows explicit</text>
<line x1="90.0" y1="150.0" x2="90.0" y2="500.0" class="grid"/>
<text x="90.0" y="528.0" class="small" text-anchor="middle">3.0</text>
<line x1="342.0" y1="150.0" x2="342.0" y2="500.0" class="grid"/>
<text x="342.0" y="528.0" class="small" text-anchor="middle">3.2</text>
<line x1="594.0" y1="150.0" x2="594.0" y2="500.0" class="grid"/>
<text x="594.0" y="528.0" class="small" text-anchor="middle">3.4</text>
<line x1="846.0" y1="150.0" x2="846.0" y2="500.0" class="grid"/>
<text x="846.0" y="528.0" class="small" text-anchor="middle">3.6</text>
<line x1="1098.0" y1="150.0" x2="1098.0" y2="500.0" class="grid"/>
<text x="1098.0" y="528.0" class="small" text-anchor="middle">3.8</text>
<line x1="1350.0" y1="150.0" x2="1350.0" y2="500.0" class="grid"/>
<text x="1350.0" y="528.0" class="small" text-anchor="middle">4.0</text>
<line x1="90.0" y1="212.5" x2="1350.0" y2="212.5" class="grid"/>
<text x="72.0" y="217.5" class="small" text-anchor="end">period 1</text>
<line x1="90.0" y1="254.2" x2="1350.0" y2="254.2" class="grid"/>
<text x="72.0" y="259.2" class="small" text-anchor="end">period 2</text>
<line x1="90.0" y1="295.8" x2="1350.0" y2="295.8" class="grid"/>
<text x="72.0" y="300.8" class="small" text-anchor="end">period 4</text>
<line x1="90.0" y1="337.5" x2="1350.0" y2="337.5" class="grid"/>
<text x="72.0" y="342.5" class="small" text-anchor="end">period 8</text>
<line x1="90.0" y1="379.2" x2="1350.0" y2="379.2" class="grid"/>
<text x="72.0" y="384.2" class="small" text-anchor="end">period 16</text>
<line x1="90.0" y1="420.8" x2="1350.0" y2="420.8" class="grid"/>
<text x="72.0" y="425.8" class="small" text-anchor="end">period 32</text>
<line x1="90.0" y1="462.5" x2="1350.0" y2="462.5" class="grid"/>
<text x="72.0" y="467.5" class="small" text-anchor="end">period 64</text>
<line x1="90.0" y1="489.6" x2="1350.0" y2="489.6" class="grid"/>
<text x="72.0" y="494.6" class="small" text-anchor="end">chaos</text>
<line x1="90.0" y1="500.0" x2="1350.0" y2="500.0" class="axis"/>
<line x1="90.0" y1="150.0" x2="90.0" y2="500.0" class="axis"/>
<text x="720.0" y="558.0" class="small" text-anchor="middle">growth parameter r</text>
<polyline points="90.00,489.58 91.54,489.58 654.62,489.58 656.15,489.58 808.46,489.58 810.00,489.58 813.08,489.58 814.62,489.58 816.15,489.58 819.23,489.58 820.77,489.58 822.31,489.58 825.38,489.58 826.92,489.58 828.46,489.58 830.00,489.58 831.54,489.58 833.08,489.58 834.62,489.58 836.15,489.58 837.69,489.58 839.23,489.58 840.77,489.58 842.31,489.58 843.85,489.58 845.38,489.58 846.92,489.58 848.46,489.58 850.00,489.58 851.54,489.58 854.62,489.58 856.15,489.58 857.69,489.58 860.77,489.58 862.31,489.58 863.85,489.58 865.38,489.58 866.92,489.58 868.46,489.58 870.00,489.58 871.54,489.58 873.08,489.58 874.62,489.58 876.15,489.58 877.69,489.58 879.23,489.58 888.46,489.58 890.00,489.58 891.54,489.58 893.08,489.58 894.62,489.58 896.15,489.58 897.69,489.58 899.23,489.58 900.77,489.58 902.31,489.58 903.85,489.58 906.92,489.58 908.46,489.58 910.00,489.58 911.54,489.58 913.08,489.58 914.62,489.58 916.15,489.58 917.69,489.58 919.23,489.58 920.77,489.58 922.31,489.58 923.85,489.58 925.38,489.58 926.92,489.58 928.46,489.58 930.00,489.58 931.54,489.58 933.08,489.58 934.62,489.58 936.15,489.58 937.69,489.58 939.23,489.58 940.77,489.58 942.31,489.58 943.85,489.58 945.38,489.58 946.92,489.58 948.46,489.58 950.00,489.58 951.54,489.58 953.08,489.58 954.62,489.58 956.15,489.58 957.69,489.58 959.23,489.58 960.77,489.58 962.31,489.58 963.85,489.58 965.38,489.58 966.92,489.58 968.46,489.58 970.00,489.58 971.54,489.58 973.08,489.58 976.15,489.58 977.69,489.58 979.23,489.58 980.77,489.58 982.31,489.58 983.85,489.58 985.38,489.58 986.92,489.58 988.46,489.58 990.00,489.58 991.54,489.58 993.08,489.58 994.62,489.58 996.15,489.58 997.69,489.58 999.23,489.58 1000.77,489.58 1002.31,489.58 1003.85,489.58 1005.38,489.58 1006.92,489.58 1008.46,489.58 1010.00,489.58 1011.54,489.58 1013.08,489.58 1014.62,489.58 1016.15,489.58 1017.69,489.58 1019.23,489.58 1026.92,489.58 1028.46,489.58 1030.00,489.58 1031.54,489.58 1033.08,489.58 1034.62,489.58 1036.15,489.58 1037.69,489.58 1039.23,489.58 1040.77,489.58 1042.31,489.58 1043.85,489.58 1045.38,489.58 1046.92,489.58 1048.46,489.58 1050.00,489.58 1051.54,489.58 1053.08,489.58 1054.62,489.58 1056.15,489.58 1057.69,489.58 1059.23,489.58 1060.77,489.58 1062.31,489.58 1063.85,489.58 1065.38,489.58 1066.92,489.58 1068.46,489.58 1070.00,489.58 1071.54,489.58 1073.08,489.58 1074.62,489.58 1076.15,489.58 1077.69,489.58 1079.23,489.58 1080.77,489.58 1082.31,489.58 1083.85,489.58 1085.38,489.58 1086.92,489.58 1088.46,489.58 1090.00,489.58 1091.54,489.58 1093.08,489.58 1094.62,489.58 1096.15,489.58 1097.69,489.58 1099.23,489.58 1100.77,489.58 1102.31,489.58 1103.85,489.58 1105.38,489.58 1106.92,489.58 1108.46,489.58 1110.00,489.58 1111.54,489.58 1113.08,489.58 1114.62,489.58 1116.15,489.58 1117.69,489.58 1119.23,489.58 1120.77,489.58 1122.31,489.58 1123.85,489.58 1125.38,489.58 1126.92,489.58 1128.46,489.58 1130.00,489.58 1131.54,489.58 1133.08,489.58 1160.77,489.58 1162.31,489.58 1163.85,489.58 1165.38,489.58 1166.92,489.58 1168.46,489.58 1170.00,489.58 1171.54,489.58 1173.08,489.58 1174.62,489.58 1176.15,489.58 1177.69,489.58 1179.23,489.58 1180.77,489.58 1182.31,489.58 1183.85,489.58 1185.38,489.58 1188.46,489.58 1190.00,489.58 1191.54,489.58 1193.08,489.58 1194.62,489.58 1196.15,489.58 1197.69,489.58 1199.23,489.58 1200.77,489.58 1202.31,489.58 1203.85,489.58 1205.38,489.58 1206.92,489.58 1208.46,489.58 1210.00,489.58 1211.54,489.58 1213.08,489.58 1214.62,489.58 1216.15,489.58 1217.69,489.58 1219.23,489.58 1220.77,489.58 1222.31,489.58 1223.85,489.58 1225.38,489.58 1226.92,489.58 1228.46,489.58 1230.00,489.58 1233.08,489.58 1234.62,489.58 1236.15,489.58 1237.69,489.58 1239.23,489.58 1240.77,489.58 1242.31,489.58 1243.85,489.58 1245.38,489.58 1246.92,489.58 1248.46,489.58 1250.00,489.58 1251.54,489.58 1253.08,489.58 1254.62,489.58 1256.15,489.58 1257.69,489.58 1259.23,489.58 1260.77,489.58 1262.31,489.58 1263.85,489.58 1265.38,489.58 1266.92,489.58 1268.46,489.58 1270.00,489.58 1271.54,489.58 1273.08,489.58 1274.62,489.58 1276.15,489.58 1277.69,489.58 1279.23,489.58 1280.77,489.58 1282.31,489.58 1283.85,489.58 1285.38,489.58 1286.92,489.58 1288.46,489.58 1290.00,489.58 1291.54,489.58 1293.08,489.58 1294.62,489.58 1296.15,489.58 1297.69,489.58 1299.23,489.58 1302.31,489.58 1303.85,489.58 1305.38,489.58 1306.92,489.58 1308.46,489.58 1310.00,489.58 1311.54,489.58 1313.08,489.58 1314.62,489.58 1316.15,489.58 1317.69,489.58 1319.23,489.58 1320.77,489.58 1322.31,489.58 1323.85,489.58 1325.38,489.58 1326.92,489.58 1328.46,489.58 1330.00,489.58 1331.54,489.58 1333.08,489.58 1334.62,489.58 1336.15,489.58 1337.69,489.58 1339.23,489.58 1340.77,489.58 1342.31,489.58 1343.85,489.58 1345.38,489.58 1346.92,489.58 1348.46,489.58 1350.00,489.58" fill="none" stroke="#94a3b8" stroke-opacity="0.35" stroke-width="2.2" stroke-linecap="round"/>
<polyline points="811.54,181.25 817.69,181.25 823.85,181.25 853.08,181.25 859.23,181.25 880.77,181.25 882.31,181.25 883.85,181.25 885.38,181.25 886.92,181.25 905.38,181.25 974.62,181.25 1020.77,181.25 1022.31,181.25 1023.85,181.25 1025.38,181.25 1134.62,181.25 1136.15,181.25 1137.69,181.25 1139.23,181.25 1140.77,181.25 1142.31,181.25 1143.85,181.25 1145.38,181.25 1146.92,181.25 1148.46,181.25 1150.00,181.25 1151.54,181.25 1153.08,181.25 1154.62,181.25 1156.15,181.25 1157.69,181.25 1159.23,181.25 1231.54,181.25" fill="none" stroke="#f8fafc" stroke-opacity="0.55" stroke-width="2.2" stroke-linecap="round"/>
<polyline points="93.08,254.17 94.62,254.17 96.15,254.17 97.69,254.17 99.23,254.17 100.77,254.17 102.31,254.17 103.85,254.17 105.38,254.17 106.92,254.17 108.46,254.17 110.00,254.17 111.54,254.17 113.08,254.17 114.62,254.17 116.15,254.17 117.69,254.17 119.23,254.17 120.77,254.17 122.31,254.17 123.85,254.17 125.38,254.17 126.92,254.17 128.46,254.17 130.00,254.17 131.54,254.17 133.08,254.17 134.62,254.17 136.15,254.17 137.69,254.17 139.23,254.17 140.77,254.17 142.31,254.17 143.85,254.17 145.38,254.17 146.92,254.17 148.46,254.17 150.00,254.17 151.54,254.17 153.08,254.17 154.62,254.17 156.15,254.17 157.69,254.17 159.23,254.17 160.77,254.17 162.31,254.17 163.85,254.17 165.38,254.17 166.92,254.17 168.46,254.17 170.00,254.17 171.54,254.17 173.08,254.17 174.62,254.17 176.15,254.17 177.69,254.17 179.23,254.17 180.77,254.17 182.31,254.17 183.85,254.17 185.38,254.17 186.92,254.17 188.46,254.17 190.00,254.17 191.54,254.17 193.08,254.17 194.62,254.17 196.15,254.17 197.69,254.17 199.23,254.17 200.77,254.17 202.31,254.17 203.85,254.17 205.38,254.17 206.92,254.17 208.46,254.17 210.00,254.17 211.54,254.17 213.08,254.17 214.62,254.17 216.15,254.17 217.69,254.17 219.23,254.17 220.77,254.17 222.31,254.17 223.85,254.17 225.38,254.17 226.92,254.17 228.46,254.17 230.00,254.17 231.54,254.17 233.08,254.17 234.62,254.17 236.15,254.17 237.69,254.17 239.23,254.17 240.77,254.17 242.31,254.17 243.85,254.17 245.38,254.17 246.92,254.17 248.46,254.17 250.00,254.17 251.54,254.17 253.08,254.17 254.62,254.17 256.15,254.17 257.69,254.17 259.23,254.17 260.77,254.17 262.31,254.17 263.85,254.17 265.38,254.17 266.92,254.17 268.46,254.17 270.00,254.17 271.54,254.17 273.08,254.17 274.62,254.17 276.15,254.17 277.69,254.17 279.23,254.17 280.77,254.17 282.31,254.17 283.85,254.17 285.38,254.17 286.92,254.17 288.46,254.17 290.00,254.17 291.54,254.17 293.08,254.17 294.62,254.17 296.15,254.17 297.69,254.17 299.23,254.17 300.77,254.17 302.31,254.17 303.85,254.17 305.38,254.17 306.92,254.17 308.46,254.17 310.00,254.17 311.54,254.17 313.08,254.17 314.62,254.17 316.15,254.17 317.69,254.17 319.23,254.17 320.77,254.17 322.31,254.17 323.85,254.17 325.38,254.17 326.92,254.17 328.46,254.17 330.00,254.17 331.54,254.17 333.08,254.17 334.62,254.17 336.15,254.17 337.69,254.17 339.23,254.17 340.77,254.17 342.31,254.17 343.85,254.17 345.38,254.17 346.92,254.17 348.46,254.17 350.00,254.17 351.54,254.17 353.08,254.17 354.62,254.17 356.15,254.17 357.69,254.17 359.23,254.17 360.77,254.17 362.31,254.17 363.85,254.17 365.38,254.17 366.92,254.17 368.46,254.17 370.00,254.17 371.54,254.17 373.08,254.17 374.62,254.17 376.15,254.17 377.69,254.17 379.23,254.17 380.77,254.17 382.31,254.17 383.85,254.17 385.38,254.17 386.92,254.17 388.46,254.17 390.00,254.17 391.54,254.17 393.08,254.17 394.62,254.17 396.15,254.17 397.69,254.17 399.23,254.17 400.77,254.17 402.31,254.17 403.85,254.17 405.38,254.17 406.92,254.17 408.46,254.17 410.00,254.17 411.54,254.17 413.08,254.17 414.62,254.17 416.15,254.17 417.69,254.17 419.23,254.17 420.77,254.17 422.31,254.17 423.85,254.17 425.38,254.17 426.92,254.17 428.46,254.17 430.00,254.17 431.54,254.17 433.08,254.17 434.62,254.17 436.15,254.17 437.69,254.17 439.23,254.17 440.77,254.17 442.31,254.17 443.85,254.17 445.38,254.17 446.92,254.17 448.46,254.17 450.00,254.17 451.54,254.17 453.08,254.17 454.62,254.17 456.15,254.17 457.69,254.17 459.23,254.17 460.77,254.17 462.31,254.17 463.85,254.17 465.38,254.17 466.92,254.17 468.46,254.17 470.00,254.17 471.54,254.17 473.08,254.17 474.62,254.17 476.15,254.17 477.69,254.17 479.23,254.17 480.77,254.17 482.31,254.17 483.85,254.17 485.38,254.17 486.92,254.17 488.46,254.17 490.00,254.17 491.54,254.17 493.08,254.17 494.62,254.17 496.15,254.17 497.69,254.17 499.23,254.17 500.77,254.17 502.31,254.17 503.85,254.17 505.38,254.17 506.92,254.17 508.46,254.17 510.00,254.17 511.54,254.17 513.08,254.17 514.62,254.17 516.15,254.17 517.69,254.17 519.23,254.17 520.77,254.17 522.31,254.17 523.85,254.17 525.38,254.17 526.92,254.17 528.46,254.17 530.00,254.17 531.54,254.17 533.08,254.17 534.62,254.17 536.15,254.17 537.69,254.17 539.23,254.17 540.77,254.17 542.31,254.17 543.85,254.17 545.38,254.17 546.92,254.17 548.46,254.17 550.00,254.17 551.54,254.17 553.08,254.17 554.62,254.17 556.15,254.17 557.69,254.17 559.23,254.17 560.77,254.17 562.31,254.17 563.85,254.17 565.38,254.17 566.92,254.17 568.46,254.17 570.00,254.17 571.54,254.17 573.08,254.17 574.62,254.17 576.15,254.17 577.69,254.17 579.23,254.17 580.77,254.17 582.31,254.17 583.85,254.17 585.38,254.17 586.92,254.17 588.46,254.17 590.00,254.17 591.54,254.17 593.08,254.17 594.62,254.17 596.15,254.17 597.69,254.17 599.23,254.17 600.77,254.17 602.31,254.17 603.85,254.17 605.38,254.17 606.92,254.17 608.46,254.17 610.00,254.17 611.54,254.17 613.08,254.17 614.62,254.17 616.15,254.17 617.69,254.17 619.23,254.17 620.77,254.17 622.31,254.17 623.85,254.17 625.38,254.17 626.92,254.17 628.46,254.17 630.00,254.17 631.54,254.17 633.08,254.17 634.62,254.17 636.15,254.17 637.69,254.17 639.23,254.17 640.77,254.17 642.31,254.17 643.85,254.17 645.38,254.17 646.92,254.17 648.46,254.17 650.00,254.17 651.54,254.17 653.08,254.17" fill="none" stroke="#67e8f9" stroke-opacity="0.72" stroke-width="2.6" stroke-linecap="round"/>
<polyline points="657.69,295.83 659.23,295.83 660.77,295.83 662.31,295.83 663.85,295.83 665.38,295.83 666.92,295.83 668.46,295.83 670.00,295.83 671.54,295.83 673.08,295.83 674.62,295.83 676.15,295.83 677.69,295.83 679.23,295.83 680.77,295.83 682.31,295.83 683.85,295.83 685.38,295.83 686.92,295.83 688.46,295.83 690.00,295.83 691.54,295.83 693.08,295.83 694.62,295.83 696.15,295.83 697.69,295.83 699.23,295.83 700.77,295.83 702.31,295.83 703.85,295.83 705.38,295.83 706.92,295.83 708.46,295.83 710.00,295.83 711.54,295.83 713.08,295.83 714.62,295.83 716.15,295.83 717.69,295.83 719.23,295.83 720.77,295.83 722.31,295.83 723.85,295.83 725.38,295.83 726.92,295.83 728.46,295.83 730.00,295.83 731.54,295.83 733.08,295.83 734.62,295.83 736.15,295.83 737.69,295.83 739.23,295.83 740.77,295.83 742.31,295.83 743.85,295.83 745.38,295.83 746.92,295.83 748.46,295.83 750.00,295.83 751.54,295.83 753.08,295.83 754.62,295.83 756.15,295.83 757.69,295.83 759.23,295.83 760.77,295.83 762.31,295.83 763.85,295.83 765.38,295.83 766.92,295.83 768.46,295.83 770.00,295.83 771.54,295.83 773.08,295.83" fill="none" stroke="#c4b5fd" stroke-opacity="0.72" stroke-width="2.6" stroke-linecap="round"/>
<polyline points="774.62,337.50 776.15,337.50 777.69,337.50 779.23,337.50 780.77,337.50 782.31,337.50 783.85,337.50 785.38,337.50 786.92,337.50 788.46,337.50 790.00,337.50 791.54,337.50 793.08,337.50 794.62,337.50 796.15,337.50 797.69,337.50 799.23,337.50 1300.77,337.50" fill="none" stroke="#f9a8d4" stroke-opacity="0.72" stroke-width="2.6" stroke-linecap="round"/>
<polyline points="800.77,379.17 802.31,379.17 803.85,379.17 805.38,379.17 1186.92,379.17" fill="none" stroke="#f59e0b" stroke-opacity="0.72" stroke-width="2.6" stroke-linecap="round"/>
<polyline points="806.92,420.83" fill="none" stroke="#f97316" stroke-opacity="0.72" stroke-width="2.6" stroke-linecap="round"/>
<text x="1050.0" y="188.0" class="small" text-anchor="start"><tspan x="1050.0" dy="0">repeat search up to period 64</tspan><tspan x="1050.0" dy="20.0">otherwise count the point as chaos</tspan></text>
<rect x="90" y="610" width="600" height="280" class="panel"/>
<text x="90.0" y="592.0" class="label" text-anchor="start">Superstable doubling points</text>
<text x="370.0" y="592.0" class="small" text-anchor="start">the critical point x = 0.5 lands back on itself at each band center</text>
<line x1="90.0" y1="871.8" x2="690.0" y2="871.8" class="grid"/>
<text x="72.0" y="876.8" class="small" text-anchor="end">3</text>
<line x1="90.0" y1="780.7" x2="690.0" y2="780.7" class="grid"/>
<text x="72.0" y="785.7" class="small" text-anchor="end">3.2</text>
<line x1="90.0" y1="689.7" x2="690.0" y2="689.7" class="grid"/>
<text x="72.0" y="694.7" class="small" text-anchor="end">3.4</text>
<line x1="90.0" y1="621.4" x2="690.0" y2="621.4" class="grid"/>
<text x="72.0" y="626.4" class="small" text-anchor="end">3.55</text>
<line x1="140.0" y1="610.0" x2="140.0" y2="890.0" class="grid"/>
<text x="140.0" y="916.0" class="small" text-anchor="middle">2</text>
<line x1="240.0" y1="610.0" x2="240.0" y2="890.0" class="grid"/>
<text x="240.0" y="916.0" class="small" text-anchor="middle">4</text>
<line x1="340.0" y1="610.0" x2="340.0" y2="890.0" class="grid"/>
<text x="340.0" y="916.0" class="small" text-anchor="middle">8</text>
<line x1="440.0" y1="610.0" x2="440.0" y2="890.0" class="grid"/>
<text x="440.0" y="916.0" class="small" text-anchor="middle">16</text>
<line x1="540.0" y1="610.0" x2="540.0" y2="890.0" class="grid"/>
<text x="540.0" y="916.0" class="small" text-anchor="middle">32</text>
<line x1="640.0" y1="610.0" x2="640.0" y2="890.0" class="grid"/>
<text x="640.0" y="916.0" class="small" text-anchor="middle">64</text>
<line x1="90.0" y1="890.0" x2="690.0" y2="890.0" class="axis"/>
<line x1="90.0" y1="610.0" x2="90.0" y2="890.0" class="axis"/>
<text x="390.0" y="946.0" class="small" text-anchor="middle">cycle period</text>
<text x="38.0" y="750.0" class="small" text-anchor="middle" transform="rotate(-90 38 750.0)">superstable parameter r</text>
<polyline points="140.00,764.31 240.00,644.80 340.00,619.27 440.00,613.79 540.00,612.62 640.00,612.37" fill="none" stroke="#60a5fa" stroke-width="3" stroke-linecap="round" stroke-linejoin="round"/>
<circle cx="140.00" cy="764.31" r="5.2" fill="#dbeafe" stroke="#60a5fa" stroke-width="2"/>
<circle cx="240.00" cy="644.80" r="5.2" fill="#dbeafe" stroke="#60a5fa" stroke-width="2"/>
<circle cx="340.00" cy="619.27" r="5.2" fill="#dbeafe" stroke="#60a5fa" stroke-width="2"/>
<circle cx="440.00" cy="613.79" r="5.2" fill="#dbeafe" stroke="#60a5fa" stroke-width="2"/>
<circle cx="540.00" cy="612.62" r="5.2" fill="#dbeafe" stroke="#60a5fa" stroke-width="2"/>
<circle cx="640.00" cy="612.37" r="5.2" fill="#dbeafe" stroke="#60a5fa" stroke-width="2"/>
<rect x="760" y="610" width="590" height="280" class="panel"/>
<text x="760.0" y="592.0" class="label" text-anchor="start">Gap-ratio estimates for δ</text>
<text x="1008.0" y="592.0" class="small" text-anchor="start">gap ratios already lean toward the Feigenbaum constant</text>
<line x1="760.0" y1="610.0" x2="760.0" y2="890.0" class="grid"/>
<text x="760.0" y="916.0" class="small" text-anchor="middle">8</text>
<line x1="844.3" y1="610.0" x2="844.3" y2="890.0" class="grid"/>
<text x="844.3" y="916.0" class="small" text-anchor="middle">16</text>
<line x1="1012.9" y1="610.0" x2="1012.9" y2="890.0" class="grid"/>
<text x="1012.9" y="916.0" class="small" text-anchor="middle">32</text>
<line x1="1350.0" y1="610.0" x2="1350.0" y2="890.0" class="grid"/>
<text x="1350.0" y="916.0" class="small" text-anchor="middle">64</text>
<line x1="760.0" y1="850.0" x2="1350.0" y2="850.0" class="grid"/>
<text x="742.0" y="855.0" class="small" text-anchor="end">4.2</text>
<line x1="760.0" y1="770.0" x2="1350.0" y2="770.0" class="grid"/>
<text x="742.0" y="775.0" class="small" text-anchor="end">4.6</text>
<line x1="760.0" y1="690.0" x2="1350.0" y2="690.0" class="grid"/>
<text x="742.0" y="695.0" class="small" text-anchor="end">5.0</text>
<line x1="760.0" y1="610.0" x2="1350.0" y2="610.0" class="grid"/>
<text x="742.0" y="615.0" class="small" text-anchor="end">5.4</text>
<line x1="760" y1="756.16" x2="1350" y2="756.16" stroke="#f8fafc" stroke-width="2" stroke-dasharray="8 8" opacity="0.85"/>
<text x="1314.0" y="746.2" class="small" text-anchor="end">Feigenbaum δ ≈ 4.6692</text>
<line x1="760.0" y1="890.0" x2="1350.0" y2="890.0" class="axis"/>
<line x1="760.0" y1="610.0" x2="760.0" y2="890.0" class="axis"/>
<text x="1055.0" y="946.0" class="small" text-anchor="middle">target period</text>
<polyline points="760.00,753.85 844.29,757.41 1012.86,756.32 1350.00,756.21" fill="none" stroke="#f97316" stroke-width="3" stroke-linecap="round" stroke-linejoin="round"/>
<circle cx="760.00" cy="753.85" r="5.0" fill="#fed7aa" stroke="#f97316" stroke-width="2"/>
<text x="772.0" y="739.8" class="small" text-anchor="start">4.6808</text>
<circle cx="844.29" cy="757.41" r="5.0" fill="#fed7aa" stroke="#f97316" stroke-width="2"/>
<text x="856.3" y="743.4" class="small" text-anchor="start">4.6630</text>
<circle cx="1012.86" cy="756.32" r="5.0" fill="#fed7aa" stroke="#f97316" stroke-width="2"/>
<text x="1024.9" y="742.3" class="small" text-anchor="start">4.6684</text>
<circle cx="1350.00" cy="756.21" r="5.0" fill="#fed7aa" stroke="#f97316" stroke-width="2"/>
<text x="1362.0" y="742.2" class="small" text-anchor="start">4.6690</text>
<text x="92.0" y="940.0" class="small" text-anchor="start"><tspan x="92.0" dy="0">Top: direct period detection on a dense r-scan. Bottom left: superstable points where the orbit of 0.5 lands back on 0.5.</tspan><tspan x="92.0" dy="18.0">Bottom right: successive gap ratios already drift toward δ, even in this small public calculation.</tspan></text>
</svg>
